<?xml version="1.0" encoding="utf-8"?>
<!-- Generator: Adobe Illustrator 26.5.1, SVG Export Plug-In . SVG Version: 6.00 Build 0)  -->
<svg version="1.1" id="Layer_1" xmlns="http://www.w3.org/2000/svg" xmlns:xlink="http://www.w3.org/1999/xlink" x="0px" y="0px"
	 viewBox="0 0 526.7 551.9" style="enable-background:new 0 0 526.7 551.9;" xml:space="preserve">
<style type="text/css">
	.st0{fill:none;stroke:#000000;stroke-width:0.5;stroke-linecap:round;stroke-linejoin:round;stroke-miterlimit:4.0007;}
	.st1{fill:none;stroke:#000000;stroke-width:0.3643;stroke-linecap:round;stroke-linejoin:round;stroke-miterlimit:4.0007;}
	.st2{fill:#FFFFFF;stroke:#000000;stroke-width:0.5;stroke-linecap:round;stroke-linejoin:round;stroke-miterlimit:4.0007;}
	.st3{fill:none;stroke:#000000;stroke-width:0.5;stroke-miterlimit:10;}
	.st4{fill:none;stroke:#BCBEC0;stroke-miterlimit:10;}
	.st5{fill:none;stroke:#CA171E;stroke-miterlimit:10;}
	.st6{fill:none;stroke:#61983F;stroke-miterlimit:10;}
	.st7{fill:none;stroke:#77787B;stroke-miterlimit:10;}
	.st8{fill:none;stroke:#0076A2;stroke-miterlimit:10;}
	.st9{fill:none;stroke:#AB9002;stroke-miterlimit:10;}
	.st10{fill:none;stroke:#EE4498;stroke-miterlimit:10;}
	.st11{fill:none;stroke:#854499;stroke-miterlimit:10;}
	.st12{fill:none;stroke:#000000;stroke-miterlimit:4.0007;}
	.st13{fill:none;stroke:#7C4200;stroke-miterlimit:10;}
	.st14{fill:none;stroke:#000000;stroke-miterlimit:10;}
	.st15{fill:#231F20;}
	.st16{fill:none;stroke:#000000;stroke-width:3.1315;stroke-miterlimit:10;}
</style>
<g>
	<circle class="st0" cx="214.6" cy="354.7" r="13.3"/>
	<circle class="st0" cx="214.6" cy="354.7" r="17.9"/>
	<rect x="212.3" y="343" class="st0" width="4.6" height="2.1"/>
	<rect x="222" y="353.7" class="st0" width="4.6" height="2.1"/>
	<rect x="202.4" y="353.7" class="st0" width="4.6" height="2.1"/>
	<rect x="212.3" y="364.5" class="st0" width="4.6" height="2.1"/>
</g>
<g>
	<circle class="st0" cx="111.6" cy="354.4" r="13.3"/>
	<circle class="st0" cx="111.6" cy="354.4" r="17.9"/>
	<rect x="109.3" y="342.7" class="st0" width="4.6" height="2.1"/>
	<rect x="119" y="353.4" class="st0" width="4.6" height="2.1"/>
	<rect x="99.4" y="353.4" class="st0" width="4.6" height="2.1"/>
	<rect x="109.3" y="364.1" class="st0" width="4.6" height="2.1"/>
</g>
<g>
	<circle class="st1" cx="391.7" cy="256.9" r="9.7"/>
	
		<rect x="389.5" y="246.2" transform="matrix(-1.836970e-16 1 -1 -1.836970e-16 638.9906 -144.5058)" class="st2" width="4.6" height="2.1"/>
	<rect x="399.2" y="255.9" class="st2" width="4.6" height="2.1"/>
	<rect x="379.6" y="255.9" class="st2" width="4.6" height="2.1"/>
</g>
<rect x="90.5" y="122.1" class="st3" width="231.6" height="138.7"/>
<g>
	<path d="M211.8,399.6l-1.3-2.5h-1.4v2.5h-0.6v-5.7h2.2c1,0,1.7,0.6,1.7,1.6c0,0.8-0.5,1.4-1.2,1.5l1.4,2.6H211.8z M210.6,394.4
		h-1.5v2.1h1.5c0.7,0,1.1-0.3,1.1-1C211.8,394.8,211.3,394.4,210.6,394.4z"/>
	<path d="M214,397.8c0,0.9,0.4,1.4,1.2,1.4c0.5,0,0.7-0.1,1-0.5l0.4,0.3c-0.4,0.4-0.8,0.6-1.4,0.6c-1,0-1.7-0.6-1.7-2
		c0-1.3,0.6-2,1.6-2c1,0,1.6,0.7,1.6,1.9v0.3H214z M216,396.7c-0.2-0.4-0.5-0.6-0.9-0.6s-0.8,0.2-0.9,0.6c-0.1,0.2-0.1,0.3-0.1,0.7
		h2.1C216.1,397,216.1,396.9,216,396.7z"/>
	<path d="M220.3,399.6v-0.5c-0.3,0.4-0.7,0.5-1.1,0.5c-0.4,0-0.8-0.1-1-0.3c-0.4-0.4-0.5-1.1-0.5-1.7s0.1-1.3,0.5-1.7
		c0.2-0.2,0.6-0.3,1-0.3c0.4,0,0.8,0.1,1.1,0.5v-2.2h0.6v5.7H220.3z M219.3,396.1c-0.9,0-1,0.7-1,1.5c0,0.8,0.1,1.5,1,1.5
		s1-0.7,1-1.5C220.3,396.8,220.1,396.1,219.3,396.1z"/>
	<path d="M205.7,409.3h-2.2v-5.7h2.2c1,0,1.7,0.6,1.7,1.5c0,0.6-0.4,1.1-0.8,1.3c0.5,0.2,0.9,0.7,0.9,1.4
		C207.4,408.7,206.7,409.3,205.7,409.3z M205.5,404.1H204v2h1.5c0.6,0,1.1-0.3,1.1-1S206.2,404.1,205.5,404.1z M205.6,406.6H204v2.1
		h1.6c0.7,0,1.2-0.4,1.2-1.1C206.7,407,206.3,406.6,205.6,406.6z"/>
	<path d="M211.2,409.3v-0.4c-0.3,0.3-0.7,0.5-1.1,0.5c-0.4,0-0.8-0.1-1-0.4c-0.3-0.3-0.4-0.7-0.4-1.1v-2.5h0.6v2.4
		c0,0.7,0.4,1.1,1,1.1s1-0.4,1-1.1v-2.4h0.6v4H211.2z"/>
	<path d="M214.3,409.3c-0.7,0-1-0.5-1-1.1v-2.4h-0.5v-0.4h0.5v-1.2h0.6v1.2h0.8v0.4h-0.8v2.4c0,0.4,0.2,0.6,0.5,0.6h0.3v0.5H214.3z"
		/>
	<path d="M217,409.3c-0.7,0-1-0.5-1-1.1v-2.4h-0.5v-0.4h0.5v-1.2h0.6v1.2h0.8v0.4h-0.8v2.4c0,0.4,0.2,0.6,0.5,0.6h0.3v0.5H217z"/>
	<path d="M221.1,408.9c-0.3,0.3-0.7,0.5-1.1,0.5s-0.9-0.2-1.1-0.5c-0.4-0.4-0.5-1-0.5-1.6c0-0.6,0.1-1.2,0.5-1.6
		c0.3-0.3,0.7-0.5,1.1-0.5s0.9,0.2,1.1,0.5c0.4,0.4,0.5,1,0.5,1.6C221.6,407.9,221.5,408.4,221.1,408.9z M220.7,406.1
		c-0.2-0.2-0.4-0.3-0.7-0.3s-0.5,0.1-0.7,0.3c-0.3,0.3-0.3,0.8-0.3,1.2s0,0.9,0.3,1.2c0.2,0.2,0.4,0.3,0.7,0.3s0.5-0.1,0.7-0.3
		c0.3-0.3,0.3-0.8,0.3-1.2S221,406.3,220.7,406.1z"/>
	<path d="M225.4,409.3v-2.4c0-0.7-0.4-1.1-1-1.1c-0.6,0-1,0.4-1,1.1v2.4h-0.6v-4h0.6v0.4c0.3-0.3,0.7-0.5,1.1-0.5
		c0.4,0,0.8,0.1,1,0.4c0.3,0.3,0.4,0.6,0.4,1.1v2.5H225.4z"/>
</g>
<g>
	<path d="M104.9,399c-0.4,0.4-0.9,0.7-1.5,0.7c-0.6,0-1.1-0.2-1.5-0.6c-0.5-0.5-0.5-1.1-0.5-2.3c0-1.2,0-1.8,0.5-2.3
		c0.4-0.4,0.9-0.6,1.5-0.6c1.1,0,1.8,0.7,2,1.7h-0.6c-0.2-0.7-0.7-1.2-1.4-1.2c-0.4,0-0.7,0.2-1,0.4c-0.4,0.4-0.4,0.8-0.4,2
		c0,1.2,0,1.6,0.4,2c0.2,0.3,0.6,0.4,1,0.4c0.4,0,0.8-0.2,1.1-0.5c0.2-0.3,0.3-0.6,0.3-1v-0.4h-1.4v-0.5h2v0.9
		C105.4,398.2,105.3,398.6,104.9,399z"/>
	<path d="M108.9,396.4c-0.2-0.2-0.4-0.3-0.7-0.3c-0.6,0-0.9,0.5-0.9,1.1v2.4h-0.6v-4h0.6v0.5c0.2-0.3,0.7-0.5,1.1-0.5
		c0.4,0,0.7,0.1,0.9,0.4L108.9,396.4z"/>
	<path d="M110.5,397.8c0,0.9,0.4,1.4,1.2,1.4c0.5,0,0.7-0.1,1-0.5l0.4,0.3c-0.4,0.4-0.8,0.6-1.4,0.6c-1,0-1.7-0.6-1.7-2
		c0-1.3,0.6-2,1.6-2c1,0,1.6,0.7,1.6,1.9v0.3H110.5z M112.4,396.7c-0.2-0.4-0.5-0.6-0.9-0.6s-0.8,0.2-0.9,0.6
		c-0.1,0.2-0.1,0.3-0.1,0.7h2.1C112.6,397,112.5,396.9,112.4,396.7z"/>
	<path d="M114.7,397.8c0,0.9,0.4,1.4,1.2,1.4c0.5,0,0.7-0.1,1-0.5l0.4,0.3c-0.4,0.4-0.8,0.6-1.4,0.6c-1,0-1.7-0.6-1.7-2
		c0-1.3,0.6-2,1.6-2c1,0,1.6,0.7,1.6,1.9v0.3H114.7z M116.7,396.7c-0.2-0.4-0.5-0.6-0.9-0.6s-0.8,0.2-0.9,0.6
		c-0.1,0.2-0.1,0.3-0.1,0.7h2.1C116.8,397,116.8,396.9,116.7,396.7z"/>
	<path d="M121.2,399.6v-2.4c0-0.7-0.4-1.1-1-1.1c-0.6,0-1,0.4-1,1.1v2.4h-0.6v-4h0.6v0.4c0.3-0.3,0.7-0.5,1.1-0.5
		c0.4,0,0.8,0.1,1,0.4c0.3,0.3,0.4,0.6,0.4,1.1v2.5H121.2z"/>
	<path d="M102.6,409.3h-2.2v-5.7h2.2c1,0,1.7,0.6,1.7,1.5c0,0.6-0.4,1.1-0.8,1.3c0.5,0.2,0.9,0.7,0.9,1.4
		C104.4,408.7,103.7,409.3,102.6,409.3z M102.5,404.1H101v2h1.5c0.6,0,1.1-0.3,1.1-1S103.2,404.1,102.5,404.1z M102.6,406.6H101v2.1
		h1.6c0.7,0,1.2-0.4,1.2-1.1C103.7,407,103.3,406.6,102.6,406.6z"/>
	<path d="M108.2,409.3v-0.4c-0.3,0.3-0.7,0.5-1.1,0.5c-0.4,0-0.8-0.1-1-0.4c-0.3-0.3-0.4-0.7-0.4-1.1v-2.5h0.6v2.4
		c0,0.7,0.4,1.1,1,1.1s1-0.4,1-1.1v-2.4h0.6v4H108.2z"/>
	<path d="M111.3,409.3c-0.7,0-1-0.5-1-1.1v-2.4h-0.5v-0.4h0.5v-1.2h0.6v1.2h0.8v0.4h-0.8v2.4c0,0.4,0.2,0.6,0.5,0.6h0.3v0.5H111.3z"
		/>
	<path d="M114,409.3c-0.7,0-1-0.5-1-1.1v-2.4h-0.5v-0.4h0.5v-1.2h0.6v1.2h0.8v0.4h-0.8v2.4c0,0.4,0.2,0.6,0.5,0.6h0.3v0.5H114z"/>
	<path d="M118.1,408.9c-0.3,0.3-0.7,0.5-1.1,0.5s-0.9-0.2-1.1-0.5c-0.4-0.4-0.5-1-0.5-1.6c0-0.6,0.1-1.2,0.5-1.6
		c0.3-0.3,0.7-0.5,1.1-0.5s0.9,0.2,1.1,0.5c0.4,0.4,0.5,1,0.5,1.6C118.6,407.9,118.5,408.4,118.1,408.9z M117.7,406.1
		c-0.2-0.2-0.4-0.3-0.7-0.3s-0.5,0.1-0.7,0.3c-0.3,0.3-0.3,0.8-0.3,1.2s0,0.9,0.3,1.2c0.2,0.2,0.4,0.3,0.7,0.3s0.5-0.1,0.7-0.3
		c0.3-0.3,0.3-0.8,0.3-1.2S118,406.3,117.7,406.1z"/>
	<path d="M122.4,409.3v-2.4c0-0.7-0.4-1.1-1-1.1c-0.6,0-1,0.4-1,1.1v2.4h-0.6v-4h0.6v0.4c0.3-0.3,0.7-0.5,1.1-0.5
		c0.4,0,0.8,0.1,1,0.4c0.3,0.3,0.4,0.6,0.4,1.1v2.5H122.4z"/>
</g>
<g>
	<path d="M419.1,258l-1.7-3l-1.2,1.4v1.6h-0.6v-5.7h0.6v3.3l2.7-3.3h0.7l-1.8,2.2l2.1,3.5H419.1z"/>
	<path d="M421.1,256.1c0,0.9,0.4,1.4,1.2,1.4c0.5,0,0.7-0.1,1-0.5l0.4,0.3c-0.4,0.4-0.8,0.6-1.4,0.6c-1,0-1.7-0.6-1.7-2
		c0-1.3,0.6-2,1.6-2c1,0,1.6,0.7,1.6,1.9v0.3H421.1z M423,255c-0.2-0.4-0.5-0.6-0.9-0.6s-0.8,0.2-0.9,0.6c-0.1,0.2-0.1,0.3-0.1,0.7
		h2.1C423.1,255.4,423.1,255.3,423,255z"/>
	<path d="M425.9,258.9c-0.1,0.2-0.2,0.4-0.3,0.5c-0.2,0.2-0.5,0.3-0.8,0.3h-0.2v-0.5h0.2c0.4,0,0.5-0.1,0.7-0.5l0.3-0.8l-1.4-3.9
		h0.6l1.1,3.2l1.1-3.2h0.6L425.9,258.9z"/>
	<path d="M430.7,258v-5.7h0.6v5.2h2.9v0.5H430.7z"/>
	<path d="M437.7,257.6c-0.3,0.3-0.7,0.5-1.1,0.5s-0.9-0.2-1.1-0.5c-0.4-0.4-0.5-1-0.5-1.6c0-0.6,0.1-1.2,0.5-1.6
		c0.3-0.3,0.7-0.5,1.1-0.5s0.9,0.2,1.1,0.5c0.4,0.4,0.5,1,0.5,1.6C438.2,256.6,438.1,257.1,437.7,257.6z M437.3,254.8
		c-0.2-0.2-0.4-0.3-0.7-0.3s-0.5,0.1-0.7,0.3c-0.3,0.3-0.3,0.8-0.3,1.2s0,0.9,0.3,1.2c0.2,0.2,0.4,0.3,0.7,0.3s0.5-0.1,0.7-0.3
		c0.3-0.3,0.3-0.8,0.3-1.2S437.6,255,437.3,254.8z"/>
	<path d="M441,258c-1,0-1.8-0.7-1.8-2c0-1.4,0.8-2,1.8-2c0.5,0,0.9,0.1,1.3,0.6l-0.4,0.4c-0.3-0.3-0.5-0.4-0.9-0.4
		c-0.4,0-0.7,0.2-0.9,0.5c-0.2,0.3-0.3,0.6-0.3,1.1c0,0.5,0.1,0.8,0.3,1.1c0.2,0.3,0.5,0.5,0.9,0.5c0.4,0,0.6-0.1,0.9-0.5l0.4,0.4
		C441.9,257.9,441.5,258,441,258z"/>
	<path d="M446,258l-1.3-2l-0.8,0.9v1.1h-0.6v-5.7h0.6v3.8l1.8-2.1h0.7l-1.3,1.5l1.6,2.4H446z"/>
</g>
<g>
	<path d="M416.2,352v2.1h2.5v0.5h-2.5v2.5h-0.6v-5.7h3.6v0.5H416.2z"/>
	<path d="M422.3,354c-0.2-0.2-0.4-0.3-0.7-0.3c-0.6,0-0.9,0.5-0.9,1.1v2.4h-0.6v-4h0.6v0.5c0.2-0.3,0.7-0.5,1.1-0.5
		c0.4,0,0.7,0.1,0.9,0.4L422.3,354z"/>
	<path d="M426.1,356.8c-0.3,0.3-0.7,0.5-1.1,0.5s-0.9-0.2-1.1-0.5c-0.4-0.4-0.5-1-0.5-1.6c0-0.6,0.1-1.2,0.5-1.6
		c0.3-0.3,0.7-0.5,1.1-0.5s0.9,0.2,1.1,0.5c0.4,0.4,0.5,1,0.5,1.6C426.5,355.8,426.5,356.4,426.1,356.8z M425.6,354
		c-0.2-0.2-0.4-0.3-0.7-0.3s-0.5,0.1-0.7,0.3c-0.3,0.3-0.3,0.8-0.3,1.2s0,0.9,0.3,1.2c0.2,0.2,0.4,0.3,0.7,0.3s0.5-0.1,0.7-0.3
		c0.3-0.3,0.3-0.8,0.3-1.2S425.9,354.3,425.6,354z"/>
	<path d="M430.3,357.2v-2.4c0-0.7-0.4-1.1-1-1.1c-0.6,0-1,0.4-1,1.1v2.4h-0.6v-4h0.6v0.4c0.3-0.3,0.7-0.5,1.1-0.5
		c0.4,0,0.8,0.1,1,0.4c0.3,0.3,0.4,0.6,0.4,1.1v2.5H430.3z"/>
	<path d="M433.4,357.2c-0.7,0-1-0.5-1-1.1v-2.4h-0.5v-0.4h0.5V352h0.6v1.2h0.8v0.4H433v2.4c0,0.4,0.2,0.6,0.5,0.6h0.3v0.5H433.4z"/>
	<path d="M439,357.3c-1.2,0-2-0.8-2-1.9v-3.8h0.6v3.8c0,0.9,0.5,1.4,1.4,1.4s1.4-0.6,1.4-1.4v-3.8h0.6v3.8
		C441,356.5,440.2,357.3,439,357.3z"/>
	<path d="M444.1,357.3c-0.9,0-1.4-0.2-2-0.8l0.4-0.4c0.5,0.5,0.9,0.6,1.6,0.6c0.8,0,1.4-0.4,1.4-1.1c0-0.3-0.1-0.6-0.3-0.7
		c-0.2-0.2-0.3-0.2-0.7-0.3l-0.7-0.1c-0.5-0.1-0.8-0.2-1.1-0.4c-0.3-0.3-0.4-0.6-0.4-1.1c0-1,0.7-1.6,1.8-1.6c0.7,0,1.2,0.2,1.7,0.6
		l-0.4,0.4c-0.4-0.3-0.7-0.5-1.3-0.5c-0.8,0-1.2,0.4-1.2,1.1c0,0.3,0.1,0.5,0.3,0.7c0.2,0.2,0.5,0.3,0.8,0.3l0.6,0.1
		c0.5,0.1,0.8,0.2,1,0.4c0.3,0.3,0.5,0.7,0.5,1.1C446,356.6,445.2,357.3,444.1,357.3z"/>
	<path d="M449.5,357.2h-2.2v-5.7h2.2c1,0,1.7,0.6,1.7,1.5c0,0.6-0.4,1.1-0.8,1.3c0.5,0.2,0.9,0.7,0.9,1.4
		C451.2,356.7,450.6,357.2,449.5,357.2z M449.4,352h-1.5v2h1.5c0.6,0,1.1-0.3,1.1-1S450.1,352,449.4,352z M449.5,354.6h-1.6v2.1h1.6
		c0.7,0,1.2-0.4,1.2-1.1C450.6,355,450.2,354.6,449.5,354.6z"/>
</g>
<g>
	<circle class="st0" cx="391.7" cy="164.8" r="11.2"/>
	
		<rect x="389.4" y="168.9" transform="matrix(-1.836970e-16 1 -1 -1.836970e-16 561.5519 -221.754)" class="st0" width="4.6" height="2.1"/>
	
		<rect x="384" y="168.9" transform="matrix(-1.836970e-16 1 -1 -1.836970e-16 556.2186 -216.4206)" class="st0" width="4.6" height="2.1"/>
	
		<rect x="394.8" y="168.9" transform="matrix(-1.836970e-16 1 -1 -1.836970e-16 566.9487 -227.1508)" class="st0" width="4.6" height="2.1"/>
</g>
<g>
	<path d="M415.6,162.1v-5.7h3.6v0.5h-2.9v2h2.5v0.5h-2.5v2.1h2.9v0.5H415.6z"/>
	<path d="M425.4,162.1v-2.4c0-0.7-0.4-1.1-1-1.1c-0.6,0-1,0.4-1,1v2.5h-0.6v-2.4c0-0.7-0.4-1.1-1-1.1c-0.6,0-1,0.4-1,1.1v2.4h-0.6
		v-4h0.6v0.4c0.3-0.3,0.7-0.5,1.1-0.5c0.5,0,1,0.2,1.2,0.7c0.3-0.4,0.7-0.7,1.3-0.7c0.4,0,0.8,0.1,1,0.4c0.3,0.3,0.4,0.6,0.4,1.1
		v2.5H425.4z"/>
	<path d="M427.7,160.3c0,0.9,0.4,1.4,1.2,1.4c0.5,0,0.7-0.1,1-0.5l0.4,0.3c-0.4,0.4-0.8,0.6-1.4,0.6c-1,0-1.7-0.6-1.7-2
		c0-1.3,0.6-2,1.6-2c1,0,1.6,0.7,1.6,1.9v0.3H427.7z M429.7,159.2c-0.2-0.4-0.5-0.6-0.9-0.6s-0.8,0.2-0.9,0.6
		c-0.1,0.2-0.1,0.3-0.1,0.7h2.1C429.8,159.5,429.8,159.4,429.7,159.2z"/>
	<path d="M433.8,158.9c-0.2-0.2-0.4-0.3-0.7-0.3c-0.6,0-0.9,0.5-0.9,1.1v2.4h-0.6v-4h0.6v0.5c0.2-0.3,0.7-0.5,1.1-0.5
		c0.4,0,0.7,0.1,0.9,0.4L433.8,158.9z"/>
	<path d="M436.3,163.9c-0.6,0-0.9-0.2-1.3-0.5l0.4-0.4c0.3,0.3,0.5,0.4,0.9,0.4c0.8,0,1.1-0.5,1.1-1.2v-0.6
		c-0.3,0.4-0.7,0.5-1.1,0.5c-0.4,0-0.7-0.1-1-0.4c-0.4-0.4-0.5-1-0.5-1.6c0-0.6,0.1-1.3,0.5-1.6c0.2-0.2,0.6-0.3,1-0.3
		c0.4,0,0.8,0.1,1.1,0.5v-0.5h0.6v4.1C437.9,163.2,437.3,163.9,436.3,163.9z M436.4,158.6c-0.9,0-1,0.7-1,1.5c0,0.7,0.1,1.5,1,1.5
		s1-0.7,1-1.5C437.4,159.3,437.2,158.6,436.4,158.6z"/>
	<path d="M439.8,160.3c0,0.9,0.4,1.4,1.2,1.4c0.5,0,0.7-0.1,1-0.5l0.4,0.3c-0.4,0.4-0.8,0.6-1.4,0.6c-1,0-1.7-0.6-1.7-2
		c0-1.3,0.6-2,1.6-2c1,0,1.6,0.7,1.6,1.9v0.3H439.8z M441.7,159.2c-0.2-0.4-0.5-0.6-0.9-0.6s-0.8,0.2-0.9,0.6
		c-0.1,0.2-0.1,0.3-0.1,0.7h2.1C441.8,159.5,441.8,159.4,441.7,159.2z"/>
	<path d="M446.2,162.1v-2.4c0-0.7-0.4-1.1-1-1.1c-0.6,0-1,0.4-1,1.1v2.4h-0.6v-4h0.6v0.4c0.3-0.3,0.7-0.5,1.1-0.5
		c0.4,0,0.8,0.1,1,0.4c0.3,0.3,0.4,0.6,0.4,1.1v2.5H446.2z"/>
	<path d="M449.7,162.1c-1,0-1.8-0.7-1.8-2c0-1.4,0.8-2,1.8-2c0.5,0,0.9,0.1,1.3,0.6l-0.4,0.4c-0.3-0.3-0.5-0.4-0.9-0.4
		c-0.4,0-0.7,0.2-0.9,0.5c-0.2,0.3-0.3,0.6-0.3,1.1c0,0.5,0.1,0.8,0.3,1.1c0.2,0.3,0.5,0.5,0.9,0.5c0.4,0,0.6-0.1,0.9-0.5l0.4,0.4
		C450.6,162,450.3,162.1,449.7,162.1z"/>
	<path d="M453.1,163.1c-0.1,0.2-0.2,0.4-0.3,0.5c-0.2,0.2-0.5,0.3-0.8,0.3h-0.2v-0.5h0.2c0.4,0,0.5-0.1,0.7-0.5l0.3-0.8l-1.4-3.9
		h0.6l1.1,3.2l1.1-3.2h0.6L453.1,163.1z"/>
	<path d="M417.8,171.8h-2.2V166h2.2c1,0,1.7,0.6,1.7,1.5c0,0.6-0.4,1.1-0.8,1.3c0.5,0.2,0.9,0.7,0.9,1.4
		C419.5,171.2,418.8,171.8,417.8,171.8z M417.7,166.6h-1.5v2h1.5c0.6,0,1.1-0.3,1.1-1S418.3,166.6,417.7,166.6z M417.7,169.1h-1.6
		v2.1h1.6c0.7,0,1.2-0.4,1.2-1.1C418.9,169.5,418.4,169.1,417.7,169.1z"/>
	<path d="M423.3,171.8v-0.4c-0.3,0.3-0.7,0.5-1.1,0.5c-0.4,0-0.8-0.1-1-0.4c-0.3-0.3-0.4-0.7-0.4-1.1v-2.5h0.6v2.4
		c0,0.7,0.4,1.1,1,1.1s1-0.4,1-1.1v-2.4h0.6v4H423.3z"/>
	<path d="M426.5,171.8c-0.7,0-1-0.5-1-1.1v-2.4H425v-0.4h0.5v-1.2h0.6v1.2h0.8v0.4H426v2.4c0,0.4,0.2,0.6,0.5,0.6h0.3v0.5H426.5z"/>
	<path d="M429.1,171.8c-0.7,0-1-0.5-1-1.1v-2.4h-0.5v-0.4h0.5v-1.2h0.6v1.2h0.8v0.4h-0.8v2.4c0,0.4,0.2,0.6,0.5,0.6h0.3v0.5H429.1z"
		/>
	<path d="M433.2,171.4c-0.3,0.3-0.7,0.5-1.1,0.5s-0.9-0.2-1.1-0.5c-0.4-0.4-0.5-1-0.5-1.6c0-0.6,0.1-1.2,0.5-1.6
		c0.3-0.3,0.7-0.5,1.1-0.5s0.9,0.2,1.1,0.5c0.4,0.4,0.5,1,0.5,1.6C433.7,170.4,433.6,170.9,433.2,171.4z M432.8,168.6
		c-0.2-0.2-0.4-0.3-0.7-0.3s-0.5,0.1-0.7,0.3c-0.3,0.3-0.3,0.8-0.3,1.2s0,0.9,0.3,1.2c0.2,0.2,0.4,0.3,0.7,0.3s0.5-0.1,0.7-0.3
		c0.3-0.3,0.3-0.8,0.3-1.2S433.1,168.8,432.8,168.6z"/>
	<path d="M437.5,171.8v-2.4c0-0.7-0.4-1.1-1-1.1c-0.6,0-1,0.4-1,1.1v2.4H435v-4h0.6v0.4c0.3-0.3,0.7-0.5,1.1-0.5
		c0.4,0,0.8,0.1,1,0.4c0.3,0.3,0.4,0.6,0.4,1.1v2.5H437.5z"/>
</g>
<g>
	<path d="M418,198.8v2.1h2.5v0.5H418v2.5h-0.6v-5.7h3.6v0.5H418z"/>
	<path d="M424.1,200.8c-0.2-0.2-0.4-0.3-0.7-0.3c-0.6,0-0.9,0.5-0.9,1.1v2.4h-0.6v-4h0.6v0.5c0.2-0.3,0.7-0.5,1.1-0.5
		c0.4,0,0.7,0.1,0.9,0.4L424.1,200.8z"/>
	<path d="M427.9,203.6c-0.3,0.3-0.7,0.5-1.1,0.5s-0.9-0.2-1.1-0.5c-0.4-0.4-0.5-1-0.5-1.6c0-0.6,0.1-1.2,0.5-1.6
		c0.3-0.3,0.7-0.5,1.1-0.5s0.9,0.2,1.1,0.5c0.4,0.4,0.5,1,0.5,1.6C428.3,202.6,428.3,203.2,427.9,203.6z M427.4,200.8
		c-0.2-0.2-0.4-0.3-0.7-0.3s-0.5,0.1-0.7,0.3c-0.3,0.3-0.3,0.8-0.3,1.2s0,0.9,0.3,1.2c0.2,0.2,0.4,0.3,0.7,0.3s0.5-0.1,0.7-0.3
		c0.3-0.3,0.3-0.8,0.3-1.2S427.7,201.1,427.4,200.8z"/>
	<path d="M432.1,204v-2.4c0-0.7-0.4-1.1-1-1.1c-0.6,0-1,0.4-1,1.1v2.4h-0.6v-4h0.6v0.4c0.3-0.3,0.7-0.5,1.1-0.5c0.4,0,0.8,0.1,1,0.4
		c0.3,0.3,0.4,0.6,0.4,1.1v2.5H432.1z"/>
	<path d="M435.2,204c-0.7,0-1-0.5-1-1.1v-2.4h-0.5v-0.4h0.5v-1.2h0.6v1.2h0.8v0.4h-0.8v2.4c0,0.4,0.2,0.6,0.5,0.6h0.3v0.5H435.2z"/>
	<path d="M418,213.7c-0.5,0-1-0.2-1.3-0.5l0.4-0.4c0.2,0.2,0.4,0.4,0.9,0.4c0.7,0,1.2-0.5,1.2-1.3v-3.9h0.6v4
		C419.8,213,419.1,213.7,418,213.7z"/>
	<path d="M423.8,213.6v-0.4c-0.3,0.3-0.7,0.5-1.1,0.5c-0.4,0-0.8-0.1-1-0.4c-0.3-0.3-0.4-0.7-0.4-1.1v-2.5h0.6v2.4
		c0,0.7,0.4,1.1,1,1.1s1-0.4,1-1.1v-2.4h0.6v4H423.8z"/>
	<path d="M430.9,213.6v-2.4c0-0.7-0.4-1.1-1-1.1c-0.6,0-1,0.4-1,1v2.5h-0.6v-2.4c0-0.7-0.4-1.1-1-1.1c-0.6,0-1,0.4-1,1.1v2.4h-0.6
		v-4h0.6v0.4c0.3-0.3,0.7-0.5,1.1-0.5c0.5,0,1,0.2,1.2,0.7c0.3-0.4,0.7-0.7,1.3-0.7c0.4,0,0.8,0.1,1,0.4c0.3,0.3,0.4,0.6,0.4,1.1
		v2.5H430.9z"/>
	<path d="M435.5,213.3c-0.2,0.2-0.6,0.3-1,0.3c-0.4,0-0.8-0.1-1.1-0.5v2.2h-0.6v-5.7h0.6v0.5c0.3-0.4,0.7-0.5,1.1-0.5
		c0.4,0,0.8,0.1,1,0.3c0.4,0.4,0.5,1.1,0.5,1.7S435.9,212.9,435.5,213.3z M434.5,210.2c-0.9,0-1,0.7-1,1.5c0,0.8,0.1,1.5,1,1.5
		s1-0.7,1-1.5C435.5,210.9,435.3,210.2,434.5,210.2z"/>
	<path d="M437.6,211.8c0,0.9,0.4,1.4,1.2,1.4c0.5,0,0.7-0.1,1-0.5l0.4,0.3c-0.4,0.4-0.8,0.6-1.4,0.6c-1,0-1.7-0.6-1.7-2
		c0-1.3,0.6-2,1.6-2c1,0,1.6,0.7,1.6,1.9v0.3H437.6z M439.6,210.7c-0.2-0.4-0.5-0.6-0.9-0.6s-0.8,0.2-0.9,0.6
		c-0.1,0.2-0.1,0.3-0.1,0.7h2.1C439.7,211.1,439.7,210.9,439.6,210.7z"/>
	<path d="M443.7,210.4c-0.2-0.2-0.4-0.3-0.7-0.3c-0.6,0-0.9,0.5-0.9,1.1v2.4h-0.6v-4h0.6v0.5c0.2-0.3,0.7-0.5,1.1-0.5
		c0.4,0,0.7,0.1,0.9,0.4L443.7,210.4z"/>
	<path d="M419.1,223.3c-0.6,0-1.1-0.2-1.5-0.6c-0.5-0.5-0.5-1.1-0.5-2.3c0-1.2,0-1.8,0.5-2.3c0.4-0.4,0.9-0.6,1.5-0.6
		c1,0,1.8,0.6,2,1.7h-0.6c-0.2-0.7-0.6-1.2-1.4-1.2c-0.4,0-0.7,0.1-1,0.4c-0.4,0.4-0.4,0.8-0.4,2c0,1.2,0,1.6,0.4,2
		c0.2,0.3,0.6,0.4,1,0.4c0.7,0,1.2-0.5,1.4-1.2h0.6C420.9,222.7,420.2,223.3,419.1,223.3z"/>
	<path d="M424.6,223.3v-0.4c-0.3,0.3-0.6,0.4-1.1,0.4c-0.5,0-0.9-0.1-1.1-0.4c-0.2-0.2-0.3-0.5-0.3-0.8c0-0.7,0.5-1.1,1.4-1.1h1.2
		v-0.4c0-0.6-0.3-0.9-1-0.9c-0.5,0-0.8,0.1-1,0.5l-0.4-0.4c0.4-0.5,0.8-0.6,1.4-0.6c1.1,0,1.6,0.5,1.6,1.3v2.7H424.6z M424.6,221.5
		h-1.1c-0.6,0-0.9,0.2-0.9,0.7c0,0.5,0.3,0.7,0.9,0.7c0.3,0,0.6,0,0.9-0.3c0.1-0.1,0.2-0.4,0.2-0.7V221.5z"/>
	<path d="M429.3,223c-0.2,0.2-0.6,0.3-1,0.3c-0.4,0-0.8-0.1-1.1-0.5v0.5h-0.6v-5.7h0.6v2.2c0.3-0.4,0.7-0.5,1.1-0.5
		c0.4,0,0.8,0.1,1,0.3c0.4,0.4,0.5,1.1,0.5,1.7S429.7,222.6,429.3,223z M428.2,219.8c-0.9,0-1,0.7-1,1.5c0,0.8,0.1,1.5,1,1.5
		s1-0.7,1-1.5C429.2,220.5,429.1,219.8,428.2,219.8z"/>
	<path d="M432,223.3c-0.7,0-1-0.5-1-1.1v-4.7h0.6v4.6c0,0.4,0.1,0.6,0.5,0.6h0.3v0.5H432z"/>
	<path d="M433.8,221.5c0,0.9,0.4,1.4,1.2,1.4c0.5,0,0.7-0.1,1-0.5l0.4,0.3c-0.4,0.4-0.8,0.6-1.4,0.6c-1,0-1.7-0.6-1.7-2
		c0-1.3,0.6-2,1.6-2c1,0,1.6,0.7,1.6,1.9v0.3H433.8z M435.7,220.4c-0.2-0.4-0.5-0.6-0.9-0.6s-0.8,0.2-0.9,0.6
		c-0.1,0.2-0.1,0.3-0.1,0.7h2.1C435.8,220.7,435.8,220.6,435.7,220.4z"/>
</g>
<polyline class="st4" points="96.7,508.2 96.7,429 360.1,429 359.8,257.1 378.3,257 "/>
<polyline class="st5" points="81.2,508.2 81.2,314.9 214.7,314.9 214.7,342.9 "/>
<polyline class="st6" points="86.3,508.2 86.3,324.9 111.8,324.9 111.8,342.8 "/>
<polyline class="st7" points="91.7,508.2 91.7,423.1 354.6,423.1 354.6,183.3 397.1,183.1 397.1,172.2 "/>
<polyline class="st8" points="76.7,508.2 76.7,306.2 240,306.2 240,354.8 227,354.8 "/>
<polyline class="st9" points="71.7,508.2 71.7,385.8 185.4,385.8 185.4,354.7 202.4,354.7 "/>
<polyline class="st10" points="66.1,508.2 66.1,354.5 99.4,354.5 "/>
<polyline class="st11" points="62.7,508.2 62.7,378.9 131,378.9 131,354.5 123.6,354.5 "/>
<polyline class="st12" points="101.3,508.2 101.3,435.7 257.5,435.7 257.5,287.2 66.1,287.2 66.1,184 124.8,184 "/>
<polyline class="st13" points="105.3,508.2 105.3,439.7 260.9,439.7 260.9,283.9 69.4,283.9 69.4,186.8 124.8,186.8 "/>
<polyline class="st14" points="391.8,245 391.8,239.5 408,239.5 408,148.9 375.7,148.9 375.7,169.9 385.5,169.9 "/>
<g id="Spindle_Control_00000042727029197952717820000016629713086633997246_">
	<path class="st0" d="M124.8,187.7h7.9v-4.9h-7.9V187.7z"/>
	<path class="st0" d="M124.8,206.4h10.3v-13.3h-10.3V206.4z"/>
	<path class="st0" d="M270.6,183.3h3v-6.9h-3V183.3z"/>
	<path class="st0" d="M268.7,194.6h4.9v-9.4h-4.9V194.6z"/>
	<path class="st0" d="M164.2,200h15.3v-11.8h-15.3V200z"/>
	<path class="st0" d="M265.2,204h10.8v-5.4h-10.8V204z"/>
	<path class="st0" d="M124.8,177.9h4.4v-4.9h-4.4V177.9z"/>
	<path class="st0" d="M273.6,198.6V170H124.8v37.5h148.8V204"/>
</g>
<g>
	<path d="M130.5,482.5v-4.4l-1.6,3.5h-0.5l-1.6-3.5v4.4h-0.6v-5.7h0.6l1.9,4.1l1.8-4.1h0.6v5.7H130.5z"/>
	<path d="M135.2,482.5v-0.4c-0.3,0.3-0.7,0.5-1.1,0.5c-0.4,0-0.8-0.1-1-0.4c-0.3-0.3-0.4-0.7-0.4-1.1v-2.5h0.6v2.4
		c0,0.7,0.4,1.1,1,1.1s1-0.4,1-1.1v-2.4h0.6v4H135.2z"/>
	<path d="M138.2,482.5c-0.7,0-1-0.5-1-1.1v-4.7h0.6v4.6c0,0.4,0.1,0.6,0.5,0.6h0.3v0.5H138.2z"/>
	<path d="M140.7,482.5c-0.7,0-1-0.5-1-1.1V479h-0.5v-0.4h0.5v-1.2h0.6v1.2h0.8v0.4h-0.8v2.4c0,0.4,0.2,0.6,0.5,0.6h0.3v0.5H140.7z"
		/>
	<path d="M142.3,477.4v-0.7h0.7v0.7H142.3z M142.3,482.5v-4h0.6v4H142.3z"/>
	<path d="M145.9,482.6c-1,0-1.8-0.7-1.8-2c0-1.4,0.8-2,1.8-2c0.5,0,0.9,0.1,1.3,0.6l-0.4,0.4c-0.3-0.3-0.5-0.4-0.9-0.4
		c-0.4,0-0.7,0.2-0.9,0.5c-0.2,0.3-0.3,0.6-0.3,1.1c0,0.5,0.1,0.8,0.3,1.1c0.2,0.3,0.5,0.5,0.9,0.5c0.4,0,0.6-0.1,0.9-0.5l0.4,0.4
		C146.8,482.4,146.4,482.6,145.9,482.6z"/>
	<path d="M150.8,482.1c-0.3,0.3-0.7,0.5-1.1,0.5s-0.9-0.2-1.1-0.5c-0.4-0.4-0.5-1-0.5-1.6c0-0.6,0.1-1.2,0.5-1.6
		c0.3-0.3,0.7-0.5,1.1-0.5s0.9,0.2,1.1,0.5c0.4,0.4,0.5,1,0.5,1.6C151.3,481.2,151.2,481.7,150.8,482.1z M150.4,479.3
		c-0.2-0.2-0.4-0.3-0.7-0.3s-0.5,0.1-0.7,0.3c-0.3,0.3-0.3,0.8-0.3,1.2s0,0.9,0.3,1.2c0.2,0.2,0.4,0.3,0.7,0.3s0.5-0.1,0.7-0.3
		c0.3-0.3,0.3-0.8,0.3-1.2S150.7,479.6,150.4,479.3z"/>
	<path d="M154.8,479.3c-0.2-0.2-0.4-0.3-0.7-0.3c-0.6,0-0.9,0.5-0.9,1.1v2.4h-0.6v-4h0.6v0.5c0.2-0.3,0.7-0.5,1.1-0.5
		c0.4,0,0.7,0.1,0.9,0.4L154.8,479.3z"/>
	<path d="M156.3,480.7c0,0.9,0.4,1.4,1.2,1.4c0.5,0,0.7-0.1,1-0.5l0.4,0.3c-0.4,0.4-0.8,0.6-1.4,0.6c-1,0-1.7-0.6-1.7-2
		c0-1.3,0.6-2,1.6-2c1,0,1.6,0.7,1.6,1.9v0.3H156.3z M158.3,479.6c-0.2-0.4-0.5-0.6-0.9-0.6s-0.8,0.2-0.9,0.6
		c-0.1,0.2-0.1,0.3-0.1,0.7h2.1C158.4,479.9,158.4,479.8,158.3,479.6z"/>
	<path d="M164.1,482.6c-0.6,0-1.1-0.2-1.5-0.6c-0.5-0.5-0.5-1.1-0.5-2.3c0-1.2,0-1.8,0.5-2.3c0.4-0.4,0.9-0.6,1.5-0.6
		c1,0,1.8,0.6,2,1.7h-0.6c-0.2-0.7-0.6-1.2-1.4-1.2c-0.4,0-0.7,0.1-1,0.4c-0.4,0.4-0.4,0.8-0.4,2c0,1.2,0,1.6,0.4,2
		c0.2,0.3,0.6,0.4,1,0.4c0.7,0,1.2-0.5,1.4-1.2h0.6C165.9,481.9,165.1,482.6,164.1,482.6z"/>
	<path d="M169.6,482.5v-0.4c-0.3,0.3-0.6,0.4-1.1,0.4c-0.5,0-0.9-0.1-1.1-0.4c-0.2-0.2-0.3-0.5-0.3-0.8c0-0.7,0.5-1.1,1.4-1.1h1.2
		v-0.4c0-0.6-0.3-0.9-1-0.9c-0.5,0-0.8,0.1-1,0.5l-0.4-0.4c0.4-0.5,0.8-0.6,1.4-0.6c1.1,0,1.6,0.5,1.6,1.3v2.7H169.6z M169.6,480.7
		h-1.1c-0.6,0-0.9,0.2-0.9,0.7c0,0.5,0.3,0.7,0.9,0.7c0.3,0,0.6,0,0.9-0.3c0.1-0.1,0.2-0.4,0.2-0.7V480.7z"/>
	<path d="M174.2,482.2c-0.2,0.2-0.6,0.3-1,0.3c-0.4,0-0.8-0.1-1.1-0.5v0.5h-0.6v-5.7h0.6v2.2c0.3-0.4,0.7-0.5,1.1-0.5
		c0.4,0,0.8,0.1,1,0.3c0.4,0.4,0.5,1.1,0.5,1.7S174.6,481.8,174.2,482.2z M173.1,479c-0.9,0-1,0.7-1,1.5c0,0.8,0.1,1.5,1,1.5
		s1-0.7,1-1.5C174.1,479.8,174,479,173.1,479z"/>
	<path d="M176.9,482.5c-0.7,0-1-0.5-1-1.1v-4.7h0.6v4.6c0,0.4,0.1,0.6,0.5,0.6h0.3v0.5H176.9z"/>
	<path d="M178.7,480.7c0,0.9,0.4,1.4,1.2,1.4c0.5,0,0.7-0.1,1-0.5l0.4,0.3c-0.4,0.4-0.8,0.6-1.4,0.6c-1,0-1.7-0.6-1.7-2
		c0-1.3,0.6-2,1.6-2c1,0,1.6,0.7,1.6,1.9v0.3H178.7z M180.7,479.6c-0.2-0.4-0.5-0.6-0.9-0.6s-0.8,0.2-0.9,0.6
		c-0.1,0.2-0.1,0.3-0.1,0.7h2.1C180.8,479.9,180.8,479.8,180.7,479.6z"/>
</g>
<g>
	<path d="M262.3,501c-0.3,0.3-0.9,0.5-1.4,0.5h-2v-5.7h2c0.6,0,1.1,0.2,1.4,0.5c0.6,0.6,0.6,1.5,0.6,2.3
		C262.9,499.4,262.9,500.4,262.3,501z M261.9,496.7c-0.3-0.3-0.7-0.4-1.1-0.4h-1.2v4.6h1.2c0.4,0,0.8-0.1,1.1-0.4
		c0.4-0.4,0.4-1.3,0.4-2C262.3,497.9,262.3,497.1,261.9,496.7z"/>
	<path d="M264.2,496.4v-0.7h0.7v0.7H264.2z M264.2,501.5v-4h0.6v4H264.2z"/>
	<path d="M267.5,501.5c-0.7,0-1.2-0.2-1.6-0.6l0.4-0.4c0.3,0.3,0.7,0.5,1.2,0.5c0.7,0,1.1-0.2,1.1-0.7c0-0.3-0.2-0.5-0.7-0.6
		l-0.7-0.1c-0.8-0.1-1.2-0.4-1.2-1.1c0-0.7,0.6-1.2,1.5-1.2c0.6,0,1.1,0.1,1.4,0.4l-0.4,0.4c-0.3-0.2-0.6-0.3-1.1-0.3
		c-0.6,0-0.9,0.2-0.9,0.7c0,0.3,0.2,0.5,0.7,0.6l0.6,0.1c0.7,0.1,1.2,0.3,1.2,1.1C269.1,501.1,268.5,501.5,267.5,501.5z"/>
	<path d="M272.9,501.2c-0.2,0.2-0.6,0.3-1,0.3c-0.4,0-0.8-0.1-1.1-0.5v2.2h-0.6v-5.7h0.6v0.5c0.3-0.4,0.7-0.5,1.1-0.5
		c0.4,0,0.8,0.1,1,0.3c0.4,0.4,0.5,1.1,0.5,1.7S273.3,500.8,272.9,501.2z M271.9,498c-0.9,0-1,0.7-1,1.5c0,0.8,0.1,1.5,1,1.5
		s1-0.7,1-1.5C272.8,498.7,272.7,498,271.9,498z"/>
	<path d="M275.6,501.5c-0.7,0-1-0.5-1-1.1v-4.7h0.6v4.6c0,0.4,0.1,0.6,0.5,0.6h0.3v0.5H275.6z"/>
	<path d="M279.3,501.5v-0.4c-0.3,0.3-0.6,0.4-1.1,0.4c-0.5,0-0.9-0.1-1.1-0.4c-0.2-0.2-0.3-0.5-0.3-0.8c0-0.7,0.5-1.1,1.4-1.1h1.2
		v-0.4c0-0.6-0.3-0.9-1-0.9c-0.5,0-0.8,0.1-1,0.5l-0.4-0.4c0.4-0.5,0.8-0.6,1.4-0.6c1.1,0,1.6,0.5,1.6,1.3v2.7H279.3z M279.3,499.7
		h-1.1c-0.6,0-0.9,0.2-0.9,0.7c0,0.5,0.3,0.7,0.9,0.7c0.3,0,0.6,0,0.9-0.3c0.1-0.1,0.2-0.4,0.2-0.7V499.7z"/>
	<path d="M282.3,502.4c-0.1,0.2-0.2,0.4-0.3,0.5c-0.2,0.2-0.5,0.3-0.8,0.3H281v-0.5h0.2c0.4,0,0.5-0.1,0.7-0.5l0.3-0.8l-1.4-3.9h0.6
		l1.1,3.2l1.1-3.2h0.6L282.3,502.4z"/>
	<path d="M288.9,501.5c-1.2,0-2-0.8-2-1.9v-3.8h0.6v3.8c0,0.9,0.5,1.4,1.4,1.4s1.4-0.6,1.4-1.4v-3.8h0.6v3.8
		C290.9,500.7,290.1,501.5,288.9,501.5z"/>
	<path d="M294,501.5c-0.9,0-1.4-0.2-2-0.8l0.4-0.4c0.5,0.5,0.9,0.6,1.6,0.6c0.8,0,1.4-0.4,1.4-1.1c0-0.3-0.1-0.6-0.3-0.7
		c-0.2-0.2-0.3-0.2-0.7-0.3l-0.7-0.1c-0.5-0.1-0.8-0.2-1.1-0.4c-0.3-0.3-0.4-0.6-0.4-1.1c0-1,0.7-1.6,1.8-1.6c0.7,0,1.2,0.2,1.7,0.6
		l-0.4,0.4c-0.4-0.3-0.7-0.5-1.3-0.5c-0.8,0-1.2,0.4-1.2,1.1c0,0.3,0.1,0.5,0.3,0.7c0.2,0.2,0.5,0.3,0.8,0.3l0.6,0.1
		c0.5,0.1,0.8,0.2,1,0.4c0.3,0.3,0.5,0.7,0.5,1.1C295.9,500.9,295.1,501.5,294,501.5z"/>
	<path d="M299.4,501.5h-2.2v-5.7h2.2c1,0,1.7,0.6,1.7,1.5c0,0.6-0.4,1.1-0.8,1.3c0.5,0.2,0.9,0.7,0.9,1.4
		C301.2,500.9,300.5,501.5,299.4,501.5z M299.3,496.3h-1.5v2h1.5c0.6,0,1.1-0.3,1.1-1S300,496.3,299.3,496.3z M299.4,498.8h-1.6v2.1
		h1.6c0.7,0,1.2-0.4,1.2-1.1C300.5,499.2,300.1,498.8,299.4,498.8z"/>
	<path d="M260.4,506v5.2h-0.6V506h-1.7v-0.5h3.9v0.5H260.4z"/>
	<path d="M265.6,510.7c-0.3,0.3-0.7,0.5-1.1,0.5s-0.9-0.2-1.1-0.5c-0.4-0.4-0.5-1-0.5-1.6c0-0.6,0.1-1.2,0.5-1.6
		c0.3-0.3,0.7-0.5,1.1-0.5s0.9,0.2,1.1,0.5c0.4,0.4,0.5,1,0.5,1.6C266.1,509.8,266,510.3,265.6,510.7z M265.2,507.9
		c-0.2-0.2-0.4-0.3-0.7-0.3s-0.5,0.1-0.7,0.3c-0.3,0.3-0.3,0.8-0.3,1.2s0,0.9,0.3,1.2c0.2,0.2,0.4,0.3,0.7,0.3s0.5-0.1,0.7-0.3
		c0.3-0.3,0.3-0.8,0.3-1.2S265.5,508.2,265.2,507.9z"/>
	<path d="M269.8,511.1v-0.4c-0.3,0.3-0.7,0.5-1.1,0.5c-0.4,0-0.8-0.1-1-0.4c-0.3-0.3-0.4-0.7-0.4-1.1v-2.5h0.6v2.4
		c0,0.7,0.4,1.1,1,1.1s1-0.4,1-1.1v-2.4h0.6v4H269.8z"/>
	<path d="M273.4,511.2c-1,0-1.8-0.7-1.8-2c0-1.4,0.8-2,1.8-2c0.5,0,0.9,0.1,1.3,0.6l-0.4,0.4c-0.3-0.3-0.5-0.4-0.9-0.4
		c-0.4,0-0.7,0.2-0.9,0.5c-0.2,0.3-0.3,0.6-0.3,1.1c0,0.5,0.1,0.8,0.3,1.1c0.2,0.3,0.5,0.5,0.9,0.5c0.4,0,0.6-0.1,0.9-0.5l0.4,0.4
		C274.3,511,273.9,511.2,273.4,511.2z"/>
	<path d="M278.3,511.1v-2.4c0-0.7-0.4-1-1-1c-0.6,0-1,0.4-1,1v2.4h-0.6v-5.7h0.6v2.2c0.3-0.3,0.7-0.5,1.1-0.5c0.9,0,1.4,0.6,1.4,1.5
		v2.5H278.3z"/>
	<path d="M284.2,511.2c-0.6,0-1.1-0.2-1.5-0.6c-0.5-0.5-0.5-1.1-0.5-2.3c0-1.2,0-1.8,0.5-2.3c0.4-0.4,0.9-0.6,1.5-0.6
		c1,0,1.8,0.6,2,1.7h-0.6c-0.2-0.7-0.6-1.2-1.4-1.2c-0.4,0-0.7,0.1-1,0.4c-0.4,0.4-0.4,0.8-0.4,2c0,1.2,0,1.6,0.4,2
		c0.2,0.3,0.6,0.4,1,0.4c0.7,0,1.2-0.5,1.4-1.2h0.6C286,510.6,285.2,511.2,284.2,511.2z"/>
	<path d="M289.7,511.1v-0.4c-0.3,0.3-0.6,0.4-1.1,0.4c-0.5,0-0.9-0.1-1.1-0.4c-0.2-0.2-0.3-0.5-0.3-0.8c0-0.7,0.5-1.1,1.4-1.1h1.2
		v-0.4c0-0.6-0.3-0.9-1-0.9c-0.5,0-0.8,0.1-1,0.5l-0.4-0.4c0.4-0.5,0.8-0.6,1.4-0.6c1.1,0,1.6,0.5,1.6,1.3v2.7H289.7z M289.7,509.3
		h-1.1c-0.6,0-0.9,0.2-0.9,0.7c0,0.5,0.3,0.7,0.9,0.7c0.3,0,0.6,0,0.9-0.3c0.1-0.1,0.2-0.4,0.2-0.7V509.3z"/>
	<path d="M294.3,510.8c-0.2,0.2-0.6,0.3-1,0.3c-0.4,0-0.8-0.1-1.1-0.5v0.5h-0.6v-5.7h0.6v2.2c0.3-0.4,0.7-0.5,1.1-0.5
		c0.4,0,0.8,0.1,1,0.3c0.4,0.4,0.5,1.1,0.5,1.7S294.7,510.4,294.3,510.8z M293.2,507.7c-0.9,0-1,0.7-1,1.5c0,0.8,0.1,1.5,1,1.5
		s1-0.7,1-1.5C294.2,508.4,294.1,507.7,293.2,507.7z"/>
	<path d="M297,511.1c-0.7,0-1-0.5-1-1.1v-4.7h0.6v4.6c0,0.4,0.1,0.6,0.5,0.6h0.3v0.5H297z"/>
	<path d="M298.8,509.3c0,0.9,0.4,1.4,1.2,1.4c0.5,0,0.7-0.1,1-0.5l0.4,0.3c-0.4,0.4-0.8,0.6-1.4,0.6c-1,0-1.7-0.6-1.7-2
		c0-1.3,0.6-2,1.6-2c1,0,1.6,0.7,1.6,1.9v0.3H298.8z M300.8,508.2c-0.2-0.4-0.5-0.6-0.9-0.6s-0.8,0.2-0.9,0.6
		c-0.1,0.2-0.1,0.3-0.1,0.7h2.1C300.9,508.6,300.9,508.4,300.8,508.2z"/>
</g>
<g>
	<path d="M309.3,479.7c-0.3,0.3-0.9,0.5-1.4,0.5h-2v-5.7h2c0.6,0,1.1,0.2,1.4,0.5c0.6,0.6,0.6,1.5,0.6,2.3
		C309.8,478.1,309.9,479.1,309.3,479.7z M308.8,475.4c-0.3-0.3-0.7-0.4-1.1-0.4h-1.2v4.6h1.2c0.4,0,0.8-0.1,1.1-0.4
		c0.4-0.4,0.4-1.3,0.4-2C309.2,476.6,309.2,475.8,308.8,475.4z"/>
	<path d="M311.1,475.1v-0.7h0.7v0.7H311.1z M311.2,480.2v-4h0.6v4H311.2z"/>
	<path d="M314.4,480.2c-0.7,0-1.2-0.2-1.6-0.6l0.4-0.4c0.3,0.3,0.7,0.5,1.2,0.5c0.7,0,1.1-0.2,1.1-0.7c0-0.3-0.2-0.5-0.7-0.6
		l-0.7-0.1c-0.8-0.1-1.2-0.4-1.2-1.1c0-0.7,0.6-1.2,1.5-1.2c0.6,0,1.1,0.1,1.4,0.4l-0.4,0.4c-0.3-0.2-0.6-0.3-1.1-0.3
		c-0.6,0-0.9,0.2-0.9,0.7c0,0.3,0.2,0.5,0.7,0.6l0.6,0.1c0.7,0.1,1.2,0.3,1.2,1.1C316.1,479.8,315.4,480.2,314.4,480.2z"/>
	<path d="M319.9,479.9c-0.2,0.2-0.6,0.3-1,0.3c-0.4,0-0.8-0.1-1.1-0.5v2.2h-0.6v-5.7h0.6v0.5c0.3-0.4,0.7-0.5,1.1-0.5
		c0.4,0,0.8,0.1,1,0.3c0.4,0.4,0.5,1.1,0.5,1.7S320.3,479.5,319.9,479.9z M318.8,476.7c-0.9,0-1,0.7-1,1.5c0,0.8,0.1,1.5,1,1.5
		s1-0.7,1-1.5C319.8,477.4,319.6,476.7,318.8,476.7z"/>
	<path d="M322.6,480.2c-0.7,0-1-0.5-1-1.1v-4.7h0.6v4.6c0,0.4,0.1,0.6,0.5,0.6h0.3v0.5H322.6z"/>
	<path d="M326.2,480.2v-0.4c-0.3,0.3-0.6,0.4-1.1,0.4c-0.5,0-0.9-0.1-1.1-0.4c-0.2-0.2-0.3-0.5-0.3-0.8c0-0.7,0.5-1.1,1.4-1.1h1.2
		v-0.4c0-0.6-0.3-0.9-1-0.9c-0.5,0-0.8,0.1-1,0.5l-0.4-0.4c0.4-0.5,0.8-0.6,1.4-0.6c1.1,0,1.6,0.5,1.6,1.3v2.7H326.2z M326.2,478.4
		h-1.1c-0.6,0-0.9,0.2-0.9,0.7c0,0.5,0.3,0.7,0.9,0.7c0.3,0,0.6,0,0.9-0.3c0.1-0.1,0.2-0.4,0.2-0.7V478.4z"/>
	<path d="M329.2,481.2c-0.1,0.2-0.2,0.4-0.3,0.5c-0.2,0.2-0.5,0.3-0.8,0.3h-0.2v-0.5h0.2c0.4,0,0.5-0.1,0.7-0.5l0.3-0.8l-1.4-3.9
		h0.6l1.1,3.2l1.1-3.2h0.6L329.2,481.2z"/>
	<path d="M302.1,489.9v-2.6h-2.7v2.6h-0.6v-5.7h0.6v2.6h2.7v-2.6h0.6v5.7H302.1z"/>
	<path d="M307.8,489.3c-0.3,0.3-0.9,0.5-1.4,0.5h-2v-5.7h2c0.6,0,1.1,0.2,1.4,0.5c0.6,0.6,0.6,1.5,0.6,2.3
		C308.3,487.7,308.4,488.7,307.8,489.3z M307.3,485.1c-0.3-0.3-0.7-0.4-1.1-0.4H305v4.6h1.2c0.4,0,0.8-0.1,1.1-0.4
		c0.4-0.4,0.4-1.3,0.4-2C307.7,486.2,307.7,485.5,307.3,485.1z"/>
	<path d="M314.1,489.9v-4.4l-1.6,3.5H312l-1.6-3.5v4.4h-0.6v-5.7h0.6l1.9,4.1l1.8-4.1h0.6v5.7H314.1z"/>
	<path d="M316.3,489.9v-5.7h0.6v5.7H316.3z"/>
	<path d="M322.4,489.9c-0.6,0-1.1-0.2-1.5-0.6c-0.5-0.5-0.5-1.1-0.5-2.3c0-1.2,0-1.8,0.5-2.3c0.4-0.4,0.9-0.6,1.5-0.6
		c1,0,1.8,0.6,2,1.7h-0.6c-0.2-0.7-0.6-1.2-1.4-1.2c-0.4,0-0.7,0.1-1,0.4c-0.4,0.4-0.4,0.8-0.4,2c0,1.2,0,1.6,0.4,2
		c0.2,0.3,0.6,0.4,1,0.4c0.7,0,1.2-0.5,1.4-1.2h0.6C324.2,489.3,323.4,489.9,322.4,489.9z"/>
	<path d="M327.9,489.9v-0.4c-0.3,0.3-0.6,0.4-1.1,0.4c-0.5,0-0.9-0.1-1.1-0.4c-0.2-0.2-0.3-0.5-0.3-0.8c0-0.7,0.5-1.1,1.4-1.1h1.2
		v-0.4c0-0.6-0.3-0.9-1-0.9c-0.5,0-0.8,0.1-1,0.5l-0.4-0.4c0.4-0.5,0.8-0.6,1.4-0.6c1.1,0,1.6,0.5,1.6,1.3v2.7H327.9z M327.9,488
		h-1.1c-0.6,0-0.9,0.2-0.9,0.7c0,0.5,0.3,0.7,0.9,0.7c0.3,0,0.6,0,0.9-0.3c0.1-0.1,0.2-0.4,0.2-0.7V488z"/>
	<path d="M332.5,489.6c-0.2,0.2-0.6,0.3-1,0.3c-0.4,0-0.8-0.1-1.1-0.5v0.5h-0.6v-5.7h0.6v2.2c0.3-0.4,0.7-0.5,1.1-0.5
		c0.4,0,0.8,0.1,1,0.3c0.4,0.4,0.5,1.1,0.5,1.7S332.9,489.2,332.5,489.6z M331.4,486.4c-0.9,0-1,0.7-1,1.5c0,0.8,0.1,1.5,1,1.5
		s1-0.7,1-1.5C332.4,487.1,332.3,486.4,331.4,486.4z"/>
	<path d="M335.2,489.9c-0.7,0-1-0.5-1-1.1v-4.7h0.6v4.6c0,0.4,0.1,0.6,0.5,0.6h0.3v0.5H335.2z"/>
	<path d="M337,488c0,0.9,0.4,1.4,1.2,1.4c0.5,0,0.7-0.1,1-0.5l0.4,0.3c-0.4,0.4-0.8,0.6-1.4,0.6c-1,0-1.7-0.6-1.7-2
		c0-1.3,0.6-2,1.6-2c1,0,1.6,0.7,1.6,1.9v0.3H337z M339,486.9c-0.2-0.4-0.5-0.6-0.9-0.6s-0.8,0.2-0.9,0.6c-0.1,0.2-0.1,0.3-0.1,0.7
		h2.1C339.1,487.3,339.1,487.2,339,486.9z"/>
</g>
<g>
	<path d="M364.5,505.1v2.1h2.5v0.5h-2.5v2.5h-0.6v-5.7h3.6v0.5H364.5z"/>
	<path d="M370.6,507.1c-0.2-0.2-0.4-0.3-0.7-0.3c-0.6,0-0.9,0.5-0.9,1.1v2.4h-0.6v-4h0.6v0.5c0.2-0.3,0.7-0.5,1.1-0.5
		c0.4,0,0.7,0.1,0.9,0.4L370.6,507.1z"/>
	<path d="M374.4,509.9c-0.3,0.3-0.7,0.5-1.1,0.5s-0.9-0.2-1.1-0.5c-0.4-0.4-0.5-1-0.5-1.6c0-0.6,0.1-1.2,0.5-1.6
		c0.3-0.3,0.7-0.5,1.1-0.5s0.9,0.2,1.1,0.5c0.4,0.4,0.5,1,0.5,1.6C374.8,508.9,374.8,509.5,374.4,509.9z M373.9,507.1
		c-0.2-0.2-0.4-0.3-0.7-0.3s-0.5,0.1-0.7,0.3c-0.3,0.3-0.3,0.8-0.3,1.2s0,0.9,0.3,1.2c0.2,0.2,0.4,0.3,0.7,0.3s0.5-0.1,0.7-0.3
		c0.3-0.3,0.3-0.8,0.3-1.2S374.2,507.4,373.9,507.1z"/>
	<path d="M378.6,510.3v-2.4c0-0.7-0.4-1.1-1-1.1c-0.6,0-1,0.4-1,1.1v2.4h-0.6v-4h0.6v0.4c0.3-0.3,0.7-0.5,1.1-0.5
		c0.4,0,0.8,0.1,1,0.4c0.3,0.3,0.4,0.6,0.4,1.1v2.5H378.6z"/>
	<path d="M381.7,510.3c-0.7,0-1-0.5-1-1.1v-2.4h-0.5v-0.4h0.5v-1.2h0.6v1.2h0.8v0.4h-0.8v2.4c0,0.4,0.2,0.6,0.5,0.6h0.3v0.5H381.7z"
		/>
	<path d="M387.3,510.3c-1.2,0-2-0.8-2-1.9v-3.8h0.6v3.8c0,0.9,0.5,1.4,1.4,1.4s1.4-0.6,1.4-1.4v-3.8h0.6v3.8
		C389.3,509.5,388.5,510.3,387.3,510.3z"/>
	<path d="M392.3,510.3c-0.9,0-1.4-0.2-2-0.8l0.4-0.4c0.5,0.5,0.9,0.6,1.6,0.6c0.8,0,1.4-0.4,1.4-1.1c0-0.3-0.1-0.6-0.3-0.7
		c-0.2-0.2-0.3-0.2-0.7-0.3l-0.7-0.1c-0.5-0.1-0.8-0.2-1.1-0.4c-0.3-0.3-0.4-0.6-0.4-1.1c0-1,0.7-1.6,1.8-1.6c0.7,0,1.2,0.2,1.7,0.6
		l-0.4,0.4c-0.4-0.3-0.7-0.5-1.3-0.5c-0.8,0-1.2,0.4-1.2,1.1c0,0.3,0.1,0.5,0.3,0.7c0.2,0.2,0.5,0.3,0.8,0.3l0.6,0.1
		c0.5,0.1,0.8,0.2,1,0.4c0.3,0.3,0.5,0.7,0.5,1.1C394.3,509.7,393.5,510.3,392.3,510.3z"/>
	<path d="M397.8,510.3h-2.2v-5.7h2.2c1,0,1.7,0.6,1.7,1.5c0,0.6-0.4,1.1-0.8,1.3c0.5,0.2,0.9,0.7,0.9,1.4
		C399.5,509.7,398.8,510.3,397.8,510.3z M397.7,505.1h-1.5v2h1.5c0.6,0,1.1-0.3,1.1-1S398.4,505.1,397.7,505.1z M397.8,507.6h-1.6
		v2.1h1.6c0.7,0,1.2-0.4,1.2-1.1C398.9,508,398.5,507.6,397.8,507.6z"/>
	<path d="M404.8,510.3c-0.6,0-1.1-0.2-1.5-0.6c-0.5-0.5-0.5-1.1-0.5-2.3c0-1.2,0-1.8,0.5-2.3c0.4-0.4,0.9-0.6,1.5-0.6
		c1,0,1.8,0.6,2,1.7h-0.6c-0.2-0.7-0.6-1.2-1.4-1.2c-0.4,0-0.7,0.1-1,0.4c-0.4,0.4-0.4,0.8-0.4,2c0,1.2,0,1.6,0.4,2
		c0.2,0.3,0.6,0.4,1,0.4c0.7,0,1.2-0.5,1.4-1.2h0.6C406.6,509.7,405.8,510.3,404.8,510.3z"/>
	<path d="M410.3,510.3v-0.4c-0.3,0.3-0.6,0.4-1.1,0.4c-0.5,0-0.9-0.1-1.1-0.4c-0.2-0.2-0.3-0.5-0.3-0.8c0-0.7,0.5-1.1,1.4-1.1h1.2
		v-0.4c0-0.6-0.3-0.9-1-0.9c-0.5,0-0.8,0.1-1,0.5l-0.4-0.4c0.4-0.5,0.8-0.6,1.4-0.6c1.1,0,1.6,0.5,1.6,1.3v2.7H410.3z M410.3,508.4
		h-1.1c-0.6,0-0.9,0.2-0.9,0.7c0,0.5,0.3,0.7,0.9,0.7c0.3,0,0.6,0,0.9-0.3c0.1-0.1,0.2-0.4,0.2-0.7V508.4z"/>
	<path d="M414.9,510c-0.2,0.2-0.6,0.3-1,0.3c-0.4,0-0.8-0.1-1.1-0.5v0.5h-0.6v-5.7h0.6v2.2c0.3-0.4,0.7-0.5,1.1-0.5
		c0.4,0,0.8,0.1,1,0.3c0.4,0.4,0.5,1.1,0.5,1.7S415.3,509.6,414.9,510z M413.8,506.8c-0.9,0-1,0.7-1,1.5c0,0.8,0.1,1.5,1,1.5
		s1-0.7,1-1.5C414.8,507.5,414.7,506.8,413.8,506.8z"/>
	<path d="M417.6,510.3c-0.7,0-1-0.5-1-1.1v-4.7h0.6v4.6c0,0.4,0.1,0.6,0.5,0.6h0.3v0.5H417.6z"/>
	<path d="M419.4,508.4c0,0.9,0.4,1.4,1.2,1.4c0.5,0,0.7-0.1,1-0.5l0.4,0.3c-0.4,0.4-0.8,0.6-1.4,0.6c-1,0-1.7-0.6-1.7-2
		c0-1.3,0.6-2,1.6-2c1,0,1.6,0.7,1.6,1.9v0.3H419.4z M421.4,507.3c-0.2-0.4-0.5-0.6-0.9-0.6s-0.8,0.2-0.9,0.6
		c-0.1,0.2-0.1,0.3-0.1,0.7h2.1C421.5,507.7,421.4,507.6,421.4,507.3z"/>
</g>
<g>
	<path d="M197.5,143.6c-0.3,0.3-0.9,0.5-1.4,0.5h-2v-5.7h2c0.6,0,1.1,0.2,1.4,0.5c0.6,0.6,0.6,1.5,0.6,2.3
		C198,141.9,198.1,143,197.5,143.6z M197.1,139.3c-0.3-0.3-0.7-0.4-1.1-0.4h-1.2v4.6h1.2c0.4,0,0.8-0.1,1.1-0.4
		c0.4-0.4,0.4-1.3,0.4-2C197.4,140.5,197.5,139.7,197.1,139.3z"/>
	<path d="M199.4,139v-0.7h0.7v0.7H199.4z M199.4,144.1v-4h0.6v4H199.4z"/>
	<path d="M202.7,144.1c-0.7,0-1.2-0.2-1.6-0.6l0.4-0.4c0.3,0.3,0.7,0.5,1.2,0.5c0.7,0,1.1-0.2,1.1-0.7c0-0.3-0.2-0.5-0.7-0.6
		l-0.7-0.1c-0.8-0.1-1.2-0.4-1.2-1.1c0-0.7,0.6-1.2,1.5-1.2c0.6,0,1.1,0.1,1.4,0.4l-0.4,0.4c-0.3-0.2-0.6-0.3-1.1-0.3
		c-0.6,0-0.9,0.2-0.9,0.7c0,0.3,0.2,0.5,0.7,0.6l0.6,0.1c0.7,0.1,1.2,0.3,1.2,1.1C204.3,143.7,203.6,144.1,202.7,144.1z"/>
	<path d="M208.1,143.8c-0.2,0.2-0.6,0.3-1,0.3c-0.4,0-0.8-0.1-1.1-0.5v2.2h-0.6v-5.7h0.6v0.5c0.3-0.4,0.7-0.5,1.1-0.5
		c0.4,0,0.8,0.1,1,0.3c0.4,0.4,0.5,1.1,0.5,1.7S208.5,143.4,208.1,143.8z M207,140.6c-0.9,0-1,0.7-1,1.5c0,0.8,0.1,1.5,1,1.5
		s1-0.7,1-1.5C208,141.3,207.9,140.6,207,140.6z"/>
	<path d="M210.8,144.1c-0.7,0-1-0.5-1-1.1v-4.7h0.6v4.6c0,0.4,0.1,0.6,0.5,0.6h0.3v0.5H210.8z"/>
	<path d="M214.4,144.1v-0.4c-0.3,0.3-0.6,0.4-1.1,0.4c-0.5,0-0.9-0.1-1.1-0.4c-0.2-0.2-0.3-0.5-0.3-0.8c0-0.7,0.5-1.1,1.4-1.1h1.2
		v-0.4c0-0.6-0.3-0.9-1-0.9c-0.5,0-0.8,0.1-1,0.5l-0.4-0.4c0.4-0.5,0.8-0.6,1.4-0.6c1.1,0,1.6,0.5,1.6,1.3v2.7H214.4z M214.4,142.3
		h-1.1c-0.6,0-0.9,0.2-0.9,0.7c0,0.5,0.3,0.7,0.9,0.7c0.3,0,0.6,0,0.9-0.3c0.1-0.1,0.2-0.4,0.2-0.7V142.3z"/>
	<path d="M217.4,145c-0.1,0.2-0.2,0.4-0.3,0.5c-0.2,0.2-0.5,0.3-0.8,0.3h-0.2v-0.5h0.2c0.4,0,0.5-0.1,0.7-0.5l0.3-0.8l-1.4-3.9h0.6
		l1.1,3.2l1.1-3.2h0.6L217.4,145z"/>
</g>
<line class="st14" x1="120.1" y1="480.8" x2="55.7" y2="480.8"/>
<line class="st14" x1="413.5" y1="201.3" x2="401.5" y2="201.3"/>
<polyline class="st14" points="124.8,199.6 83.9,199.6 83.9,269.7 319,269.7 319,471.9 "/>
<polyline class="st14" points="124.8,174.9 77.7,174.9 77.7,277 279.9,277 279.9,490.9 "/>
<g>
	<path class="st15" d="M49.2,75.7v3.1h3.7v0.8h-3.7v3.8h-0.9v-8.5h5.3v0.8H49.2z"/>
	<path class="st15" d="M60.1,83.4l-1.9-3.8h-2.1v3.8h-0.9v-8.5h3.3c1.5,0,2.5,0.9,2.5,2.4c0,1.2-0.8,2.1-1.9,2.3l2,3.9H60.1z
		 M58.4,75.7h-2.3v3.1h2.3c1,0,1.7-0.5,1.7-1.6S59.4,75.7,58.4,75.7z"/>
	<path class="st15" d="M67.9,82.6c-0.6,0.6-1.3,0.9-2.2,0.9s-1.6-0.3-2.2-0.9c-0.8-0.8-0.8-1.6-0.8-3.5s0-2.7,0.8-3.5
		c0.6-0.6,1.3-0.9,2.2-0.9s1.6,0.3,2.2,0.9c0.8,0.8,0.8,1.6,0.8,3.5S68.7,81.8,67.9,82.6z M67.2,76.2c-0.4-0.4-0.9-0.6-1.5-0.6
		c-0.6,0-1.1,0.2-1.5,0.6c-0.5,0.6-0.6,1.1-0.6,2.9s0.1,2.4,0.6,2.9c0.4,0.4,0.9,0.6,1.5,0.6c0.6,0,1.1-0.2,1.5-0.6
		c0.5-0.6,0.6-1.1,0.6-2.9S67.8,76.8,67.2,76.2z"/>
	<path class="st15" d="M76.3,83.4l-4.5-6.8v6.8h-0.9v-8.5h0.9l4.5,6.8v-6.8h0.9v8.5H76.3z"/>
	<path class="st15" d="M82.2,75.7v7.7h-0.9v-7.7h-2.5v-0.8h5.9v0.8H82.2z"/>
	<path class="st15" d="M95.9,83.4H95l-1.9-6.8l-1.9,6.8h-0.9l-2.2-8.5h1l1.7,6.9l1.9-6.9h0.8l1.9,6.9l1.7-6.9h1L95.9,83.4z"/>
	<path class="st15" d="M99.5,83.4v-8.5h0.9v8.5H99.5z"/>
	<path class="st15" d="M108.3,83.4l-4.5-6.8v6.8h-0.9v-8.5h0.9l4.5,6.8v-6.8h0.9v8.5H108.3z"/>
	<path class="st15" d="M116.7,82.6c-0.5,0.5-1.3,0.8-2.2,0.8h-2.9v-8.5h2.9c0.9,0,1.6,0.3,2.2,0.8c0.9,0.9,0.8,2.2,0.8,3.4
		C117.6,80.2,117.6,81.7,116.7,82.6z M116.1,76.3c-0.4-0.5-1-0.6-1.7-0.6h-1.9v6.9h1.9c0.7,0,1.2-0.2,1.7-0.6
		c0.6-0.6,0.6-1.9,0.6-2.9S116.7,76.9,116.1,76.3z"/>
	<path class="st15" d="M124.6,82.6c-0.6,0.6-1.3,0.9-2.2,0.9s-1.6-0.3-2.2-0.9c-0.8-0.8-0.8-1.6-0.8-3.5s0-2.7,0.8-3.5
		c0.6-0.6,1.3-0.9,2.2-0.9s1.6,0.3,2.2,0.9c0.8,0.8,0.8,1.6,0.8,3.5S125.4,81.8,124.6,82.6z M123.8,76.2c-0.4-0.4-0.9-0.6-1.5-0.6
		c-0.6,0-1.1,0.2-1.5,0.6c-0.5,0.6-0.6,1.1-0.6,2.9s0.1,2.4,0.6,2.9c0.4,0.4,0.9,0.6,1.5,0.6c0.6,0,1.1-0.2,1.5-0.6
		c0.5-0.6,0.6-1.1,0.6-2.9S124.4,76.8,123.8,76.2z"/>
	<path class="st15" d="M134,83.4h-0.9l-1.9-6.8l-1.9,6.8h-0.9l-2.2-8.5h1l1.7,6.9l1.9-6.9h0.8l1.9,6.9l1.7-6.9h1L134,83.4z"/>
</g>
<rect x="47.1" y="92.6" class="st16" width="421.3" height="368.9"/>
<g>
	<circle class="st0" cx="391.7" cy="357.4" r="13"/>
	<rect x="384.3" y="354.5" class="st0" width="14.8" height="5.4"/>
</g>
<line class="st14" x1="391.7" y1="359.9" x2="391.7" y2="498.9"/>
</svg>
