<?xml version="1.0" encoding="utf-8"?>
<!-- Generator: Adobe Illustrator 26.5.1, SVG Export Plug-In . SVG Version: 6.00 Build 0)  -->
<svg version="1.1" id="Layer_1" xmlns="http://www.w3.org/2000/svg" xmlns:xlink="http://www.w3.org/1999/xlink" x="0px" y="0px"
	 viewBox="0 0 351.6 354.9" style="enable-background:new 0 0 351.6 354.9;" xml:space="preserve">
<style type="text/css">
	.st0{fill:none;stroke:#010101;stroke-width:0.5;stroke-linecap:round;stroke-linejoin:round;stroke-miterlimit:10;}
	.st1{fill:none;stroke:#010101;stroke-width:0.5;stroke-miterlimit:10;}
	.st2{fill:none;stroke:#010101;stroke-width:0.5492;stroke-miterlimit:10;}
	.st3{fill:#FFFFFF;stroke:#010101;stroke-width:0.4839;stroke-miterlimit:10;}
	.st4{fill:none;stroke:#629841;stroke-miterlimit:10;}
	.st5{fill:none;stroke:#010101;stroke-miterlimit:10;}
	.st6{fill:none;stroke:#7C441C;stroke-miterlimit:10;}
	.st7{fill:none;stroke:#77797C;stroke-miterlimit:10;}
	.st8{fill:none;stroke:#0177A4;stroke-miterlimit:10;}
	.st9{fill:#010101;}
</style>
<g>
	<path class="st0" d="M214.4,203c0.1,1.2-1.3,2.6-2.5,2.5h-75.8c-1.2,0.1-2.6-1.3-2.5-2.5v-75.8c-0.1-1.2,1.3-2.6,2.5-2.5h75.8
		c1.2-0.1,2.6,1.3,2.5,2.5V203z"/>
	<g>
		<path class="st1" d="M165.1,187.5c0.9,0.8,2.8,0.4,3.4-0.6c0.8-0.9,0.4-2.8-0.6-3.4c-0.9-0.8-2.8-0.4-3.4,0.6
			C163.7,185,164.1,186.9,165.1,187.5z"/>
		<path class="st1" d="M172.6,187.5c0.9,0.8,2.8,0.4,3.4-0.6c0.8-0.9,0.4-2.8-0.6-3.4c-0.9-0.8-2.8-0.4-3.4,0.6
			C171.2,185,171.6,186.9,172.6,187.5z"/>
		<path class="st1" d="M180.1,187.5c0.9,0.8,2.8,0.4,3.4-0.6c0.8-0.9,0.4-2.8-0.6-3.4c-0.9-0.8-2.8-0.4-3.4,0.6
			C178.7,185,179,186.9,180.1,187.5z"/>
	</g>
	<g>
		<path class="st1" d="M165.1,147.3c0.9,0.8,2.8,0.4,3.4-0.6c0.8-0.9,0.4-2.8-0.6-3.4c-0.9-0.8-2.8-0.4-3.4,0.6
			C163.7,144.8,164.1,146.7,165.1,147.3z"/>
		<path class="st1" d="M172.6,147.3c0.9,0.8,2.8,0.4,3.4-0.6c0.8-0.9,0.4-2.8-0.6-3.4c-0.9-0.8-2.8-0.4-3.4,0.6
			C171.2,144.8,171.6,146.7,172.6,147.3z"/>
		<path class="st1" d="M180.1,147.3c0.9,0.8,2.8,0.4,3.4-0.6c0.8-0.9,0.4-2.8-0.6-3.4c-0.9-0.8-2.8-0.4-3.4,0.6
			C178.7,144.8,179,146.7,180.1,147.3z"/>
	</g>
	<g>
		<path class="st1" d="M139.2,172.6c0.9,0.8,2.8,0.4,3.4-0.6c0.8-0.9,0.4-2.8-0.6-3.4c-0.9-0.8-2.8-0.4-3.4,0.6
			C137.7,170.1,138.1,172,139.2,172.6z"/>
		<path class="st1" d="M139.2,161.8c0.9,0.8,2.8,0.4,3.4-0.6c0.8-0.9,0.4-2.8-0.6-3.4c-0.9-0.8-2.8-0.4-3.4,0.6
			C137.7,159.3,138.1,161.2,139.2,161.8z"/>
	</g>
	<g>
		<path class="st1" d="M206.5,172.6c0.9,0.8,2.8,0.4,3.4-0.6c0.8-0.9,0.4-2.8-0.6-3.4c-0.9-0.8-2.8-0.4-3.4,0.6
			C205,170.1,205.4,172,206.5,172.6z"/>
		<path class="st1" d="M206.5,161.8c0.9,0.8,2.8,0.4,3.4-0.6c0.8-0.9,0.4-2.8-0.6-3.4c-0.9-0.8-2.8-0.4-3.4,0.6
			C205,159.3,205.4,161.2,206.5,161.8z"/>
	</g>
	<rect x="159.9" y="140.5" class="st2" width="28.2" height="49.2"/>
	<rect x="158" y="149.1" class="st3" width="32.1" height="32.1"/>
	<polyline class="st4" points="139.9,172.6 139.9,229.3 164.4,229.3 164.4,267 	"/>
	<line class="st5" x1="173.8" y1="189.7" x2="173.8" y2="267"/>
	<polyline class="st6" points="167.4,189.9 167.4,226.3 169.3,226.3 169.3,267 	"/>
	<polyline class="st7" points="181.8,190 181.8,226.3 178.8,226.3 178.8,267 	"/>
	<polyline class="st8" points="207.7,173.1 207.7,229.3 183,229.3 183,267 	"/>
	<polyline class="st4" points="139.9,157.7 139.9,100.9 163.4,100.9 163.4,76.6 	"/>
	<line class="st5" x1="173.8" y1="140.6" x2="173.8" y2="76.6"/>
	<polyline class="st6" points="166.4,140.4 166.4,103.9 168.3,103.9 168.3,76.6 	"/>
	<polyline class="st7" points="181.8,140.2 181.8,103.9 178.8,103.9 178.8,76.6 	"/>
	<polyline class="st8" points="207.7,157.1 207.7,100.9 183,100.9 183,76.6 	"/>
	<g>
		<path class="st9" d="M185.9,56h-1.5v2.4h-0.6v-5.7h2.1c1,0,1.8,0.7,1.8,1.7S187,56,185.9,56z M185.9,53.2h-1.5v2.3h1.5
			c0.7,0,1.2-0.4,1.2-1.1S186.6,53.2,185.9,53.2z"/>
		<path class="st9" d="M191.3,57.9c-0.3,0.3-0.7,0.5-1.1,0.5s-0.9-0.2-1.1-0.5c-0.4-0.4-0.5-1-0.5-1.6c0-0.6,0.1-1.2,0.5-1.6
			c0.3-0.3,0.7-0.5,1.1-0.5s0.9,0.2,1.1,0.5c0.4,0.4,0.5,1,0.5,1.6C191.8,57,191.7,57.5,191.3,57.9z M190.9,55.1
			c-0.2-0.2-0.4-0.3-0.7-0.3s-0.5,0.1-0.7,0.3c-0.3,0.3-0.3,0.8-0.3,1.2s0,0.9,0.3,1.2c0.2,0.2,0.4,0.3,0.7,0.3s0.5-0.1,0.7-0.3
			c0.3-0.3,0.3-0.8,0.3-1.2S191.2,55.4,190.9,55.1z"/>
		<path class="st9" d="M196.8,58.3h-0.5l-1-3.1l-1,3.1h-0.5l-1.3-4h0.6l0.9,3.2l1-3.2h0.5l1,3.2l0.9-3.2h0.6L196.8,58.3z"/>
		<path class="st9" d="M199.2,56.5c0,0.9,0.4,1.4,1.2,1.4c0.5,0,0.7-0.1,1-0.5l0.4,0.3c-0.4,0.4-0.8,0.6-1.4,0.6c-1,0-1.7-0.6-1.7-2
			c0-1.3,0.6-2,1.6-2c1,0,1.6,0.7,1.6,1.9v0.3H199.2z M201.2,55.4c-0.2-0.4-0.5-0.6-0.9-0.6s-0.8,0.2-0.9,0.6
			c-0.1,0.2-0.1,0.3-0.1,0.7h2.1C201.3,55.8,201.3,55.6,201.2,55.4z"/>
		<path class="st9" d="M205.3,55.1c-0.2-0.2-0.4-0.3-0.7-0.3c-0.6,0-0.9,0.5-0.9,1.1v2.4h-0.6v-4h0.6v0.5c0.2-0.3,0.7-0.5,1.1-0.5
			c0.4,0,0.7,0.1,0.9,0.4L205.3,55.1z"/>
		<path class="st9" d="M210.4,58.4c-0.6,0-1.1-0.2-1.5-0.6c-0.5-0.5-0.5-1.1-0.5-2.3c0-1.2,0-1.8,0.5-2.3c0.4-0.4,0.9-0.6,1.5-0.6
			c1,0,1.8,0.6,2,1.7h-0.6c-0.2-0.7-0.6-1.2-1.4-1.2c-0.4,0-0.7,0.1-1,0.4c-0.4,0.4-0.4,0.8-0.4,2c0,1.2,0,1.6,0.4,2
			c0.2,0.3,0.6,0.4,1,0.4c0.7,0,1.2-0.5,1.4-1.2h0.6C212.2,57.8,211.4,58.4,210.4,58.4z"/>
		<path class="st9" d="M215.9,58.3V58c-0.3,0.3-0.6,0.4-1.1,0.4c-0.5,0-0.9-0.1-1.1-0.4c-0.2-0.2-0.3-0.5-0.3-0.8
			c0-0.7,0.5-1.1,1.4-1.1h1.2v-0.4c0-0.6-0.3-0.9-1-0.9c-0.5,0-0.8,0.1-1,0.5l-0.4-0.4c0.4-0.5,0.8-0.6,1.4-0.6
			c1.1,0,1.6,0.5,1.6,1.3v2.7H215.9z M215.9,56.5h-1.1c-0.6,0-0.9,0.2-0.9,0.7c0,0.5,0.3,0.7,0.9,0.7c0.3,0,0.6,0,0.9-0.3
			c0.1-0.1,0.2-0.4,0.2-0.7V56.5z"/>
		<path class="st9" d="M220.5,58.1c-0.2,0.2-0.6,0.3-1,0.3c-0.4,0-0.8-0.1-1.1-0.5v0.5h-0.6v-5.7h0.6v2.2c0.3-0.4,0.7-0.5,1.1-0.5
			c0.4,0,0.8,0.1,1,0.3c0.4,0.4,0.5,1.1,0.5,1.7S220.9,57.6,220.5,58.1z M219.4,54.9c-0.9,0-1,0.7-1,1.5c0,0.8,0.1,1.5,1,1.5
			s1-0.7,1-1.5C220.4,55.6,220.3,54.9,219.4,54.9z"/>
		<path class="st9" d="M223.2,58.3c-0.7,0-1-0.5-1-1.1v-4.7h0.6v4.6c0,0.4,0.1,0.6,0.5,0.6h0.3v0.5H223.2z"/>
		<path class="st9" d="M225,56.5c0,0.9,0.4,1.4,1.2,1.4c0.5,0,0.7-0.1,1-0.5l0.4,0.3c-0.4,0.4-0.8,0.6-1.4,0.6c-1,0-1.7-0.6-1.7-2
			c0-1.3,0.6-2,1.6-2c1,0,1.6,0.7,1.6,1.9v0.3H225z M227,55.4c-0.2-0.4-0.5-0.6-0.9-0.6s-0.8,0.2-0.9,0.6c-0.1,0.2-0.1,0.3-0.1,0.7
			h2.1C227.1,55.8,227.1,55.6,227,55.4z"/>
	</g>
	<g>
		<path class="st9" d="M226.7,163h-1.5v2.4h-0.6v-5.7h2.1c1,0,1.8,0.7,1.8,1.7S227.8,163,226.7,163z M226.7,160.2h-1.5v2.3h1.5
			c0.7,0,1.2-0.4,1.2-1.1S227.4,160.2,226.7,160.2z"/>
		<path class="st9" d="M232.1,165c-0.3,0.3-0.7,0.5-1.1,0.5s-0.9-0.2-1.1-0.5c-0.4-0.4-0.5-1-0.5-1.6c0-0.6,0.1-1.2,0.5-1.6
			c0.3-0.3,0.7-0.5,1.1-0.5s0.9,0.2,1.1,0.5c0.4,0.4,0.5,1,0.5,1.6C232.6,164,232.5,164.6,232.1,165z M231.7,162.2
			c-0.2-0.2-0.4-0.3-0.7-0.3s-0.5,0.1-0.7,0.3c-0.3,0.3-0.3,0.8-0.3,1.2s0,0.9,0.3,1.2c0.2,0.2,0.4,0.3,0.7,0.3s0.5-0.1,0.7-0.3
			c0.3-0.3,0.3-0.8,0.3-1.2S232,162.5,231.7,162.2z"/>
		<path class="st9" d="M237.6,165.4h-0.5l-1-3.1l-1,3.1h-0.5l-1.3-4h0.6l0.9,3.2l1-3.2h0.5l1,3.2l0.9-3.2h0.6L237.6,165.4z"/>
		<path class="st9" d="M240,163.6c0,0.9,0.4,1.4,1.2,1.4c0.5,0,0.7-0.1,1-0.5l0.4,0.3c-0.4,0.4-0.8,0.6-1.4,0.6c-1,0-1.7-0.6-1.7-2
			c0-1.3,0.6-2,1.6-2c1,0,1.6,0.7,1.6,1.9v0.3H240z M242,162.5c-0.2-0.4-0.5-0.6-0.9-0.6s-0.8,0.2-0.9,0.6c-0.1,0.2-0.1,0.3-0.1,0.7
			h2.1C242.1,162.8,242.1,162.7,242,162.5z"/>
		<path class="st9" d="M246.1,162.2c-0.2-0.2-0.4-0.3-0.7-0.3c-0.6,0-0.9,0.5-0.9,1.1v2.4h-0.6v-4h0.6v0.5c0.2-0.3,0.7-0.5,1.1-0.5
			c0.4,0,0.7,0.1,0.9,0.4L246.1,162.2z"/>
		<path class="st9" d="M250.9,165.4c-0.9,0-1.4-0.2-2-0.8l0.4-0.4c0.5,0.5,0.9,0.6,1.6,0.6c0.8,0,1.4-0.4,1.4-1.1
			c0-0.3-0.1-0.6-0.3-0.7c-0.2-0.2-0.3-0.2-0.7-0.3l-0.7-0.1c-0.5-0.1-0.8-0.2-1.1-0.4c-0.3-0.3-0.4-0.6-0.4-1.1
			c0-1,0.7-1.6,1.8-1.6c0.7,0,1.2,0.2,1.7,0.6l-0.4,0.4c-0.4-0.3-0.7-0.5-1.3-0.5c-0.8,0-1.2,0.4-1.2,1.1c0,0.3,0.1,0.5,0.3,0.7
			c0.2,0.2,0.5,0.3,0.8,0.3l0.6,0.1c0.5,0.1,0.8,0.2,1,0.4c0.3,0.3,0.5,0.7,0.5,1.1C252.9,164.8,252.1,165.4,250.9,165.4z"/>
		<path class="st9" d="M257.8,165.4h-0.5l-1-3.1l-1,3.1h-0.5l-1.3-4h0.6l0.9,3.2l1-3.2h0.5l1,3.2l0.9-3.2h0.6L257.8,165.4z"/>
		<path class="st9" d="M259.9,160.3v-0.7h0.7v0.7H259.9z M259.9,165.4v-4h0.6v4H259.9z"/>
		<path class="st9" d="M263,165.4c-0.7,0-1-0.5-1-1.1v-2.4h-0.5v-0.4h0.5v-1.2h0.6v1.2h0.8v0.4h-0.8v2.4c0,0.4,0.2,0.6,0.5,0.6h0.3
			v0.5H263z"/>
		<path class="st9" d="M266.1,165.4c-1,0-1.8-0.7-1.8-2c0-1.4,0.8-2,1.8-2c0.5,0,0.9,0.1,1.3,0.6l-0.4,0.4c-0.3-0.3-0.5-0.4-0.9-0.4
			c-0.4,0-0.7,0.2-0.9,0.5c-0.2,0.3-0.3,0.6-0.3,1.1c0,0.5,0.1,0.8,0.3,1.1c0.2,0.3,0.5,0.5,0.9,0.5c0.4,0,0.6-0.1,0.9-0.5l0.4,0.4
			C267,165.3,266.7,165.4,266.1,165.4z"/>
		<path class="st9" d="M271.1,165.4v-2.4c0-0.7-0.4-1-1-1c-0.6,0-1,0.4-1,1v2.4h-0.6v-5.7h0.6v2.2c0.3-0.3,0.7-0.5,1.1-0.5
			c0.9,0,1.4,0.6,1.4,1.5v2.5H271.1z"/>
	</g>
	<g>
		<path class="st9" d="M186.9,296.1v-4.4l-1.6,3.5h-0.5l-1.6-3.5v4.4h-0.6v-5.7h0.6l1.9,4.1l1.8-4.1h0.6v5.7H186.9z"/>
		<path class="st9" d="M191.4,296.1v-0.4c-0.3,0.3-0.6,0.4-1.1,0.4c-0.5,0-0.9-0.1-1.1-0.4c-0.2-0.2-0.3-0.5-0.3-0.8
			c0-0.7,0.5-1.1,1.4-1.1h1.2v-0.4c0-0.6-0.3-0.9-1-0.9c-0.5,0-0.8,0.1-1,0.5l-0.4-0.4c0.4-0.5,0.8-0.6,1.4-0.6
			c1.1,0,1.6,0.5,1.6,1.3v2.7H191.4z M191.4,294.2h-1.1c-0.6,0-0.9,0.2-0.9,0.7c0,0.5,0.3,0.7,0.9,0.7c0.3,0,0.6,0,0.9-0.3
			c0.1-0.1,0.2-0.4,0.2-0.7V294.2z"/>
		<path class="st9" d="M193.3,291v-0.7h0.7v0.7H193.3z M193.3,296.1v-4h0.6v4H193.3z"/>
		<path class="st9" d="M197.9,296.1v-2.4c0-0.7-0.4-1.1-1-1.1c-0.6,0-1,0.4-1,1.1v2.4h-0.6v-4h0.6v0.4c0.3-0.3,0.7-0.5,1.1-0.5
			c0.4,0,0.8,0.1,1,0.4c0.3,0.3,0.4,0.6,0.4,1.1v2.5H197.9z"/>
		<path class="st9" d="M201.2,296.1c-0.7,0-1.2-0.2-1.6-0.6l0.4-0.4c0.3,0.3,0.7,0.5,1.2,0.5c0.7,0,1.1-0.2,1.1-0.7
			c0-0.3-0.2-0.5-0.7-0.6l-0.7-0.1c-0.8-0.1-1.2-0.4-1.2-1.1c0-0.7,0.6-1.2,1.5-1.2c0.6,0,1.1,0.1,1.4,0.4l-0.4,0.4
			c-0.3-0.2-0.6-0.3-1.1-0.3c-0.6,0-0.9,0.2-0.9,0.7c0,0.3,0.2,0.5,0.7,0.6l0.6,0.1c0.7,0.1,1.2,0.3,1.2,1.1
			C202.8,295.7,202.1,296.1,201.2,296.1z"/>
		<path class="st9" d="M207.8,296.1c-0.6,0-1.1-0.2-1.5-0.6c-0.5-0.5-0.5-1.1-0.5-2.3c0-1.2,0-1.8,0.5-2.3c0.4-0.4,0.9-0.6,1.5-0.6
			c1,0,1.8,0.6,2,1.7h-0.6c-0.2-0.7-0.6-1.2-1.4-1.2c-0.4,0-0.7,0.1-1,0.4c-0.4,0.4-0.4,0.8-0.4,2c0,1.2,0,1.6,0.4,2
			c0.2,0.3,0.6,0.4,1,0.4c0.7,0,1.2-0.5,1.4-1.2h0.6C209.6,295.5,208.8,296.1,207.8,296.1z"/>
		<path class="st9" d="M213.3,296.1v-0.4c-0.3,0.3-0.6,0.4-1.1,0.4c-0.5,0-0.9-0.1-1.1-0.4c-0.2-0.2-0.3-0.5-0.3-0.8
			c0-0.7,0.5-1.1,1.4-1.1h1.2v-0.4c0-0.6-0.3-0.9-1-0.9c-0.5,0-0.8,0.1-1,0.5l-0.4-0.4c0.4-0.5,0.8-0.6,1.4-0.6
			c1.1,0,1.6,0.5,1.6,1.3v2.7H213.3z M213.3,294.2h-1.1c-0.6,0-0.9,0.2-0.9,0.7c0,0.5,0.3,0.7,0.9,0.7c0.3,0,0.6,0,0.9-0.3
			c0.1-0.1,0.2-0.4,0.2-0.7V294.2z"/>
		<path class="st9" d="M217.9,295.8c-0.2,0.2-0.6,0.3-1,0.3c-0.4,0-0.8-0.1-1.1-0.5v0.5h-0.6v-5.7h0.6v2.2c0.3-0.4,0.7-0.5,1.1-0.5
			c0.4,0,0.8,0.1,1,0.3c0.4,0.4,0.5,1.1,0.5,1.7S218.3,295.4,217.9,295.8z M216.8,292.6c-0.9,0-1,0.7-1,1.5c0,0.8,0.1,1.5,1,1.5
			s1-0.7,1-1.5C217.8,293.3,217.7,292.6,216.8,292.6z"/>
		<path class="st9" d="M220.6,296.1c-0.7,0-1-0.5-1-1.1v-4.7h0.6v4.6c0,0.4,0.1,0.6,0.5,0.6h0.3v0.5H220.6z"/>
		<path class="st9" d="M222.4,294.2c0,0.9,0.4,1.4,1.2,1.4c0.5,0,0.7-0.1,1-0.5l0.4,0.3c-0.4,0.4-0.8,0.6-1.4,0.6
			c-1,0-1.7-0.6-1.7-2c0-1.3,0.6-2,1.6-2c1,0,1.6,0.7,1.6,1.9v0.3H222.4z M224.4,293.2c-0.2-0.4-0.5-0.6-0.9-0.6s-0.8,0.2-0.9,0.6
			c-0.1,0.2-0.1,0.3-0.1,0.7h2.1C224.5,293.5,224.5,293.4,224.4,293.2z"/>
	</g>
	<line class="st5" x1="183" y1="267" x2="163.4" y2="267"/>
	<line class="st5" x1="174" y1="312.5" x2="174" y2="267"/>
	<line class="st5" x1="183" y1="76.3" x2="163.4" y2="76.3"/>
	<line class="st5" x1="174" y1="79.1" x2="174" y2="33.7"/>
</g>
</svg>
