<?xml version="1.0" encoding="utf-8"?>
<!-- Generator: Adobe Illustrator 26.5.1, SVG Export Plug-In . SVG Version: 6.00 Build 0)  -->
<svg version="1.1" id="Layer_1" xmlns="http://www.w3.org/2000/svg" xmlns:xlink="http://www.w3.org/1999/xlink" x="0px" y="0px"
	 viewBox="0 0 1062.9 448" style="enable-background:new 0 0 1062.9 448;" xml:space="preserve">
<style type="text/css">
	.st0{fill:none;stroke:#000000;stroke-width:2.6162;stroke-miterlimit:10;}
	.st1{fill:none;stroke:#000000;stroke-width:0.5;stroke-linecap:round;stroke-linejoin:round;stroke-miterlimit:10;}
	.st2{fill:#7C4200;stroke:#000000;stroke-width:0.5;stroke-miterlimit:10;}
	.st3{fill:none;stroke:#000000;stroke-width:0.5;stroke-miterlimit:10;}
	.st4{fill:#231F20;stroke:#000000;stroke-width:0.5;stroke-miterlimit:10;}
	.st5{fill:#BBBBBD;stroke:#231F20;stroke-width:0.5;stroke-miterlimit:10;}
	.st6{fill:none;stroke:#0076A2;stroke-width:0.5;stroke-miterlimit:10;}
	.st7{fill:#0076A2;stroke:#0076A2;stroke-width:0.5;stroke-miterlimit:10;}
	.st8{fill:#0076A2;stroke:#000000;stroke-width:0.5;stroke-miterlimit:10;}
	.st9{stroke:#000000;stroke-width:0.5;stroke-miterlimit:10;}
	.st10{stroke:#000000;stroke-width:0.5;stroke-linecap:round;stroke-linejoin:round;stroke-miterlimit:10;}
	.st11{fill:none;stroke:#231F20;stroke-width:0.5;stroke-miterlimit:10;}
	.st12{fill:none;stroke:#61983F;stroke-width:0.5;stroke-linecap:round;stroke-linejoin:round;stroke-miterlimit:10;}
	.st13{fill:#61983F;stroke:#61983F;stroke-width:0.5;stroke-miterlimit:10;}
	.st14{fill:none;stroke:#61983F;stroke-width:0.5;stroke-miterlimit:10;}
	.st15{fill:#FFFFFF;stroke:#000000;stroke-width:0.5;stroke-miterlimit:10;}
	.st16{fill:none;stroke:#000000;stroke-width:0.4803;stroke-linecap:round;stroke-linejoin:round;stroke-miterlimit:10;}
	.st17{fill:#231F20;}
	.st18{fill:none;stroke:#7C4200;stroke-miterlimit:10;}
	.st19{fill:none;stroke:#0076A2;stroke-miterlimit:10;}
	.st20{fill:none;stroke:#000000;stroke-miterlimit:10;}
	.st21{fill:none;stroke:#000000;stroke-width:0.4609;stroke-linecap:round;stroke-linejoin:round;stroke-miterlimit:4.0007;}
	.st22{fill:none;stroke:#000000;stroke-width:0.441;stroke-miterlimit:10;}
</style>
<polyline class="st0" points="983.4,98.7 983.4,369.9 78.9,369.9 78.9,98.7 "/>
<g>
	<rect x="171.2" y="210.3" class="st1" width="9.7" height="68"/>
	<path class="st2" d="M177.4,270.7c-0.9-0.8-2.8-0.4-3.4,0.6c-0.8,0.9-0.4,2.8,0.6,3.4c0.9,0.8,2.8,0.4,3.4-0.6
		C178.9,273.2,178.5,271.3,177.4,270.7z"/>
	<rect x="174" y="265.6" class="st1" width="4" height="1.7"/>
	<path class="st3" d="M177.4,258.2c-0.9-0.8-2.8-0.4-3.4,0.6c-0.8,0.9-0.4,2.8,0.6,3.4c0.9,0.8,2.8,0.4,3.4-0.6
		C178.9,260.6,178.5,258.7,177.4,258.2z"/>
	<rect x="174" y="253" class="st1" width="4" height="1.7"/>
	<path class="st2" d="M174.7,217.8c0.9,0.8,2.8,0.4,3.4-0.6c0.8-0.9,0.4-2.8-0.6-3.4c-0.9-0.8-2.8-0.4-3.4,0.6
		C173.2,215.4,173.6,217.3,174.7,217.8z"/>
	
		<rect x="174" y="221.3" transform="matrix(-1 -1.224647e-16 1.224647e-16 -1 352.0849 444.2918)" class="st1" width="4" height="1.7"/>
	<path class="st3" d="M174.7,230.4c0.9,0.8,2.8,0.4,3.4-0.6c0.8-0.9,0.4-2.8-0.6-3.4c-0.9-0.8-2.8-0.4-3.4,0.6
		C173.2,227.9,173.6,229.8,174.7,230.4z"/>
	
		<rect x="174" y="233.9" transform="matrix(-1 -1.224647e-16 1.224647e-16 -1 352.0849 469.4486)" class="st1" width="4" height="1.7"/>
</g>
<g>
	<rect x="181" y="210.3" class="st1" width="9.7" height="68"/>
	<path class="st4" d="M187.3,270.7c-0.9-0.8-2.8-0.4-3.4,0.6c-0.8,0.9-0.4,2.8,0.6,3.4c0.9,0.8,2.8,0.4,3.4-0.6
		C188.7,273.2,188.3,271.3,187.3,270.7z"/>
	<rect x="183.9" y="265.6" class="st1" width="4" height="1.7"/>
	<path class="st3" d="M187.3,258.2c-0.9-0.8-2.8-0.4-3.4,0.6c-0.8,0.9-0.4,2.8,0.6,3.4c0.9,0.8,2.8,0.4,3.4-0.6
		C188.7,260.6,188.3,258.7,187.3,258.2z"/>
	<rect x="183.9" y="253" class="st1" width="4" height="1.7"/>
	<path class="st2" d="M184.5,217.8c0.9,0.8,2.8,0.4,3.4-0.6c0.8-0.9,0.4-2.8-0.6-3.4c-0.9-0.8-2.8-0.4-3.4,0.6
		C183.1,215.4,183.4,217.3,184.5,217.8z"/>
	
		<rect x="183.9" y="221.3" transform="matrix(-1 -1.224647e-16 1.224647e-16 -1 371.7631 444.2918)" class="st1" width="4" height="1.7"/>
	<path class="st3" d="M184.5,230.4c0.9,0.8,2.8,0.4,3.4-0.6c0.8-0.9,0.4-2.8-0.6-3.4c-0.9-0.8-2.8-0.4-3.4,0.6
		C183.1,227.9,183.4,229.8,184.5,230.4z"/>
	
		<rect x="183.9" y="233.9" transform="matrix(-1 -1.224647e-16 1.224647e-16 -1 371.7631 469.4486)" class="st1" width="4" height="1.7"/>
</g>
<g>
	<rect x="190.9" y="210.3" class="st1" width="9.7" height="68"/>
	<path class="st5" d="M197.1,270.7c-0.9-0.8-2.8-0.4-3.4,0.6c-0.8,0.9-0.4,2.8,0.6,3.4c0.9,0.8,2.8,0.4,3.4-0.6
		C198.5,273.2,198.2,271.3,197.1,270.7z"/>
	<rect x="193.7" y="265.6" class="st1" width="4" height="1.7"/>
	<path class="st3" d="M197.1,258.2c-0.9-0.8-2.8-0.4-3.4,0.6c-0.8,0.9-0.4,2.8,0.6,3.4c0.9,0.8,2.8,0.4,3.4-0.6
		C198.5,260.6,198.2,258.7,197.1,258.2z"/>
	<rect x="193.7" y="253" class="st1" width="4" height="1.7"/>
	<path class="st2" d="M194.3,217.8c0.9,0.8,2.8,0.4,3.4-0.6c0.8-0.9,0.4-2.8-0.6-3.4c-0.9-0.8-2.8-0.4-3.4,0.6
		C192.9,215.4,193.3,217.3,194.3,217.8z"/>
	
		<rect x="193.7" y="221.3" transform="matrix(-1 -1.224647e-16 1.224647e-16 -1 391.4413 444.2918)" class="st1" width="4" height="1.7"/>
	<path class="st3" d="M194.3,230.4c0.9,0.8,2.8,0.4,3.4-0.6c0.8-0.9,0.4-2.8-0.6-3.4c-0.9-0.8-2.8-0.4-3.4,0.6
		C192.9,227.9,193.3,229.8,194.3,230.4z"/>
	
		<rect x="193.7" y="233.9" transform="matrix(-1 -1.224647e-16 1.224647e-16 -1 391.4413 469.4486)" class="st1" width="4" height="1.7"/>
</g>
<g>
	<rect x="200.7" y="210.3" class="st6" width="9.7" height="68"/>
	<path class="st6" d="M206.9,270.7c-0.9-0.8-2.8-0.4-3.4,0.6c-0.8,0.9-0.4,2.8,0.6,3.4c0.9,0.8,2.8,0.4,3.4-0.6
		C208.4,273.2,208,271.3,206.9,270.7z"/>
	<rect x="203.5" y="265.6" class="st6" width="4" height="1.7"/>
	<path class="st6" d="M206.9,258.2c-0.9-0.8-2.8-0.4-3.4,0.6c-0.8,0.9-0.4,2.8,0.6,3.4c0.9,0.8,2.8,0.4,3.4-0.6
		C208.4,260.6,208,258.7,206.9,258.2z"/>
	<rect x="203.5" y="253" class="st6" width="4" height="1.7"/>
	<path class="st7" d="M204.2,217.8c0.9,0.8,2.8,0.4,3.4-0.6c0.8-0.9,0.4-2.8-0.6-3.4c-0.9-0.8-2.8-0.4-3.4,0.6
		C202.7,215.4,203.1,217.3,204.2,217.8z"/>
	
		<rect x="203.5" y="221.3" transform="matrix(-1 -1.224647e-16 1.224647e-16 -1 411.1196 444.2918)" class="st6" width="4" height="1.7"/>
	<path class="st6" d="M204.2,230.4c0.9,0.8,2.8,0.4,3.4-0.6c0.8-0.9,0.4-2.8-0.6-3.4c-0.9-0.8-2.8-0.4-3.4,0.6
		C202.7,227.9,203.1,229.8,204.2,230.4z"/>
	
		<rect x="203.5" y="233.9" transform="matrix(-1 -1.224647e-16 1.224647e-16 -1 411.1196 469.4486)" class="st6" width="4" height="1.7"/>
</g>
<g>
	<rect x="210.5" y="210.3" class="st1" width="9.7" height="68"/>
	<path class="st8" d="M216.8,270.7c-0.9-0.8-2.8-0.4-3.4,0.6c-0.8,0.9-0.4,2.8,0.6,3.4c0.9,0.8,2.8,0.4,3.4-0.6
		C218.2,273.2,217.9,271.3,216.8,270.7z"/>
	<rect x="213.4" y="265.6" class="st1" width="4" height="1.7"/>
	<path class="st3" d="M216.8,258.2c-0.9-0.8-2.8-0.4-3.4,0.6c-0.8,0.9-0.4,2.8,0.6,3.4c0.9,0.8,2.8,0.4,3.4-0.6
		C218.2,260.6,217.9,258.7,216.8,258.2z"/>
	<rect x="213.4" y="253" class="st1" width="4" height="1.7"/>
	<path class="st8" d="M214,217.8c0.9,0.8,2.8,0.4,3.4-0.6c0.8-0.9,0.4-2.8-0.6-3.4c-0.9-0.8-2.8-0.4-3.4,0.6
		C212.6,215.4,212.9,217.3,214,217.8z"/>
	
		<rect x="213.4" y="221.3" transform="matrix(-1 -1.224647e-16 1.224647e-16 -1 430.7978 444.2918)" class="st1" width="4" height="1.7"/>
	<path class="st3" d="M214,230.4c0.9,0.8,2.8,0.4,3.4-0.6c0.8-0.9,0.4-2.8-0.6-3.4c-0.9-0.8-2.8-0.4-3.4,0.6
		C212.6,227.9,212.9,229.8,214,230.4z"/>
	
		<rect x="213.4" y="233.9" transform="matrix(-1 -1.224647e-16 1.224647e-16 -1 430.7978 469.4486)" class="st1" width="4" height="1.7"/>
</g>
<g>
	<rect x="718.5" y="210.3" class="st1" width="9.7" height="68"/>
	<path class="st1" d="M724.7,270.7c-0.9-0.8-2.8-0.4-3.4,0.6c-0.8,0.9-0.4,2.8,0.6,3.4c0.9,0.8,2.8,0.4,3.4-0.6
		C726.2,273.2,725.8,271.3,724.7,270.7z"/>
	<rect x="721.3" y="265.6" class="st1" width="4" height="1.7"/>
	<path class="st1" d="M724.7,258.2c-0.9-0.8-2.8-0.4-3.4,0.6c-0.8,0.9-0.4,2.8,0.6,3.4c0.9,0.8,2.8,0.4,3.4-0.6
		C726.2,260.6,725.8,258.7,724.7,258.2z"/>
	<rect x="721.3" y="253" class="st1" width="4" height="1.7"/>
	<path class="st9" d="M722,217.8c0.9,0.8,2.8,0.4,3.4-0.6c0.8-0.9,0.4-2.8-0.6-3.4c-0.9-0.8-2.8-0.4-3.4,0.6
		C720.5,215.4,720.9,217.3,722,217.8z"/>
	
		<rect x="721.3" y="221.3" transform="matrix(-1 -1.224647e-16 1.224647e-16 -1 1446.6986 444.2918)" class="st1" width="4" height="1.7"/>
	<path class="st10" d="M722,230.4c0.9,0.8,2.8,0.4,3.4-0.6c0.8-0.9,0.4-2.8-0.6-3.4c-0.9-0.8-2.8-0.4-3.4,0.6
		C720.5,227.9,720.9,229.8,722,230.4z"/>
	
		<rect x="721.3" y="233.9" transform="matrix(-1 -1.224647e-16 1.224647e-16 -1 1446.6986 469.4486)" class="st1" width="4" height="1.7"/>
</g>
<g>
	<rect x="728.3" y="210.3" class="st1" width="9.7" height="68"/>
	<path class="st3" d="M734.6,270.7c-0.9-0.8-2.8-0.4-3.4,0.6c-0.8,0.9-0.4,2.8,0.6,3.4c0.9,0.8,2.8,0.4,3.4-0.6
		C736,273.2,735.6,271.3,734.6,270.7z"/>
	<rect x="731.2" y="265.6" class="st1" width="4" height="1.7"/>
	<path class="st3" d="M734.6,258.2c-0.9-0.8-2.8-0.4-3.4,0.6c-0.8,0.9-0.4,2.8,0.6,3.4c0.9,0.8,2.8,0.4,3.4-0.6
		C736,260.6,735.6,258.7,734.6,258.2z"/>
	<rect x="731.2" y="253" class="st1" width="4" height="1.7"/>
	<path class="st10" d="M731.8,217.8c0.9,0.8,2.8,0.4,3.4-0.6c0.8-0.9,0.4-2.8-0.6-3.4c-0.9-0.8-2.8-0.4-3.4,0.6
		C730.4,215.4,730.7,217.3,731.8,217.8z"/>
	
		<rect x="731.2" y="221.3" transform="matrix(-1 -1.224647e-16 1.224647e-16 -1 1466.3768 444.2918)" class="st1" width="4" height="1.7"/>
	<path class="st11" d="M731.8,230.4c0.9,0.8,2.8,0.4,3.4-0.6c0.8-0.9,0.4-2.8-0.6-3.4c-0.9-0.8-2.8-0.4-3.4,0.6
		C730.4,227.9,730.7,229.8,731.8,230.4z"/>
	
		<rect x="731.2" y="233.9" transform="matrix(-1 -1.224647e-16 1.224647e-16 -1 1466.3768 469.4486)" class="st1" width="4" height="1.7"/>
</g>
<g>
	<rect x="738.2" y="210.3" class="st1" width="9.7" height="68"/>
	<path class="st11" d="M744.4,270.7c-0.9-0.8-2.8-0.4-3.4,0.6c-0.8,0.9-0.4,2.8,0.6,3.4c0.9,0.8,2.8,0.4,3.4-0.6
		C745.8,273.2,745.5,271.3,744.4,270.7z"/>
	<rect x="741" y="265.6" class="st1" width="4" height="1.7"/>
	<path class="st11" d="M744.4,258.2c-0.9-0.8-2.8-0.4-3.4,0.6c-0.8,0.9-0.4,2.8,0.6,3.4c0.9,0.8,2.8,0.4,3.4-0.6
		C745.8,260.6,745.5,258.7,744.4,258.2z"/>
	<rect x="741" y="253" class="st1" width="4" height="1.7"/>
	<path class="st1" d="M741.6,217.8c0.9,0.8,2.8,0.4,3.4-0.6c0.8-0.9,0.4-2.8-0.6-3.4c-0.9-0.8-2.8-0.4-3.4,0.6
		C740.2,215.4,740.6,217.3,741.6,217.8z"/>
	
		<rect x="741" y="221.3" transform="matrix(-1 -1.224647e-16 1.224647e-16 -1 1486.0551 444.2918)" class="st1" width="4" height="1.7"/>
	<path class="st1" d="M741.6,230.4c0.9,0.8,2.8,0.4,3.4-0.6c0.8-0.9,0.4-2.8-0.6-3.4c-0.9-0.8-2.8-0.4-3.4,0.6
		C740.2,227.9,740.6,229.8,741.6,230.4z"/>
	
		<rect x="741" y="233.9" transform="matrix(-1 -1.224647e-16 1.224647e-16 -1 1486.0551 469.4486)" class="st1" width="4" height="1.7"/>
</g>
<g>
	<rect x="748" y="210.3" class="st1" width="9.7" height="68"/>
	<path class="st1" d="M754.2,270.7c-0.9-0.8-2.8-0.4-3.4,0.6c-0.8,0.9-0.4,2.8,0.6,3.4c0.9,0.8,2.8,0.4,3.4-0.6
		C755.7,273.2,755.3,271.3,754.2,270.7z"/>
	<rect x="750.9" y="265.6" class="st1" width="4" height="1.7"/>
	<path class="st1" d="M754.2,258.2c-0.9-0.8-2.8-0.4-3.4,0.6c-0.8,0.9-0.4,2.8,0.6,3.4c0.9,0.8,2.8,0.4,3.4-0.6
		C755.7,260.6,755.3,258.7,754.2,258.2z"/>
	<rect x="750.9" y="253" class="st1" width="4" height="1.7"/>
	<path class="st1" d="M751.5,217.8c0.9,0.8,2.8,0.4,3.4-0.6c0.8-0.9,0.4-2.8-0.6-3.4c-0.9-0.8-2.8-0.4-3.4,0.6
		C750.1,215.4,750.4,217.3,751.5,217.8z"/>
	
		<rect x="750.9" y="221.3" transform="matrix(-1 -1.224647e-16 1.224647e-16 -1 1505.7333 444.2918)" class="st1" width="4" height="1.7"/>
	<path class="st1" d="M751.5,230.4c0.9,0.8,2.8,0.4,3.4-0.6c0.8-0.9,0.4-2.8-0.6-3.4c-0.9-0.8-2.8-0.4-3.4,0.6
		C750.1,227.9,750.4,229.8,751.5,230.4z"/>
	
		<rect x="750.9" y="233.9" transform="matrix(-1 -1.224647e-16 1.224647e-16 -1 1505.7333 469.4486)" class="st1" width="4" height="1.7"/>
</g>
<g>
	<rect x="757.8" y="210.3" class="st1" width="9.7" height="68"/>
	<path class="st3" d="M764.1,270.7c-0.9-0.8-2.8-0.4-3.4,0.6c-0.8,0.9-0.4,2.8,0.6,3.4c0.9,0.8,2.8,0.4,3.4-0.6
		C765.5,273.2,765.2,271.3,764.1,270.7z"/>
	<rect x="760.7" y="265.6" class="st1" width="4" height="1.7"/>
	<path class="st1" d="M764.1,258.2c-0.9-0.8-2.8-0.4-3.4,0.6c-0.8,0.9-0.4,2.8,0.6,3.4c0.9,0.8,2.8,0.4,3.4-0.6
		C765.5,260.6,765.2,258.7,764.1,258.2z"/>
	<rect x="760.7" y="253" class="st1" width="4" height="1.7"/>
	<path class="st1" d="M761.3,217.8c0.9,0.8,2.8,0.4,3.4-0.6c0.8-0.9,0.4-2.8-0.6-3.4c-0.9-0.8-2.8-0.4-3.4,0.6
		C759.9,215.4,760.3,217.3,761.3,217.8z"/>
	
		<rect x="760.7" y="221.3" transform="matrix(-1 -1.224647e-16 1.224647e-16 -1 1525.4115 444.2918)" class="st1" width="4" height="1.7"/>
	<path class="st1" d="M761.3,230.4c0.9,0.8,2.8,0.4,3.4-0.6c0.8-0.9,0.4-2.8-0.6-3.4c-0.9-0.8-2.8-0.4-3.4,0.6
		C759.9,227.9,760.3,229.8,761.3,230.4z"/>
	
		<rect x="760.7" y="233.9" transform="matrix(-1 -1.224647e-16 1.224647e-16 -1 1525.4115 469.4486)" class="st1" width="4" height="1.7"/>
</g>
<g>
	<rect x="670.5" y="210.3" class="st1" width="9.7" height="68"/>
	<path class="st3" d="M676.8,270.7c-0.9-0.8-2.8-0.4-3.4,0.6c-0.8,0.9-0.4,2.8,0.6,3.4c0.9,0.8,2.8,0.4,3.4-0.6
		C678.2,273.2,677.9,271.3,676.8,270.7z"/>
	<rect x="673.4" y="265.6" class="st1" width="4" height="1.7"/>
	<path class="st3" d="M676.8,258.2c-0.9-0.8-2.8-0.4-3.4,0.6c-0.8,0.9-0.4,2.8,0.6,3.4c0.9,0.8,2.8,0.4,3.4-0.6
		C678.2,260.6,677.9,258.7,676.8,258.2z"/>
	<rect x="673.4" y="253" class="st1" width="4" height="1.7"/>
	<path class="st3" d="M674,217.8c0.9,0.8,2.8,0.4,3.4-0.6c0.8-0.9,0.4-2.8-0.6-3.4c-0.9-0.8-2.8-0.4-3.4,0.6
		C672.6,215.4,673,217.3,674,217.8z"/>
	
		<rect x="673.4" y="221.3" transform="matrix(-1 -1.224647e-16 1.224647e-16 -1 1350.8159 444.2918)" class="st1" width="4" height="1.7"/>
	<path class="st3" d="M674,230.4c0.9,0.8,2.8,0.4,3.4-0.6c0.8-0.9,0.4-2.8-0.6-3.4c-0.9-0.8-2.8-0.4-3.4,0.6
		C672.6,227.9,673,229.8,674,230.4z"/>
	
		<rect x="673.4" y="233.9" transform="matrix(-1 -1.224647e-16 1.224647e-16 -1 1350.8159 469.4486)" class="st1" width="4" height="1.7"/>
</g>
<g>
	<rect x="680.4" y="210.3" class="st1" width="9.7" height="68"/>
	<path class="st3" d="M686.6,270.7c-0.9-0.8-2.8-0.4-3.4,0.6c-0.8,0.9-0.4,2.8,0.6,3.4c0.9,0.8,2.8,0.4,3.4-0.6
		C688.1,273.2,687.7,271.3,686.6,270.7z"/>
	<rect x="683.2" y="265.6" class="st1" width="4" height="1.7"/>
	<path class="st3" d="M686.6,258.2c-0.9-0.8-2.8-0.4-3.4,0.6c-0.8,0.9-0.4,2.8,0.6,3.4c0.9,0.8,2.8,0.4,3.4-0.6
		C688.1,260.6,687.7,258.7,686.6,258.2z"/>
	<rect x="683.2" y="253" class="st1" width="4" height="1.7"/>
	<path class="st3" d="M683.9,217.8c0.9,0.8,2.8,0.4,3.4-0.6c0.8-0.9,0.4-2.8-0.6-3.4c-0.9-0.8-2.8-0.4-3.4,0.6
		C682.4,215.4,682.8,217.3,683.9,217.8z"/>
	
		<rect x="683.2" y="221.3" transform="matrix(-1 -1.224647e-16 1.224647e-16 -1 1370.4941 444.2918)" class="st1" width="4" height="1.7"/>
	<path class="st3" d="M683.9,230.4c0.9,0.8,2.8,0.4,3.4-0.6c0.8-0.9,0.4-2.8-0.6-3.4c-0.9-0.8-2.8-0.4-3.4,0.6
		C682.4,227.9,682.8,229.8,683.9,230.4z"/>
	
		<rect x="683.2" y="233.9" transform="matrix(-1 -1.224647e-16 1.224647e-16 -1 1370.4941 469.4486)" class="st1" width="4" height="1.7"/>
</g>
<g>
	<rect x="690.2" y="210.3" class="st6" width="9.7" height="68"/>
	<path class="st6" d="M696.5,270.7c-0.9-0.8-2.8-0.4-3.4,0.6c-0.8,0.9-0.4,2.8,0.6,3.4c0.9,0.8,2.8,0.4,3.4-0.6
		C697.9,273.2,697.5,271.3,696.5,270.7z"/>
	<rect x="693.1" y="265.6" class="st6" width="4" height="1.7"/>
	<path class="st6" d="M696.5,258.2c-0.9-0.8-2.8-0.4-3.4,0.6c-0.8,0.9-0.4,2.8,0.6,3.4c0.9,0.8,2.8,0.4,3.4-0.6
		C697.9,260.6,697.5,258.7,696.5,258.2z"/>
	<rect x="693.1" y="253" class="st6" width="4" height="1.7"/>
	<path class="st6" d="M693.7,217.8c0.9,0.8,2.8,0.4,3.4-0.6c0.8-0.9,0.4-2.8-0.6-3.4c-0.9-0.8-2.8-0.4-3.4,0.6
		C692.3,215.4,692.6,217.3,693.7,217.8z"/>
	
		<rect x="693.1" y="221.3" transform="matrix(-1 -1.224647e-16 1.224647e-16 -1 1390.1724 444.2918)" class="st6" width="4" height="1.7"/>
	<path class="st6" d="M693.7,230.4c0.9,0.8,2.8,0.4,3.4-0.6c0.8-0.9,0.4-2.8-0.6-3.4c-0.9-0.8-2.8-0.4-3.4,0.6
		C692.3,227.9,692.6,229.8,693.7,230.4z"/>
	
		<rect x="693.1" y="233.9" transform="matrix(-1 -1.224647e-16 1.224647e-16 -1 1390.1724 469.4486)" class="st6" width="4" height="1.7"/>
</g>
<g>
	<rect x="700.1" y="210.3" class="st1" width="9.7" height="68"/>
	<path class="st3" d="M706.3,270.7c-0.9-0.8-2.8-0.4-3.4,0.6c-0.8,0.9-0.4,2.8,0.6,3.4c0.9,0.8,2.8,0.4,3.4-0.6
		C707.7,273.2,707.4,271.3,706.3,270.7z"/>
	<rect x="702.9" y="265.6" class="st1" width="4" height="1.7"/>
	<path class="st3" d="M706.3,258.2c-0.9-0.8-2.8-0.4-3.4,0.6c-0.8,0.9-0.4,2.8,0.6,3.4c0.9,0.8,2.8,0.4,3.4-0.6
		C707.7,260.6,707.4,258.7,706.3,258.2z"/>
	<rect x="702.9" y="253" class="st1" width="4" height="1.7"/>
	<path class="st3" d="M703.5,217.8c0.9,0.8,2.8,0.4,3.4-0.6c0.8-0.9,0.4-2.8-0.6-3.4c-0.9-0.8-2.8-0.4-3.4,0.6
		C702.1,215.4,702.5,217.3,703.5,217.8z"/>
	
		<rect x="702.9" y="221.3" transform="matrix(-1 -1.224647e-16 1.224647e-16 -1 1409.8506 444.2918)" class="st1" width="4" height="1.7"/>
	<path class="st3" d="M703.5,230.4c0.9,0.8,2.8,0.4,3.4-0.6c0.8-0.9,0.4-2.8-0.6-3.4c-0.9-0.8-2.8-0.4-3.4,0.6
		C702.1,227.9,702.5,229.8,703.5,230.4z"/>
	
		<rect x="702.9" y="233.9" transform="matrix(-1 -1.224647e-16 1.224647e-16 -1 1409.8506 469.4486)" class="st1" width="4" height="1.7"/>
</g>
<g>
	<rect x="220.4" y="210.3" class="st1" width="9.7" height="68"/>
	<path class="st3" d="M226.6,270.7c-0.9-0.8-2.8-0.4-3.4,0.6c-0.8,0.9-0.4,2.8,0.6,3.4c0.9,0.8,2.8,0.4,3.4-0.6
		C228.1,273.2,227.7,271.3,226.6,270.7z"/>
	<rect x="223.2" y="265.6" class="st1" width="4" height="1.7"/>
	<path class="st3" d="M226.6,258.2c-0.9-0.8-2.8-0.4-3.4,0.6c-0.8,0.9-0.4,2.8,0.6,3.4c0.9,0.8,2.8,0.4,3.4-0.6
		C228.1,260.6,227.7,258.7,226.6,258.2z"/>
	<rect x="223.2" y="253" class="st1" width="4" height="1.7"/>
	<path class="st8" d="M223.9,217.8c0.9,0.8,2.8,0.4,3.4-0.6c0.8-0.9,0.4-2.8-0.6-3.4c-0.9-0.8-2.8-0.4-3.4,0.6
		C222.4,215.4,222.8,217.3,223.9,217.8z"/>
	
		<rect x="223.2" y="221.3" transform="matrix(-1 -1.224647e-16 1.224647e-16 -1 450.476 444.2918)" class="st1" width="4" height="1.7"/>
	<path class="st3" d="M223.9,230.4c0.9,0.8,2.8,0.4,3.4-0.6c0.8-0.9,0.4-2.8-0.6-3.4c-0.9-0.8-2.8-0.4-3.4,0.6
		C222.4,227.9,222.8,229.8,223.9,230.4z"/>
	
		<rect x="223.2" y="233.9" transform="matrix(-1 -1.224647e-16 1.224647e-16 -1 450.476 469.4486)" class="st1" width="4" height="1.7"/>
</g>
<g>
	<rect x="549.6" y="210.3" class="st1" width="9.7" height="68"/>
	<path class="st2" d="M555.9,270.7c-0.9-0.8-2.8-0.4-3.4,0.6c-0.8,0.9-0.4,2.8,0.6,3.4c0.9,0.8,2.8,0.4,3.4-0.6
		C557.3,273.2,557,271.3,555.9,270.7z"/>
	<rect x="552.5" y="265.6" class="st1" width="4" height="1.7"/>
	<path class="st2" d="M555.9,258.2c-0.9-0.8-2.8-0.4-3.4,0.6c-0.8,0.9-0.4,2.8,0.6,3.4c0.9,0.8,2.8,0.4,3.4-0.6
		C557.3,260.6,557,258.7,555.9,258.2z"/>
	<rect x="552.5" y="253" class="st1" width="4" height="1.7"/>
	<path class="st2" d="M553.1,217.8c0.9,0.8,2.8,0.4,3.4-0.6c0.8-0.9,0.4-2.8-0.6-3.4c-0.9-0.8-2.8-0.4-3.4,0.6
		C551.7,215.4,552.1,217.3,553.1,217.8z"/>
	
		<rect x="552.5" y="221.3" transform="matrix(-1 -1.224647e-16 1.224647e-16 -1 1109.0062 444.2918)" class="st1" width="4" height="1.7"/>
	<path class="st3" d="M553.1,230.4c0.9,0.8,2.8,0.4,3.4-0.6c0.8-0.9,0.4-2.8-0.6-3.4c-0.9-0.8-2.8-0.4-3.4,0.6
		C551.7,227.9,552.1,229.8,553.1,230.4z"/>
	
		<rect x="552.5" y="233.9" transform="matrix(-1 -1.224647e-16 1.224647e-16 -1 1109.0062 469.4486)" class="st1" width="4" height="1.7"/>
</g>
<g>
	<rect x="559.5" y="210.3" class="st1" width="9.7" height="68"/>
	<path class="st8" d="M565.7,270.7c-0.9-0.8-2.8-0.4-3.4,0.6c-0.8,0.9-0.4,2.8,0.6,3.4c0.9,0.8,2.8,0.4,3.4-0.6
		C567.2,273.2,566.8,271.3,565.7,270.7z"/>
	<rect x="562.3" y="265.6" class="st1" width="4" height="1.7"/>
	<path class="st8" d="M565.7,258.2c-0.9-0.8-2.8-0.4-3.4,0.6c-0.8,0.9-0.4,2.8,0.6,3.4c0.9,0.8,2.8,0.4,3.4-0.6
		C567.2,260.6,566.8,258.7,565.7,258.2z"/>
	<rect x="562.3" y="253" class="st1" width="4" height="1.7"/>
	<path class="st8" d="M563,217.8c0.9,0.8,2.8,0.4,3.4-0.6c0.8-0.9,0.4-2.8-0.6-3.4c-0.9-0.8-2.8-0.4-3.4,0.6
		C561.5,215.4,561.9,217.3,563,217.8z"/>
	
		<rect x="562.3" y="221.3" transform="matrix(-1 -1.224647e-16 1.224647e-16 -1 1128.6844 444.2918)" class="st1" width="4" height="1.7"/>
	<path class="st3" d="M563,230.4c0.9,0.8,2.8,0.4,3.4-0.6c0.8-0.9,0.4-2.8-0.6-3.4c-0.9-0.8-2.8-0.4-3.4,0.6
		C561.5,227.9,561.9,229.8,563,230.4z"/>
	
		<rect x="562.3" y="233.9" transform="matrix(-1 -1.224647e-16 1.224647e-16 -1 1128.6844 469.4486)" class="st1" width="4" height="1.7"/>
</g>
<g>
	<rect x="230.2" y="210.3" class="st12" width="9.7" height="68"/>
	<path class="st13" d="M236.5,270.7c-0.9-0.8-2.8-0.4-3.4,0.6c-0.8,0.9-0.4,2.8,0.6,3.4c0.9,0.8,2.8,0.4,3.4-0.6
		C237.9,273.2,237.5,271.3,236.5,270.7z"/>
	<rect x="233.1" y="265.6" class="st12" width="4" height="1.7"/>
	<path class="st14" d="M236.5,258.2c-0.9-0.8-2.8-0.4-3.4,0.6c-0.8,0.9-0.4,2.8,0.6,3.4c0.9,0.8,2.8,0.4,3.4-0.6
		C237.9,260.6,237.5,258.7,236.5,258.2z"/>
	<rect x="233.1" y="253" class="st12" width="4" height="1.7"/>
	<path class="st13" d="M233.7,217.8c0.9,0.8,2.8,0.4,3.4-0.6c0.8-0.9,0.4-2.8-0.6-3.4c-0.9-0.8-2.8-0.4-3.4,0.6
		C232.3,215.4,232.6,217.3,233.7,217.8z"/>
	
		<rect x="233.1" y="221.3" transform="matrix(-1 -1.224647e-16 1.224647e-16 -1 470.1542 444.2918)" class="st12" width="4" height="1.7"/>
	<path class="st14" d="M233.7,230.4c0.9,0.8,2.8,0.4,3.4-0.6c0.8-0.9,0.4-2.8-0.6-3.4c-0.9-0.8-2.8-0.4-3.4,0.6
		C232.3,227.9,232.6,229.8,233.7,230.4z"/>
	
		<rect x="233.1" y="233.9" transform="matrix(-1 -1.224647e-16 1.224647e-16 -1 470.1542 469.4486)" class="st12" width="4" height="1.7"/>
</g>
<g>
	<rect x="775.6" y="210.3" class="st1" width="9.7" height="68"/>
	<path class="st3" d="M781.9,270.7c-0.9-0.8-2.8-0.4-3.4,0.6c-0.8,0.9-0.4,2.8,0.6,3.4c0.9,0.8,2.8,0.4,3.4-0.6
		C783.3,273.2,782.9,271.3,781.9,270.7z"/>
	<rect x="778.5" y="265.6" class="st1" width="4" height="1.7"/>
	<path class="st3" d="M781.9,258.2c-0.9-0.8-2.8-0.4-3.4,0.6c-0.8,0.9-0.4,2.8,0.6,3.4c0.9,0.8,2.8,0.4,3.4-0.6
		C783.3,260.6,782.9,258.7,781.9,258.2z"/>
	<rect x="778.5" y="253" class="st1" width="4" height="1.7"/>
	<path class="st2" d="M779.1,217.8c0.9,0.8,2.8,0.4,3.4-0.6c0.8-0.9,0.4-2.8-0.6-3.4c-0.9-0.8-2.8-0.4-3.4,0.6
		C777.7,215.4,778,217.3,779.1,217.8z"/>
	
		<rect x="778.5" y="221.3" transform="matrix(-1 -1.224647e-16 1.224647e-16 -1 1560.9951 444.2918)" class="st1" width="4" height="1.7"/>
	<path class="st1" d="M779.1,230.4c0.9,0.8,2.8,0.4,3.4-0.6c0.8-0.9,0.4-2.8-0.6-3.4c-0.9-0.8-2.8-0.4-3.4,0.6
		C777.7,227.9,778,229.8,779.1,230.4z"/>
	
		<rect x="778.5" y="233.9" transform="matrix(-1 -1.224647e-16 1.224647e-16 -1 1560.9951 469.4486)" class="st1" width="4" height="1.7"/>
</g>
<g>
	<rect x="785.5" y="210.3" class="st6" width="9.7" height="68"/>
	<path class="st6" d="M791.7,270.7c-0.9-0.8-2.8-0.4-3.4,0.6c-0.8,0.9-0.4,2.8,0.6,3.4c0.9,0.8,2.8,0.4,3.4-0.6
		C793.2,273.2,792.8,271.3,791.7,270.7z"/>
	<rect x="788.3" y="265.6" class="st6" width="4" height="1.7"/>
	<path class="st6" d="M791.7,258.2c-0.9-0.8-2.8-0.4-3.4,0.6c-0.8,0.9-0.4,2.8,0.6,3.4c0.9,0.8,2.8,0.4,3.4-0.6
		C793.2,260.6,792.8,258.7,791.7,258.2z"/>
	<rect x="788.3" y="253" class="st6" width="4" height="1.7"/>
	<path class="st7" d="M789,217.8c0.9,0.8,2.8,0.4,3.4-0.6c0.8-0.9,0.4-2.8-0.6-3.4c-0.9-0.8-2.8-0.4-3.4,0.6
		C787.5,215.4,787.9,217.3,789,217.8z"/>
	
		<rect x="788.3" y="221.3" transform="matrix(-1 -1.224647e-16 1.224647e-16 -1 1580.6733 444.2918)" class="st6" width="4" height="1.7"/>
	<path class="st6" d="M789,230.4c0.9,0.8,2.8,0.4,3.4-0.6c0.8-0.9,0.4-2.8-0.6-3.4c-0.9-0.8-2.8-0.4-3.4,0.6
		C787.5,227.9,787.9,229.8,789,230.4z"/>
	
		<rect x="788.3" y="233.9" transform="matrix(-1 -1.224647e-16 1.224647e-16 -1 1580.6733 469.4486)" class="st6" width="4" height="1.7"/>
</g>
<g>
	<rect x="795.3" y="210.3" class="st14" width="9.7" height="68"/>
	<path class="st14" d="M801.6,270.7c-0.9-0.8-2.8-0.4-3.4,0.6c-0.8,0.9-0.4,2.8,0.6,3.4c0.9,0.8,2.8,0.4,3.4-0.6
		C803,273.2,802.6,271.3,801.6,270.7z"/>
	<rect x="798.2" y="265.6" class="st14" width="4" height="1.7"/>
	<path class="st14" d="M801.6,258.2c-0.9-0.8-2.8-0.4-3.4,0.6c-0.8,0.9-0.4,2.8,0.6,3.4c0.9,0.8,2.8,0.4,3.4-0.6
		C803,260.6,802.6,258.7,801.6,258.2z"/>
	<rect x="798.2" y="253" class="st14" width="4" height="1.7"/>
	<path class="st14" d="M798.8,217.8c0.9,0.8,2.8,0.4,3.4-0.6c0.8-0.9,0.4-2.8-0.6-3.4c-0.9-0.8-2.8-0.4-3.4,0.6
		C797.4,215.4,797.7,217.3,798.8,217.8z"/>
	
		<rect x="798.2" y="221.3" transform="matrix(-1 -1.224647e-16 1.224647e-16 -1 1600.3516 444.2918)" class="st14" width="4" height="1.7"/>
	<path class="st14" d="M798.8,230.4c0.9,0.8,2.8,0.4,3.4-0.6c0.8-0.9,0.4-2.8-0.6-3.4c-0.9-0.8-2.8-0.4-3.4,0.6
		C797.4,227.9,797.7,229.8,798.8,230.4z"/>
	
		<rect x="798.2" y="233.9" transform="matrix(-1 -1.224647e-16 1.224647e-16 -1 1600.3516 469.4486)" class="st14" width="4" height="1.7"/>
</g>
<g>
	<rect x="805.2" y="210.3" class="st12" width="9.7" height="68"/>
	<path class="st14" d="M811.4,270.7c-0.9-0.8-2.8-0.4-3.4,0.6c-0.8,0.9-0.4,2.8,0.6,3.4c0.9,0.8,2.8,0.4,3.4-0.6
		C812.8,273.2,812.5,271.3,811.4,270.7z"/>
	<rect x="808" y="265.6" class="st12" width="4" height="1.7"/>
	<path class="st14" d="M811.4,258.2c-0.9-0.8-2.8-0.4-3.4,0.6c-0.8,0.9-0.4,2.8,0.6,3.4c0.9,0.8,2.8,0.4,3.4-0.6
		C812.8,260.6,812.5,258.7,811.4,258.2z"/>
	<rect x="808" y="253" class="st12" width="4" height="1.7"/>
	<path class="st14" d="M808.6,217.8c0.9,0.8,2.8,0.4,3.4-0.6c0.8-0.9,0.4-2.8-0.6-3.4c-0.9-0.8-2.8-0.4-3.4,0.6
		C807.2,215.4,807.6,217.3,808.6,217.8z"/>
	
		<rect x="808" y="221.3" transform="matrix(-1 -1.224647e-16 1.224647e-16 -1 1620.0298 444.2918)" class="st12" width="4" height="1.7"/>
	<path class="st14" d="M808.6,230.4c0.9,0.8,2.8,0.4,3.4-0.6c0.8-0.9,0.4-2.8-0.6-3.4c-0.9-0.8-2.8-0.4-3.4,0.6
		C807.2,227.9,807.6,229.8,808.6,230.4z"/>
	
		<rect x="808" y="233.9" transform="matrix(-1 -1.224647e-16 1.224647e-16 -1 1620.0298 469.4486)" class="st12" width="4" height="1.7"/>
</g>
<g>
	<rect x="241.2" y="236.9" class="st1" width="38.1" height="23.4"/>
	<path class="st8" d="M273.8,276.8c-1.1-0.9-3.2-0.5-3.9,0.7c-0.9,1.1-0.5,3.2,0.7,3.9c1.1,0.9,3.2,0.5,3.9-0.7
		C275.4,279.7,275,277.5,273.8,276.8z"/>
	<path class="st8" d="M273.8,207.9c-1.1-0.9-3.2-0.5-3.9,0.7c-0.9,1.1-0.5,3.2,0.7,3.9c1.1,0.9,3.2,0.5,3.9-0.7
		C275.4,210.8,275,208.6,273.8,207.9z"/>
	<path class="st2" d="M247.4,276.8c1.1-0.9,3.2-0.5,3.9,0.7c0.9,1.1,0.5,3.2-0.7,3.9c-1.1,0.9-3.2,0.5-3.9-0.7
		C245.8,279.7,246.2,277.5,247.4,276.8z"/>
	<path class="st2" d="M247.4,207.9c1.1-0.9,3.2-0.5,3.9,0.7c0.9,1.1,0.5,3.2-0.7,3.9c-1.1,0.9-3.2,0.5-3.9-0.7
		C245.8,210.8,246.2,208.6,247.4,207.9z"/>
	<rect x="241.2" y="220.8" class="st1" width="38.1" height="45.4"/>
	<rect x="241.2" y="201.8" class="st1" width="38.1" height="85.1"/>
	<polygon class="st1" points="264.3,247.2 261.6,247.2 261.6,252.2 276.7,252.2 276.7,247.2 274.1,247.2 274.1,239.7 264.3,239.7 	
		"/>
	<polygon class="st1" points="246.4,247.2 243.8,247.2 243.8,252.2 258.9,252.2 258.9,247.2 256.2,247.2 256.2,239.7 246.4,239.7 	
		"/>
	<g>
		<path d="M244.6,273.6v-3.2h0.3v2.9h1.6v0.3H244.6z"/>
		<path d="M248.5,273.3c-0.2,0.2-0.4,0.2-0.6,0.2c-0.3,0-0.5-0.1-0.6-0.2c-0.2-0.2-0.3-0.5-0.3-0.9s0-0.6,0.3-0.9
			c0.2-0.2,0.4-0.2,0.6-0.2c0.3,0,0.5,0.1,0.6,0.2c0.2,0.2,0.3,0.5,0.3,0.9S248.8,273.1,248.5,273.3z M248.3,271.8
			c-0.1-0.1-0.2-0.2-0.4-0.2s-0.3,0.1-0.4,0.2c-0.2,0.2-0.2,0.4-0.2,0.7s0,0.5,0.2,0.7c0.1,0.1,0.2,0.2,0.4,0.2s0.3-0.1,0.4-0.2
			c0.2-0.2,0.2-0.4,0.2-0.7S248.5,271.9,248.3,271.8z"/>
		<path d="M250.9,273.6v-0.2c-0.2,0.2-0.4,0.3-0.6,0.3c-0.2,0-0.4-0.1-0.6-0.2c-0.2-0.2-0.2-0.4-0.2-0.6v-1.4h0.3v1.4
			c0,0.4,0.2,0.6,0.5,0.6s0.5-0.2,0.5-0.6v-1.4h0.3v2.2H250.9z"/>
		<path d="M252.6,273.6c-0.4,0-0.6-0.3-0.6-0.6v-1.4h-0.3v-0.2h0.3v-0.7h0.3v0.7h0.5v0.2h-0.5v1.3c0,0.2,0.1,0.3,0.3,0.3h0.2v0.3
			H252.6z"/>
	</g>
	<g>
		<path d="M269.8,273.6l-1.7-2.6v2.6h-0.3v-3.2h0.3l1.7,2.5v-2.5h0.3v3.2H269.8z"/>
		<path d="M272.4,273.3c-0.2,0.2-0.4,0.2-0.6,0.2c-0.3,0-0.5-0.1-0.6-0.2c-0.2-0.2-0.3-0.5-0.3-0.9s0-0.6,0.3-0.9
			c0.2-0.2,0.4-0.2,0.6-0.2c0.3,0,0.5,0.1,0.6,0.2c0.2,0.2,0.3,0.5,0.3,0.9S272.6,273.1,272.4,273.3z M272.1,271.8
			c-0.1-0.1-0.2-0.2-0.4-0.2s-0.3,0.1-0.4,0.2c-0.2,0.2-0.2,0.4-0.2,0.7s0,0.5,0.2,0.7c0.1,0.1,0.2,0.2,0.4,0.2s0.3-0.1,0.4-0.2
			c0.2-0.2,0.2-0.4,0.2-0.7S272.3,271.9,272.1,271.8z"/>
		<path d="M274.7,273.6v-0.2c-0.2,0.2-0.4,0.3-0.6,0.3c-0.2,0-0.4-0.1-0.6-0.2c-0.2-0.2-0.2-0.4-0.2-0.6v-1.4h0.3v1.4
			c0,0.4,0.2,0.6,0.5,0.6s0.5-0.2,0.5-0.6v-1.4h0.3v2.2H274.7z"/>
		<path d="M276.5,273.6c-0.4,0-0.6-0.3-0.6-0.6v-1.4h-0.3v-0.2h0.3v-0.7h0.3v0.7h0.5v0.2h-0.5v1.3c0,0.2,0.1,0.3,0.3,0.3h0.2v0.3
			H276.5z"/>
	</g>
	<g>
		<path d="M246,219.1v-3.2h0.3v2.9h1.6v0.3H246z"/>
		<path d="M248.5,216.3v-0.4h0.4v0.4H248.5z M248.5,219.1v-2.2h0.3v2.2H248.5z"/>
		<path d="M251,219.1v-1.4c0-0.4-0.2-0.6-0.5-0.6s-0.5,0.2-0.5,0.6v1.4h-0.3v-2.2h0.3v0.2c0.2-0.2,0.4-0.3,0.6-0.3
			c0.2,0,0.4,0.1,0.6,0.2c0.2,0.2,0.2,0.4,0.2,0.6v1.4H251z"/>
	</g>
	<g>
		<path d="M271.1,219.1l-1.7-2.6v2.6h-0.3v-3.2h0.3l1.7,2.5v-2.5h0.3v3.2H271.1z"/>
		<path d="M272.3,216.3v-0.4h0.4v0.4H272.3z M272.3,219.1v-2.2h0.3v2.2H272.3z"/>
		<path d="M274.9,219.1v-1.4c0-0.4-0.2-0.6-0.5-0.6s-0.5,0.2-0.5,0.6v1.4h-0.3v-2.2h0.3v0.2c0.2-0.2,0.4-0.3,0.6-0.3
			c0.2,0,0.4,0.1,0.6,0.2c0.2,0.2,0.2,0.4,0.2,0.6v1.4H274.9z"/>
	</g>
</g>
<g>
	<rect x="280" y="236.9" class="st1" width="38.1" height="23.4"/>
	<path class="st8" d="M312.7,276.8c-1.1-0.9-3.2-0.5-3.9,0.7c-0.9,1.1-0.5,3.2,0.7,3.9c1.1,0.9,3.2,0.5,3.9-0.7
		C314.3,279.7,313.9,277.5,312.7,276.8z"/>
	<path class="st8" d="M312.7,207.9c-1.1-0.9-3.2-0.5-3.9,0.7c-0.9,1.1-0.5,3.2,0.7,3.9c1.1,0.9,3.2,0.5,3.9-0.7
		C314.3,210.8,313.9,208.6,312.7,207.9z"/>
	<path class="st2" d="M286.3,276.8c1.1-0.9,3.2-0.5,3.9,0.7c0.9,1.1,0.5,3.2-0.7,3.9c-1.1,0.9-3.2,0.5-3.9-0.7
		C284.7,279.7,285.1,277.5,286.3,276.8z"/>
	<path class="st2" d="M286.3,207.9c1.1-0.9,3.2-0.5,3.9,0.7c0.9,1.1,0.5,3.2-0.7,3.9c-1.1,0.9-3.2,0.5-3.9-0.7
		C284.7,210.8,285.1,208.6,286.3,207.9z"/>
	<rect x="280" y="220.8" class="st1" width="38.1" height="45.4"/>
	<rect x="280" y="201.8" class="st1" width="38.1" height="85.1"/>
	<polygon class="st1" points="303.1,247.2 300.5,247.2 300.5,252.2 315.6,252.2 315.6,247.2 313,247.2 313,239.7 303.1,239.7 	"/>
	<polygon class="st1" points="285.3,247.2 282.6,247.2 282.6,252.2 297.7,252.2 297.7,247.2 295.1,247.2 295.1,239.7 285.3,239.7 	
		"/>
	<g>
		<path d="M283.5,273.6v-3.2h0.3v2.9h1.6v0.3H283.5z"/>
		<path d="M287.4,273.3c-0.2,0.2-0.4,0.2-0.6,0.2c-0.3,0-0.5-0.1-0.6-0.2c-0.2-0.2-0.3-0.5-0.3-0.9s0-0.6,0.3-0.9
			c0.2-0.2,0.4-0.2,0.6-0.2c0.3,0,0.5,0.1,0.6,0.2c0.2,0.2,0.3,0.5,0.3,0.9S287.6,273.1,287.4,273.3z M287.2,271.8
			c-0.1-0.1-0.2-0.2-0.4-0.2s-0.3,0.1-0.4,0.2c-0.2,0.2-0.2,0.4-0.2,0.7s0,0.5,0.2,0.7c0.1,0.1,0.2,0.2,0.4,0.2s0.3-0.1,0.4-0.2
			c0.2-0.2,0.2-0.4,0.2-0.7S287.3,271.9,287.2,271.8z"/>
		<path d="M289.8,273.6v-0.2c-0.2,0.2-0.4,0.3-0.6,0.3c-0.2,0-0.4-0.1-0.6-0.2c-0.2-0.2-0.2-0.4-0.2-0.6v-1.4h0.3v1.4
			c0,0.4,0.2,0.6,0.5,0.6s0.5-0.2,0.5-0.6v-1.4h0.3v2.2H289.8z"/>
		<path d="M291.5,273.6c-0.4,0-0.6-0.3-0.6-0.6v-1.4h-0.3v-0.2h0.3v-0.7h0.3v0.7h0.5v0.2h-0.5v1.3c0,0.2,0.1,0.3,0.3,0.3h0.2v0.3
			H291.5z"/>
	</g>
	<g>
		<path d="M308.6,273.6l-1.7-2.6v2.6h-0.3v-3.2h0.3l1.7,2.5v-2.5h0.3v3.2H308.6z"/>
		<path d="M311.2,273.3c-0.2,0.2-0.4,0.2-0.6,0.2c-0.3,0-0.5-0.1-0.6-0.2c-0.2-0.2-0.3-0.5-0.3-0.9s0-0.6,0.3-0.9
			c0.2-0.2,0.4-0.2,0.6-0.2c0.3,0,0.5,0.1,0.6,0.2c0.2,0.2,0.3,0.5,0.3,0.9S311.4,273.1,311.2,273.3z M311,271.8
			c-0.1-0.1-0.2-0.2-0.4-0.2s-0.3,0.1-0.4,0.2c-0.2,0.2-0.2,0.4-0.2,0.7s0,0.5,0.2,0.7c0.1,0.1,0.2,0.2,0.4,0.2s0.3-0.1,0.4-0.2
			c0.2-0.2,0.2-0.4,0.2-0.7S311.2,271.9,311,271.8z"/>
		<path d="M313.6,273.6v-0.2c-0.2,0.2-0.4,0.3-0.6,0.3c-0.2,0-0.4-0.1-0.6-0.2c-0.2-0.2-0.2-0.4-0.2-0.6v-1.4h0.3v1.4
			c0,0.4,0.2,0.6,0.5,0.6s0.5-0.2,0.5-0.6v-1.4h0.3v2.2H313.6z"/>
		<path d="M315.3,273.6c-0.4,0-0.6-0.3-0.6-0.6v-1.4h-0.3v-0.2h0.3v-0.7h0.3v0.7h0.5v0.2h-0.5v1.3c0,0.2,0.1,0.3,0.3,0.3h0.2v0.3
			H315.3z"/>
	</g>
	<g>
		<path d="M284.8,219.1v-3.2h0.3v2.9h1.6v0.3H284.8z"/>
		<path d="M287.3,216.3v-0.4h0.4v0.4H287.3z M287.4,219.1v-2.2h0.3v2.2H287.4z"/>
		<path d="M289.9,219.1v-1.4c0-0.4-0.2-0.6-0.5-0.6s-0.5,0.2-0.5,0.6v1.4h-0.3v-2.2h0.3v0.2c0.2-0.2,0.4-0.3,0.6-0.3
			c0.2,0,0.4,0.1,0.6,0.2c0.2,0.2,0.2,0.4,0.2,0.6v1.4H289.9z"/>
	</g>
	<g>
		<path d="M310,219.1l-1.7-2.6v2.6H308v-3.2h0.3l1.7,2.5v-2.5h0.3v3.2H310z"/>
		<path d="M311.2,216.3v-0.4h0.4v0.4H311.2z M311.2,219.1v-2.2h0.3v2.2H311.2z"/>
		<path d="M313.7,219.1v-1.4c0-0.4-0.2-0.6-0.5-0.6s-0.5,0.2-0.5,0.6v1.4h-0.3v-2.2h0.3v0.2c0.2-0.2,0.4-0.3,0.6-0.3
			c0.2,0,0.4,0.1,0.6,0.2c0.2,0.2,0.2,0.4,0.2,0.6v1.4H313.7z"/>
	</g>
</g>
<g>
	<rect x="318.9" y="236.9" class="st1" width="38.1" height="23.4"/>
	<path class="st8" d="M351.5,276.8c-1.1-0.9-3.2-0.5-3.9,0.7c-0.9,1.1-0.5,3.2,0.7,3.9c1.1,0.9,3.2,0.5,3.9-0.7
		C353.1,279.7,352.7,277.5,351.5,276.8z"/>
	<path class="st8" d="M351.5,207.9c-1.1-0.9-3.2-0.5-3.9,0.7c-0.9,1.1-0.5,3.2,0.7,3.9c1.1,0.9,3.2,0.5,3.9-0.7
		C353.1,210.8,352.7,208.6,351.5,207.9z"/>
	<path class="st2" d="M325.2,276.8c1.1-0.9,3.2-0.5,3.9,0.7c0.9,1.1,0.5,3.2-0.7,3.9c-1.1,0.9-3.2,0.5-3.9-0.7
		C323.5,279.7,323.9,277.5,325.2,276.8z"/>
	<path class="st2" d="M325.2,207.9c1.1-0.9,3.2-0.5,3.9,0.7c0.9,1.1,0.5,3.2-0.7,3.9c-1.1,0.9-3.2,0.5-3.9-0.7
		C323.5,210.8,323.9,208.6,325.2,207.9z"/>
	<rect x="318.9" y="220.8" class="st1" width="38.1" height="45.4"/>
	<rect x="318.9" y="201.8" class="st1" width="38.1" height="85.1"/>
	<polygon class="st1" points="342,247.2 339.3,247.2 339.3,252.2 354.5,252.2 354.5,247.2 351.8,247.2 351.8,239.7 342,239.7 	"/>
	<polygon class="st1" points="324.1,247.2 321.5,247.2 321.5,252.2 336.6,252.2 336.6,247.2 333.9,247.2 333.9,239.7 324.1,239.7 	
		"/>
	<g>
		<path d="M322.3,273.6v-3.2h0.3v2.9h1.6v0.3H322.3z"/>
		<path d="M326.3,273.3c-0.2,0.2-0.4,0.2-0.6,0.2c-0.3,0-0.5-0.1-0.6-0.2c-0.2-0.2-0.3-0.5-0.3-0.9s0-0.6,0.3-0.9
			c0.2-0.2,0.4-0.2,0.6-0.2c0.3,0,0.5,0.1,0.6,0.2c0.2,0.2,0.3,0.5,0.3,0.9S326.5,273.1,326.3,273.3z M326,271.8
			c-0.1-0.1-0.2-0.2-0.4-0.2s-0.3,0.1-0.4,0.2c-0.2,0.2-0.2,0.4-0.2,0.7s0,0.5,0.2,0.7c0.1,0.1,0.2,0.2,0.4,0.2s0.3-0.1,0.4-0.2
			c0.2-0.2,0.2-0.4,0.2-0.7S326.2,271.9,326,271.8z"/>
		<path d="M328.6,273.6v-0.2c-0.2,0.2-0.4,0.3-0.6,0.3c-0.2,0-0.4-0.1-0.6-0.2c-0.2-0.2-0.2-0.4-0.2-0.6v-1.4h0.3v1.4
			c0,0.4,0.2,0.6,0.5,0.6s0.5-0.2,0.5-0.6v-1.4h0.3v2.2H328.6z"/>
		<path d="M330.3,273.6c-0.4,0-0.6-0.3-0.6-0.6v-1.4h-0.3v-0.2h0.3v-0.7h0.3v0.7h0.5v0.2h-0.5v1.3c0,0.2,0.1,0.3,0.3,0.3h0.2v0.3
			H330.3z"/>
	</g>
	<g>
		<path d="M347.5,273.6l-1.7-2.6v2.6h-0.3v-3.2h0.3l1.7,2.5v-2.5h0.3v3.2H347.5z"/>
		<path d="M350.1,273.3c-0.2,0.2-0.4,0.2-0.6,0.2c-0.3,0-0.5-0.1-0.6-0.2c-0.2-0.2-0.3-0.5-0.3-0.9s0-0.6,0.3-0.9
			c0.2-0.2,0.4-0.2,0.6-0.2c0.3,0,0.5,0.1,0.6,0.2c0.2,0.2,0.3,0.5,0.3,0.9S350.3,273.1,350.1,273.3z M349.9,271.8
			c-0.1-0.1-0.2-0.2-0.4-0.2s-0.3,0.1-0.4,0.2c-0.2,0.2-0.2,0.4-0.2,0.7s0,0.5,0.2,0.7c0.1,0.1,0.2,0.2,0.4,0.2s0.3-0.1,0.4-0.2
			c0.2-0.2,0.2-0.4,0.2-0.7S350,271.9,349.9,271.8z"/>
		<path d="M352.4,273.6v-0.2c-0.2,0.2-0.4,0.3-0.6,0.3c-0.2,0-0.4-0.1-0.6-0.2c-0.2-0.2-0.2-0.4-0.2-0.6v-1.4h0.3v1.4
			c0,0.4,0.2,0.6,0.5,0.6s0.5-0.2,0.5-0.6v-1.4h0.3v2.2H352.4z"/>
		<path d="M354.2,273.6c-0.4,0-0.6-0.3-0.6-0.6v-1.4h-0.3v-0.2h0.3v-0.7h0.3v0.7h0.5v0.2h-0.5v1.3c0,0.2,0.1,0.3,0.3,0.3h0.2v0.3
			H354.2z"/>
	</g>
	<g>
		<path d="M323.7,219.1v-3.2h0.3v2.9h1.6v0.3H323.7z"/>
		<path d="M326.2,216.3v-0.4h0.4v0.4H326.2z M326.2,219.1v-2.2h0.3v2.2H326.2z"/>
		<path d="M328.7,219.1v-1.4c0-0.4-0.2-0.6-0.5-0.6s-0.5,0.2-0.5,0.6v1.4h-0.3v-2.2h0.3v0.2c0.2-0.2,0.4-0.3,0.6-0.3
			c0.2,0,0.4,0.1,0.6,0.2c0.2,0.2,0.2,0.4,0.2,0.6v1.4H328.7z"/>
	</g>
	<g>
		<path d="M348.8,219.1l-1.7-2.6v2.6h-0.3v-3.2h0.3l1.7,2.5v-2.5h0.3v3.2H348.8z"/>
		<path d="M350,216.3v-0.4h0.4v0.4H350z M350,219.1v-2.2h0.3v2.2H350z"/>
		<path d="M352.6,219.1v-1.4c0-0.4-0.2-0.6-0.5-0.6s-0.5,0.2-0.5,0.6v1.4h-0.3v-2.2h0.3v0.2c0.2-0.2,0.4-0.3,0.6-0.3
			c0.2,0,0.4,0.1,0.6,0.2c0.2,0.2,0.2,0.4,0.2,0.6v1.4H352.6z"/>
	</g>
</g>
<g>
	<rect x="361.7" y="236.9" class="st1" width="38.1" height="23.4"/>
	<path class="st8" d="M394.4,276.8c-1.1-0.9-3.2-0.5-3.9,0.7c-0.9,1.1-0.5,3.2,0.7,3.9c1.1,0.9,3.2,0.5,3.9-0.7
		C396,279.7,395.6,277.5,394.4,276.8z"/>
	<path class="st8" d="M394.4,207.9c-1.1-0.9-3.2-0.5-3.9,0.7c-0.9,1.1-0.5,3.2,0.7,3.9c1.1,0.9,3.2,0.5,3.9-0.7
		C396,210.8,395.6,208.6,394.4,207.9z"/>
	<path class="st2" d="M368,276.8c1.1-0.9,3.2-0.5,3.9,0.7c0.9,1.1,0.5,3.2-0.7,3.9c-1.1,0.9-3.2,0.5-3.9-0.7
		C366.4,279.7,366.8,277.5,368,276.8z"/>
	<path class="st2" d="M368,207.9c1.1-0.9,3.2-0.5,3.9,0.7c0.9,1.1,0.5,3.2-0.7,3.9c-1.1,0.9-3.2,0.5-3.9-0.7
		C366.4,210.8,366.8,208.6,368,207.9z"/>
	<rect x="361.7" y="220.8" class="st1" width="38.1" height="45.4"/>
	<rect x="361.7" y="201.8" class="st1" width="38.1" height="85.1"/>
	<polygon class="st1" points="384.8,247.2 382.2,247.2 382.2,252.2 397.3,252.2 397.3,247.2 394.7,247.2 394.7,239.7 384.8,239.7 	
		"/>
	<g>
		<path d="M365.2,273.6v-3.2h0.3v2.9h1.6v0.3H365.2z"/>
		<path d="M369.1,273.3c-0.2,0.2-0.4,0.2-0.6,0.2c-0.3,0-0.5-0.1-0.6-0.2c-0.2-0.2-0.3-0.5-0.3-0.9s0-0.6,0.3-0.9
			c0.2-0.2,0.4-0.2,0.6-0.2c0.3,0,0.5,0.1,0.6,0.2c0.2,0.2,0.3,0.5,0.3,0.9S369.3,273.1,369.1,273.3z M368.9,271.8
			c-0.1-0.1-0.2-0.2-0.4-0.2s-0.3,0.1-0.4,0.2c-0.2,0.2-0.2,0.4-0.2,0.7s0,0.5,0.2,0.7c0.1,0.1,0.2,0.2,0.4,0.2s0.3-0.1,0.4-0.2
			c0.2-0.2,0.2-0.4,0.2-0.7S369,271.9,368.9,271.8z"/>
		<path d="M371.5,273.6v-0.2c-0.2,0.2-0.4,0.3-0.6,0.3c-0.2,0-0.4-0.1-0.6-0.2c-0.2-0.2-0.2-0.4-0.2-0.6v-1.4h0.3v1.4
			c0,0.4,0.2,0.6,0.5,0.6s0.5-0.2,0.5-0.6v-1.4h0.3v2.2H371.5z"/>
		<path d="M373.2,273.6c-0.4,0-0.6-0.3-0.6-0.6v-1.4h-0.3v-0.2h0.3v-0.7h0.3v0.7h0.5v0.2H373v1.3c0,0.2,0.1,0.3,0.3,0.3h0.2v0.3
			H373.2z"/>
	</g>
	<g>
		<path d="M390.3,273.6l-1.7-2.6v2.6h-0.3v-3.2h0.3l1.7,2.5v-2.5h0.3v3.2H390.3z"/>
		<path d="M392.9,273.3c-0.2,0.2-0.4,0.2-0.6,0.2c-0.3,0-0.5-0.1-0.6-0.2c-0.2-0.2-0.3-0.5-0.3-0.9s0-0.6,0.3-0.9
			c0.2-0.2,0.4-0.2,0.6-0.2c0.3,0,0.5,0.1,0.6,0.2c0.2,0.2,0.3,0.5,0.3,0.9S393.2,273.1,392.9,273.3z M392.7,271.8
			c-0.1-0.1-0.2-0.2-0.4-0.2s-0.3,0.1-0.4,0.2c-0.2,0.2-0.2,0.4-0.2,0.7s0,0.5,0.2,0.7c0.1,0.1,0.2,0.2,0.4,0.2s0.3-0.1,0.4-0.2
			c0.2-0.2,0.2-0.4,0.2-0.7S392.9,271.9,392.7,271.8z"/>
		<path d="M395.3,273.6v-0.2c-0.2,0.2-0.4,0.3-0.6,0.3c-0.2,0-0.4-0.1-0.6-0.2c-0.2-0.2-0.2-0.4-0.2-0.6v-1.4h0.3v1.4
			c0,0.4,0.2,0.6,0.5,0.6s0.5-0.2,0.5-0.6v-1.4h0.3v2.2H395.3z"/>
		<path d="M397,273.6c-0.4,0-0.6-0.3-0.6-0.6v-1.4h-0.3v-0.2h0.3v-0.7h0.3v0.7h0.5v0.2h-0.5v1.3c0,0.2,0.1,0.3,0.3,0.3h0.2v0.3H397z
			"/>
	</g>
	<g>
		<path d="M366.6,219.1v-3.2h0.3v2.9h1.6v0.3H366.6z"/>
		<path d="M369,216.3v-0.4h0.4v0.4H369z M369.1,219.1v-2.2h0.3v2.2H369.1z"/>
		<path d="M371.6,219.1v-1.4c0-0.4-0.2-0.6-0.5-0.6s-0.5,0.2-0.5,0.6v1.4h-0.3v-2.2h0.3v0.2c0.2-0.2,0.4-0.3,0.6-0.3
			c0.2,0,0.4,0.1,0.6,0.2c0.2,0.2,0.2,0.4,0.2,0.6v1.4H371.6z"/>
	</g>
	<g>
		<path d="M391.7,219.1l-1.7-2.6v2.6h-0.3v-3.2h0.3l1.7,2.5v-2.5h0.3v3.2H391.7z"/>
		<path d="M392.9,216.3v-0.4h0.4v0.4H392.9z M392.9,219.1v-2.2h0.3v2.2H392.9z"/>
		<path d="M395.4,219.1v-1.4c0-0.4-0.2-0.6-0.5-0.6s-0.5,0.2-0.5,0.6v1.4H394v-2.2h0.3v0.2c0.2-0.2,0.4-0.3,0.6-0.3
			c0.2,0,0.4,0.1,0.6,0.2c0.2,0.2,0.2,0.4,0.2,0.6v1.4H395.4z"/>
	</g>
</g>
<g>
	<rect x="400.6" y="236.9" class="st1" width="38.1" height="23.4"/>
	<path class="st8" d="M433.2,276.8c-1.1-0.9-3.2-0.5-3.9,0.7c-0.9,1.1-0.5,3.2,0.7,3.9c1.1,0.9,3.2,0.5,3.9-0.7
		C434.9,279.7,434.4,277.5,433.2,276.8z"/>
	<path class="st8" d="M433.2,207.9c-1.1-0.9-3.2-0.5-3.9,0.7c-0.9,1.1-0.5,3.2,0.7,3.9c1.1,0.9,3.2,0.5,3.9-0.7
		C434.9,210.8,434.4,208.6,433.2,207.9z"/>
	<path class="st2" d="M406.9,276.8c1.1-0.9,3.2-0.5,3.9,0.7c0.9,1.1,0.5,3.2-0.7,3.9c-1.1,0.9-3.2,0.5-3.9-0.7
		C405.2,279.7,405.7,277.5,406.9,276.8z"/>
	<path class="st2" d="M406.9,207.9c1.1-0.9,3.2-0.5,3.9,0.7c0.9,1.1,0.5,3.2-0.7,3.9c-1.1,0.9-3.2,0.5-3.9-0.7
		C405.2,210.8,405.7,208.6,406.9,207.9z"/>
	<rect x="400.6" y="220.8" class="st1" width="38.1" height="45.4"/>
	<rect x="400.6" y="201.8" class="st1" width="38.1" height="85.1"/>
	<polygon class="st1" points="423.7,247.2 421.1,247.2 421.1,252.2 436.2,252.2 436.2,247.2 433.5,247.2 433.5,239.7 423.7,239.7 	
		"/>
	<g>
		<path d="M404.1,273.6v-3.2h0.3v2.9h1.6v0.3H404.1z"/>
		<path d="M408,273.3c-0.2,0.2-0.4,0.2-0.6,0.2c-0.3,0-0.5-0.1-0.6-0.2c-0.2-0.2-0.3-0.5-0.3-0.9s0-0.6,0.3-0.9
			c0.2-0.2,0.4-0.2,0.6-0.2c0.3,0,0.5,0.1,0.6,0.2c0.2,0.2,0.3,0.5,0.3,0.9S408.2,273.1,408,273.3z M407.7,271.8
			c-0.1-0.1-0.2-0.2-0.4-0.2s-0.3,0.1-0.4,0.2c-0.2,0.2-0.2,0.4-0.2,0.7s0,0.5,0.2,0.7c0.1,0.1,0.2,0.2,0.4,0.2s0.3-0.1,0.4-0.2
			c0.2-0.2,0.2-0.4,0.2-0.7S407.9,271.9,407.7,271.8z"/>
		<path d="M410.3,273.6v-0.2c-0.2,0.2-0.4,0.3-0.6,0.3c-0.2,0-0.4-0.1-0.6-0.2c-0.2-0.2-0.2-0.4-0.2-0.6v-1.4h0.3v1.4
			c0,0.4,0.2,0.6,0.5,0.6c0.3,0,0.6-0.2,0.6-0.6v-1.4h0.3v2.2H410.3z"/>
		<path d="M412.1,273.6c-0.4,0-0.6-0.3-0.6-0.6v-1.4h-0.3v-0.2h0.3v-0.7h0.3v0.7h0.5v0.2h-0.5v1.3c0,0.2,0.1,0.3,0.3,0.3h0.2v0.3
			H412.1z"/>
	</g>
	<g>
		<path d="M429.2,273.6l-1.7-2.6v2.6h-0.3v-3.2h0.3l1.7,2.5v-2.5h0.3v3.2H429.2z"/>
		<path d="M431.8,273.3c-0.2,0.2-0.4,0.2-0.6,0.2c-0.3,0-0.5-0.1-0.6-0.2c-0.2-0.2-0.3-0.5-0.3-0.9s0-0.6,0.3-0.9
			c0.2-0.2,0.4-0.2,0.6-0.2c0.3,0,0.5,0.1,0.6,0.2c0.2,0.2,0.3,0.5,0.3,0.9S432,273.1,431.8,273.3z M431.6,271.8
			c-0.1-0.1-0.2-0.2-0.4-0.2s-0.3,0.1-0.4,0.2c-0.2,0.2-0.2,0.4-0.2,0.7s0,0.5,0.2,0.7c0.1,0.1,0.2,0.2,0.4,0.2s0.3-0.1,0.4-0.2
			c0.2-0.2,0.2-0.4,0.2-0.7S431.7,271.9,431.6,271.8z"/>
		<path d="M434.1,273.6v-0.2c-0.2,0.2-0.4,0.3-0.6,0.3c-0.2,0-0.4-0.1-0.6-0.2c-0.2-0.2-0.2-0.4-0.2-0.6v-1.4h0.3v1.4
			c0,0.4,0.2,0.6,0.5,0.6c0.3,0,0.5-0.2,0.5-0.6v-1.4h0.3v2.2H434.1z"/>
		<path d="M435.9,273.6c-0.4,0-0.6-0.3-0.6-0.6v-1.4H435v-0.2h0.3v-0.7h0.3v0.7h0.5v0.2h-0.5v1.3c0,0.2,0.1,0.3,0.3,0.3h0.2v0.3
			H435.9z"/>
	</g>
	<g>
		<path d="M405.4,219.1v-3.2h0.3v2.9h1.6v0.3H405.4z"/>
		<path d="M407.9,216.3v-0.4h0.4v0.4H407.9z M407.9,219.1v-2.2h0.3v2.2H407.9z"/>
		<path d="M410.5,219.1v-1.4c0-0.4-0.2-0.6-0.5-0.6c-0.3,0-0.5,0.2-0.5,0.6v1.4h-0.3v-2.2h0.3v0.2c0.2-0.2,0.4-0.3,0.6-0.3
			c0.2,0,0.4,0.1,0.6,0.2c0.2,0.2,0.2,0.4,0.2,0.6v1.4H410.5z"/>
	</g>
	<g>
		<path d="M430.6,219.1l-1.7-2.6v2.6h-0.3v-3.2h0.3l1.7,2.5v-2.5h0.3v3.2H430.6z"/>
		<path d="M431.7,216.3v-0.4h0.4v0.4H431.7z M431.7,219.1v-2.2h0.3v2.2H431.7z"/>
		<path d="M434.3,219.1v-1.4c0-0.4-0.2-0.6-0.5-0.6s-0.5,0.2-0.5,0.6v1.4h-0.3v-2.2h0.3v0.2c0.2-0.2,0.4-0.3,0.6-0.3
			c0.2,0,0.4,0.1,0.6,0.2c0.2,0.2,0.2,0.4,0.2,0.6v1.4H434.3z"/>
	</g>
</g>
<g>
	<rect x="439.4" y="236.9" class="st1" width="38.1" height="23.4"/>
	<path class="st8" d="M472.1,276.8c-1.1-0.9-3.2-0.5-3.9,0.7c-0.9,1.1-0.5,3.2,0.7,3.9c1.1,0.9,3.2,0.5,3.9-0.7
		C473.7,279.7,473.3,277.5,472.1,276.8z"/>
	<path class="st8" d="M472.1,207.9c-1.1-0.9-3.2-0.5-3.9,0.7c-0.9,1.1-0.5,3.2,0.7,3.9c1.1,0.9,3.2,0.5,3.9-0.7
		C473.7,210.8,473.3,208.6,472.1,207.9z"/>
	<path class="st2" d="M445.7,276.8c1.1-0.9,3.2-0.5,3.9,0.7c0.9,1.1,0.5,3.2-0.7,3.9c-1.1,0.9-3.2,0.5-3.9-0.7
		C444.1,279.7,444.5,277.5,445.7,276.8z"/>
	<path class="st2" d="M445.7,207.9c1.1-0.9,3.2-0.5,3.9,0.7c0.9,1.1,0.5,3.2-0.7,3.9c-1.1,0.9-3.2,0.5-3.9-0.7
		C444.1,210.8,444.5,208.6,445.7,207.9z"/>
	<rect x="439.4" y="220.8" class="st1" width="38.1" height="45.4"/>
	<rect x="439.4" y="201.8" class="st1" width="38.1" height="85.1"/>
	<polygon class="st1" points="462.6,247.2 459.9,247.2 459.9,252.2 475,252.2 475,247.2 472.4,247.2 472.4,239.7 462.6,239.7 	"/>
	<g>
		<path d="M442.9,273.6v-3.2h0.3v2.9h1.6v0.3H442.9z"/>
		<path d="M446.8,273.3c-0.2,0.2-0.4,0.2-0.6,0.2c-0.3,0-0.5-0.1-0.6-0.2c-0.2-0.2-0.3-0.5-0.3-0.9s0-0.6,0.3-0.9
			c0.2-0.2,0.4-0.2,0.6-0.2c0.3,0,0.5,0.1,0.6,0.2c0.2,0.2,0.3,0.5,0.3,0.9S447.1,273.1,446.8,273.3z M446.6,271.8
			c-0.1-0.1-0.2-0.2-0.4-0.2s-0.3,0.1-0.4,0.2c-0.2,0.2-0.2,0.4-0.2,0.7s0,0.5,0.2,0.7c0.1,0.1,0.2,0.2,0.4,0.2s0.3-0.1,0.4-0.2
			c0.2-0.2,0.2-0.4,0.2-0.7S446.8,271.9,446.6,271.8z"/>
		<path d="M449.2,273.6v-0.2c-0.2,0.2-0.4,0.3-0.6,0.3c-0.2,0-0.4-0.1-0.6-0.2c-0.2-0.2-0.2-0.4-0.2-0.6v-1.4h0.3v1.4
			c0,0.4,0.2,0.6,0.5,0.6s0.5-0.2,0.5-0.6v-1.4h0.3v2.2H449.2z"/>
		<path d="M450.9,273.6c-0.4,0-0.6-0.3-0.6-0.6v-1.4h-0.3v-0.2h0.3v-0.7h0.3v0.7h0.5v0.2h-0.5v1.3c0,0.2,0.1,0.3,0.3,0.3h0.2v0.3
			H450.9z"/>
	</g>
	<g>
		<path d="M468.1,273.6l-1.7-2.6v2.6H466v-3.2h0.3l1.7,2.5v-2.5h0.3v3.2H468.1z"/>
		<path d="M470.7,273.3c-0.2,0.2-0.4,0.2-0.6,0.2c-0.3,0-0.5-0.1-0.6-0.2c-0.2-0.2-0.3-0.5-0.3-0.9s0-0.6,0.3-0.9
			c0.2-0.2,0.4-0.2,0.6-0.2c0.3,0,0.5,0.1,0.6,0.2c0.2,0.2,0.3,0.5,0.3,0.9S470.9,273.1,470.7,273.3z M470.4,271.8
			c-0.1-0.1-0.2-0.2-0.4-0.2s-0.3,0.1-0.4,0.2c-0.2,0.2-0.2,0.4-0.2,0.7s0,0.5,0.2,0.7c0.1,0.1,0.2,0.2,0.4,0.2s0.3-0.1,0.4-0.2
			c0.2-0.2,0.2-0.4,0.2-0.7S470.6,271.9,470.4,271.8z"/>
		<path d="M473,273.6v-0.2c-0.2,0.2-0.4,0.3-0.6,0.3c-0.2,0-0.4-0.1-0.6-0.2c-0.2-0.2-0.2-0.4-0.2-0.6v-1.4h0.3v1.4
			c0,0.4,0.2,0.6,0.5,0.6s0.5-0.2,0.5-0.6v-1.4h0.3v2.2H473z"/>
		<path d="M474.7,273.6c-0.4,0-0.6-0.3-0.6-0.6v-1.4h-0.3v-0.2h0.3v-0.7h0.3v0.7h0.5v0.2h-0.5v1.3c0,0.2,0.1,0.3,0.3,0.3h0.2v0.3
			H474.7z"/>
	</g>
	<g>
		<path d="M444.3,219.1v-3.2h0.3v2.9h1.6v0.3H444.3z"/>
		<path d="M446.8,216.3v-0.4h0.4v0.4H446.8z M446.8,219.1v-2.2h0.3v2.2H446.8z"/>
		<path d="M449.3,219.1v-1.4c0-0.4-0.2-0.6-0.5-0.6s-0.5,0.2-0.5,0.6v1.4h-0.3v-2.2h0.3v0.2c0.2-0.2,0.4-0.3,0.6-0.3
			c0.2,0,0.4,0.1,0.6,0.2c0.2,0.2,0.2,0.4,0.2,0.6v1.4H449.3z"/>
	</g>
	<g>
		<path d="M469.4,219.1l-1.7-2.6v2.6h-0.3v-3.2h0.3l1.7,2.5v-2.5h0.3v3.2H469.4z"/>
		<path d="M470.6,216.3v-0.4h0.4v0.4H470.6z M470.6,219.1v-2.2h0.3v2.2H470.6z"/>
		<path d="M473.1,219.1v-1.4c0-0.4-0.2-0.6-0.5-0.6s-0.5,0.2-0.5,0.6v1.4h-0.3v-2.2h0.3v0.2c0.2-0.2,0.4-0.3,0.6-0.3
			c0.2,0,0.4,0.1,0.6,0.2c0.2,0.2,0.2,0.4,0.2,0.6v1.4H473.1z"/>
	</g>
</g>
<g>
	<rect x="486.3" y="205" class="st1" width="26.2" height="78.8"/>
	<path class="st15" d="M509,207.3c-0.9-0.7-2.7-0.4-3.3,0.6c-0.7,0.9-0.4,2.7,0.6,3.3c0.9,0.7,2.7,0.4,3.3-0.6
		C510.3,209.7,510,207.9,509,207.3z"/>
	<path class="st8" d="M493.7,277.6c0.9-0.7,2.7-0.4,3.3,0.6c0.7,0.9,0.4,2.7-0.6,3.3c-0.9,0.7-2.7,0.4-3.3-0.6
		C492.4,280,492.7,278.1,493.7,277.6z"/>
	<path class="st2" d="M502.6,277.6c0.9-0.7,2.7-0.4,3.3,0.6c0.7,0.9,0.4,2.7-0.6,3.3c-0.9,0.7-2.7,0.4-3.3-0.6
		C501.3,280,501.6,278.1,502.6,277.6z"/>
	<path class="st10" d="M500.7,207.3c0.9-0.7,2.7-0.4,3.3,0.6c0.7,0.9,0.4,2.7-0.6,3.3c-0.9,0.7-2.7,0.4-3.3-0.6
		C499.4,209.7,499.7,207.9,500.7,207.3z"/>
	<line class="st1" x1="486.3" y1="213" x2="512.4" y2="213"/>
	<g>
		<path d="M495.8,275.2l-1.7-2.6v2.6h-0.3V272h0.3l1.7,2.5V272h0.3v3.2H495.8z"/>
	</g>
	<g>
		<path d="M502.9,275.2V272h0.3v2.9h1.6v0.3H502.9z"/>
	</g>
	<rect x="486.3" y="224" class="st1" width="26.2" height="45.4"/>
</g>
<g>
	<rect x="577.6" y="226" class="st1" width="39.2" height="41.8"/>
	<path class="st2" d="M581.1,260.9c0.9-0.7,2.7-0.4,3.3,0.6c0.7,0.9,0.4,2.7-0.6,3.3c-0.9,0.7-2.7,0.4-3.3-0.6
		C579.7,263.3,580,261.5,581.1,260.9z"/>
	<path class="st8" d="M588.3,260.9c0.9-0.7,2.7-0.4,3.3,0.6c0.7,0.9,0.4,2.7-0.6,3.3c-0.9,0.7-2.7,0.4-3.3-0.6
		C587,263.3,587.3,261.5,588.3,260.9z"/>
	<path class="st11" d="M595.6,260.9c0.9-0.7,2.7-0.4,3.3,0.6c0.7,0.9,0.4,2.7-0.6,3.3c-0.9,0.7-2.7,0.4-3.3-0.6
		C594.2,263.3,594.6,261.5,595.6,260.9z"/>
	<path class="st1" d="M602.8,260.9c0.9-0.7,2.7-0.4,3.3,0.6c0.7,0.9,0.4,2.7-0.6,3.3c-0.9,0.7-2.7,0.4-3.3-0.6
		C601.5,263.3,601.8,261.5,602.8,260.9z"/>
	<path class="st1" d="M610.1,260.9c0.9-0.7,2.7-0.4,3.3,0.6c0.7,0.9,0.4,2.7-0.6,3.3c-0.9,0.7-2.7,0.4-3.3-0.6
		C608.7,263.3,609.1,261.5,610.1,260.9z"/>
	<path class="st3" d="M581.1,229.1c0.9-0.7,2.7-0.4,3.3,0.6c0.7,0.9,0.4,2.7-0.6,3.3c-0.9,0.7-2.7,0.4-3.3-0.6
		C579.7,231.5,580,229.7,581.1,229.1z"/>
	<path class="st3" d="M588.3,229.1c0.9-0.7,2.7-0.4,3.3,0.6c0.7,0.9,0.4,2.7-0.6,3.3c-0.9,0.7-2.7,0.4-3.3-0.6
		C587,231.5,587.3,229.7,588.3,229.1z"/>
	<path class="st1" d="M595.6,229.1c0.9-0.7,2.7-0.4,3.3,0.6c0.7,0.9,0.4,2.7-0.6,3.3c-0.9,0.7-2.7,0.4-3.3-0.6
		C594.2,231.5,594.6,229.7,595.6,229.1z"/>
	<path class="st1" d="M602.8,229.1c0.9-0.7,2.7-0.4,3.3,0.6c0.7,0.9,0.4,2.7-0.6,3.3c-0.9,0.7-2.7,0.4-3.3-0.6
		C601.5,231.5,601.8,229.7,602.8,229.1z"/>
	<path class="st11" d="M585,251.2c0.9-0.7,2.7-0.4,3.3,0.6c0.7,0.9,0.4,2.7-0.6,3.3c-0.9,0.7-2.7,0.4-3.3-0.6
		C583.6,253.5,584,251.7,585,251.2z"/>
	<path class="st1" d="M592.2,251.2c0.9-0.7,2.7-0.4,3.3,0.6c0.7,0.9,0.4,2.7-0.6,3.3c-0.9,0.7-2.7,0.4-3.3-0.6
		C590.9,253.5,591.2,251.7,592.2,251.2z"/>
	<path class="st1" d="M599.5,251.2c0.9-0.7,2.7-0.4,3.3,0.6c0.7,0.9,0.4,2.7-0.6,3.3c-0.9,0.7-2.7,0.4-3.3-0.6
		C598.1,253.5,598.5,251.7,599.5,251.2z"/>
	<path class="st1" d="M606.8,251.2c0.9-0.7,2.7-0.4,3.3,0.6c0.7,0.9,0.4,2.7-0.6,3.3c-0.9,0.7-2.7,0.4-3.3-0.6
		C605.4,253.5,605.7,251.7,606.8,251.2z"/>
	<path class="st11" d="M585,237.9c0.9-0.7,2.7-0.4,3.3,0.6c0.7,0.9,0.4,2.7-0.6,3.3c-0.9,0.7-2.7,0.4-3.3-0.6
		C583.6,240.3,584,238.5,585,237.9z"/>
	<path class="st1" d="M592.2,237.9c0.9-0.7,2.7-0.4,3.3,0.6c0.7,0.9,0.4,2.7-0.6,3.3c-0.9,0.7-2.7,0.4-3.3-0.6
		C590.9,240.3,591.2,238.5,592.2,237.9z"/>
	<path class="st1" d="M599.5,237.9c0.9-0.7,2.7-0.4,3.3,0.6c0.7,0.9,0.4,2.7-0.6,3.3c-0.9,0.7-2.7,0.4-3.3-0.6
		C598.1,240.3,598.5,238.5,599.5,237.9z"/>
	<path class="st1" d="M606.8,237.9c0.9-0.7,2.7-0.4,3.3,0.6c0.7,0.9,0.4,2.7-0.6,3.3c-0.9,0.7-2.7,0.4-3.3-0.6
		C605.4,240.3,605.7,238.5,606.8,237.9z"/>
	<path class="st1" d="M610.1,229.1c0.9-0.7,2.7-0.4,3.3,0.6c0.7,0.9,0.4,2.7-0.6,3.3c-0.9,0.7-2.7,0.4-3.3-0.6
		C608.7,231.5,609.1,229.7,610.1,229.1z"/>
	<rect x="577.6" y="235.7" class="st1" width="39.2" height="22.4"/>
	<rect x="579.8" y="243.8" class="st16" width="34.8" height="5.2"/>
</g>
<g>
	<rect x="617.7" y="226" class="st1" width="39.2" height="41.8"/>
	<path class="st2" d="M621.2,260.9c0.9-0.7,2.7-0.4,3.3,0.6c0.7,0.9,0.4,2.7-0.6,3.3c-0.9,0.7-2.7,0.4-3.3-0.6
		C619.8,263.3,620.1,261.5,621.2,260.9z"/>
	<path class="st8" d="M628.4,260.9c0.9-0.7,2.7-0.4,3.3,0.6c0.7,0.9,0.4,2.7-0.6,3.3c-0.9,0.7-2.7,0.4-3.3-0.6
		C627.1,263.3,627.4,261.5,628.4,260.9z"/>
	<path class="st1" d="M635.7,260.9c0.9-0.7,2.7-0.4,3.3,0.6c0.7,0.9,0.4,2.7-0.6,3.3c-0.9,0.7-2.7,0.4-3.3-0.6
		C634.3,263.3,634.7,261.5,635.7,260.9z"/>
	<path class="st1" d="M642.9,260.9c0.9-0.7,2.7-0.4,3.3,0.6c0.7,0.9,0.4,2.7-0.6,3.3c-0.9,0.7-2.7,0.4-3.3-0.6
		C641.6,263.3,641.9,261.5,642.9,260.9z"/>
	<path class="st1" d="M650.2,260.9c0.9-0.7,2.7-0.4,3.3,0.6c0.7,0.9,0.4,2.7-0.6,3.3c-0.9,0.7-2.7,0.4-3.3-0.6
		C648.8,263.3,649.2,261.5,650.2,260.9z"/>
	<path class="st3" d="M621.2,229.1c0.9-0.7,2.7-0.4,3.3,0.6c0.7,0.9,0.4,2.7-0.6,3.3c-0.9,0.7-2.7,0.4-3.3-0.6
		C619.8,231.5,620.1,229.7,621.2,229.1z"/>
	<path class="st3" d="M628.4,229.1c0.9-0.7,2.7-0.4,3.3,0.6c0.7,0.9,0.4,2.7-0.6,3.3c-0.9,0.7-2.7,0.4-3.3-0.6
		C627.1,231.5,627.4,229.7,628.4,229.1z"/>
	<path class="st1" d="M635.7,229.1c0.9-0.7,2.7-0.4,3.3,0.6c0.7,0.9,0.4,2.7-0.6,3.3c-0.9,0.7-2.7,0.4-3.3-0.6
		C634.3,231.5,634.7,229.7,635.7,229.1z"/>
	<path class="st1" d="M642.9,229.1c0.9-0.7,2.7-0.4,3.3,0.6c0.7,0.9,0.4,2.7-0.6,3.3c-0.9,0.7-2.7,0.4-3.3-0.6
		C641.6,231.5,641.9,229.7,642.9,229.1z"/>
	<path class="st1" d="M625.1,251.2c0.9-0.7,2.7-0.4,3.3,0.6c0.7,0.9,0.4,2.7-0.6,3.3c-0.9,0.7-2.7,0.4-3.3-0.6
		C623.7,253.5,624.1,251.7,625.1,251.2z"/>
	<path class="st1" d="M632.3,251.2c0.9-0.7,2.7-0.4,3.3,0.6c0.7,0.9,0.4,2.7-0.6,3.3c-0.9,0.7-2.7,0.4-3.3-0.6
		C631,253.5,631.3,251.7,632.3,251.2z"/>
	<path class="st1" d="M639.6,251.2c0.9-0.7,2.7-0.4,3.3,0.6c0.7,0.9,0.4,2.7-0.6,3.3c-0.9,0.7-2.7,0.4-3.3-0.6
		C638.2,253.5,638.6,251.7,639.6,251.2z"/>
	<path class="st1" d="M646.8,251.2c0.9-0.7,2.7-0.4,3.3,0.6c0.7,0.9,0.4,2.7-0.6,3.3c-0.9,0.7-2.7,0.4-3.3-0.6
		C645.5,253.5,645.8,251.7,646.8,251.2z"/>
	<path class="st1" d="M625.1,237.9c0.9-0.7,2.7-0.4,3.3,0.6c0.7,0.9,0.4,2.7-0.6,3.3c-0.9,0.7-2.7,0.4-3.3-0.6
		C623.7,240.3,624.1,238.5,625.1,237.9z"/>
	<path class="st1" d="M632.3,237.9c0.9-0.7,2.7-0.4,3.3,0.6c0.7,0.9,0.4,2.7-0.6,3.3c-0.9,0.7-2.7,0.4-3.3-0.6
		C631,240.3,631.3,238.5,632.3,237.9z"/>
	<path class="st1" d="M639.6,237.9c0.9-0.7,2.7-0.4,3.3,0.6c0.7,0.9,0.4,2.7-0.6,3.3c-0.9,0.7-2.7,0.4-3.3-0.6
		C638.2,240.3,638.6,238.5,639.6,237.9z"/>
	<path class="st1" d="M646.8,237.9c0.9-0.7,2.7-0.4,3.3,0.6c0.7,0.9,0.4,2.7-0.6,3.3c-0.9,0.7-2.7,0.4-3.3-0.6
		C645.5,240.3,645.8,238.5,646.8,237.9z"/>
	<path class="st1" d="M650.2,229.1c0.9-0.7,2.7-0.4,3.3,0.6c0.7,0.9,0.4,2.7-0.6,3.3c-0.9,0.7-2.7,0.4-3.3-0.6
		C648.8,231.5,649.2,229.7,650.2,229.1z"/>
	<rect x="617.7" y="235.7" class="st1" width="39.2" height="22.4"/>
	<rect x="619.9" y="243.8" class="st16" width="34.8" height="5.2"/>
</g>
<g>
	<rect x="513.1" y="205" class="st1" width="20.2" height="78.8"/>
	<path class="st8" d="M529.8,207.3c-0.9-0.7-2.7-0.4-3.3,0.6c-0.7,0.9-0.4,2.7,0.6,3.3c0.9,0.7,2.7,0.4,3.3-0.6
		C531.2,209.7,530.8,207.9,529.8,207.3z"/>
	<path class="st10" d="M521.6,215.4c0.9-0.7,2.7-0.4,3.3,0.6c0.7,0.9,0.4,2.7-0.6,3.3c-0.9,0.7-2.7,0.4-3.3-0.6
		C520.2,217.7,520.5,215.9,521.6,215.4z"/>
	<path class="st10" d="M521.6,269.5c0.9-0.7,2.7-0.4,3.3,0.6c0.7,0.9,0.4,2.7-0.6,3.3c-0.9,0.7-2.7,0.4-3.3-0.6
		C520.2,271.9,520.5,270,521.6,269.5z"/>
	<path class="st2" d="M516.6,277.6c0.9-0.7,2.7-0.4,3.3,0.6c0.7,0.9,0.4,2.7-0.6,3.3c-0.9,0.7-2.7,0.4-3.3-0.6
		C515.2,280,515.5,278.1,516.6,277.6z"/>
	<path class="st8" d="M527.4,277.6c0.9-0.7,2.7-0.4,3.3,0.6c0.7,0.9,0.4,2.7-0.6,3.3c-0.9,0.7-2.7,0.4-3.3-0.6
		C526.1,280,526.4,278.1,527.4,277.6z"/>
	<path class="st2" d="M516.6,207.3c0.9-0.7,2.7-0.4,3.3,0.6c0.7,0.9,0.4,2.7-0.6,3.3c-0.9,0.7-2.7,0.4-3.3-0.6
		C515.2,209.7,515.5,207.9,516.6,207.3z"/>
	<line class="st1" x1="513.1" y1="213" x2="533.3" y2="213"/>
	<line class="st1" x1="513.1" y1="221.5" x2="533.3" y2="221.5"/>
	<line class="st1" x1="513.1" y1="275.3" x2="533.3" y2="275.3"/>
	<line class="st1" x1="513.1" y1="267.1" x2="533.3" y2="267.1"/>
	<g>
		<path d="M522.7,227l-0.3-0.7h-1.4l-0.3,0.7h-0.4l1.2-3.2h0.3l1.2,3.2H522.7z M521.8,224.3l-0.6,1.7h1.2L521.8,224.3z"/>
		<path d="M524.3,227v-2.8l-0.6,0.5v-0.4l0.6-0.5h0.3v3.2H524.3z"/>
	</g>
	<g>
		<path d="M522.6,265.1l-0.3-0.7H521l-0.3,0.7h-0.4l1.2-3.2h0.3l1.2,3.2H522.6z M521.7,262.4l-0.6,1.7h1.2L521.7,262.4z"/>
		<path d="M523.3,265.1v-0.3l1.3-1.6c0.1-0.2,0.2-0.3,0.2-0.5c0-0.3-0.2-0.6-0.6-0.6c-0.3,0-0.6,0.2-0.6,0.6h-0.3
			c0-0.5,0.3-0.9,0.9-0.9c0.5,0,0.9,0.3,0.9,0.9c0,0.3-0.1,0.4-0.3,0.6l-1.1,1.4h1.4v0.3H523.3z"/>
	</g>
</g>
<rect x="202.9" y="241.3" class="st17" width="24.6" height="4.8"/>
<rect x="672.8" y="241.3" class="st17" width="15" height="4.8"/>
<rect x="692.6" y="241.3" class="st17" width="15" height="4.8"/>
<rect x="750.4" y="241.3" class="st17" width="15" height="4.8"/>
<g>
	<path d="M248.9,229.7h-1.5v2.4h-0.6v-5.7h2.1c1,0,1.8,0.7,1.8,1.7S250,229.7,248.9,229.7z M248.9,226.9h-1.5v2.3h1.5
		c0.7,0,1.2-0.4,1.2-1.1S249.6,226.9,248.9,226.9z"/>
	<path d="M253.7,232.1c-0.6,0-1.1-0.2-1.5-0.6c-0.5-0.5-0.5-1.1-0.5-2.3c0-1.2,0-1.8,0.5-2.3c0.4-0.4,0.9-0.6,1.5-0.6
		c1,0,1.8,0.6,2,1.7H255c-0.2-0.7-0.6-1.2-1.4-1.2c-0.4,0-0.7,0.1-1,0.4c-0.4,0.4-0.4,0.8-0.4,2c0,1.2,0,1.6,0.4,2
		c0.2,0.3,0.6,0.4,1,0.4c0.7,0,1.2-0.5,1.4-1.2h0.6C255.5,231.5,254.7,232.1,253.7,232.1z"/>
	<path d="M256.7,232.7h-0.6l2.3-6.9h0.6L256.7,232.7z"/>
	<path d="M262,229.7h-1.5v2.4h-0.6v-5.7h2.1c1,0,1.8,0.7,1.8,1.7S263,229.7,262,229.7z M261.9,226.9h-1.5v2.3h1.5
		c0.7,0,1.2-0.4,1.2-1.1S262.7,226.9,261.9,226.9z"/>
	<path d="M266.7,232.1c-0.6,0-1.1-0.2-1.5-0.6c-0.5-0.5-0.5-1.1-0.5-2.3c0-1.2,0-1.8,0.5-2.3c0.4-0.4,0.9-0.6,1.5-0.6
		c1,0,1.8,0.6,2,1.7h-0.6c-0.2-0.7-0.6-1.2-1.4-1.2c-0.4,0-0.7,0.1-1,0.4c-0.4,0.4-0.4,0.8-0.4,2c0,1.2,0,1.6,0.4,2
		c0.2,0.3,0.6,0.4,1,0.4c0.7,0,1.2-0.5,1.4-1.2h0.6C268.5,231.5,267.7,232.1,266.7,232.1z"/>
	<path d="M272.3,232.1h-2.2v-5.7h2.2c1,0,1.7,0.6,1.7,1.5c0,0.6-0.4,1.1-0.8,1.3c0.5,0.2,0.9,0.7,0.9,1.4
		C274,231.5,273.3,232.1,272.3,232.1z M272.2,226.9h-1.5v2h1.5c0.6,0,1.1-0.3,1.1-1S272.8,226.9,272.2,226.9z M272.2,229.4h-1.6v2.1
		h1.6c0.7,0,1.2-0.4,1.2-1.1C273.4,229.8,272.9,229.4,272.2,229.4z"/>
</g>
<g>
	<path d="M289.5,231.5c-0.3,0.3-0.9,0.5-1.4,0.5h-2v-5.7h2c0.6,0,1.1,0.2,1.4,0.5c0.6,0.6,0.6,1.5,0.6,2.3
		C290,229.9,290.1,230.9,289.5,231.5z M289,227.3c-0.3-0.3-0.7-0.4-1.1-0.4h-1.2v4.6h1.2c0.4,0,0.8-0.1,1.1-0.4
		c0.4-0.4,0.4-1.3,0.4-2C289.4,228.4,289.4,227.7,289,227.3z"/>
	<path d="M293.6,228.9c-0.2-0.2-0.4-0.3-0.7-0.3c-0.6,0-0.9,0.5-0.9,1.1v2.4h-0.6v-4h0.6v0.5c0.2-0.3,0.7-0.5,1.1-0.5
		c0.4,0,0.7,0.1,0.9,0.4L293.6,228.9z"/>
	<path d="M294.7,227v-0.7h0.7v0.7H294.7z M294.7,232.1v-4h0.6v4H294.7z"/>
	<path d="M298.1,232.1h-0.5l-1.4-4h0.6l1.1,3.2l1.1-3.2h0.6L298.1,232.1z"/>
	<path d="M300.7,230.2c0,0.9,0.4,1.4,1.2,1.4c0.5,0,0.7-0.1,1-0.5l0.4,0.3c-0.4,0.4-0.8,0.6-1.4,0.6c-1,0-1.7-0.6-1.7-2
		c0-1.3,0.6-2,1.6-2c1,0,1.6,0.7,1.6,1.9v0.3H300.7z M302.7,229.1c-0.2-0.4-0.5-0.6-0.9-0.6s-0.8,0.2-0.9,0.6
		c-0.1,0.2-0.1,0.3-0.1,0.7h2.1C302.8,229.5,302.8,229.4,302.7,229.1z"/>
	<path d="M306.9,228.9c-0.2-0.2-0.4-0.3-0.7-0.3c-0.6,0-0.9,0.5-0.9,1.1v2.4h-0.6v-4h0.6v0.5c0.2-0.3,0.7-0.5,1.1-0.5
		c0.4,0,0.7,0.1,0.9,0.4L306.9,228.9z"/>
	<path d="M309.3,232.1c-0.7,0-1.2-0.2-1.6-0.6l0.4-0.4c0.3,0.3,0.7,0.5,1.2,0.5c0.7,0,1.1-0.2,1.1-0.7c0-0.3-0.2-0.5-0.7-0.6
		l-0.7-0.1c-0.8-0.1-1.2-0.4-1.2-1.1c0-0.7,0.6-1.2,1.5-1.2c0.6,0,1.1,0.1,1.4,0.4l-0.4,0.4c-0.3-0.2-0.6-0.3-1.1-0.3
		c-0.6,0-0.9,0.2-0.9,0.7c0,0.3,0.2,0.5,0.7,0.6l0.6,0.1c0.7,0.1,1.2,0.3,1.2,1.1C310.9,231.7,310.2,232.1,309.3,232.1z"/>
</g>
<g>
	<path d="M326.8,232.1c-0.9,0-1.4-0.2-2-0.8l0.4-0.4c0.5,0.5,0.9,0.6,1.6,0.6c0.8,0,1.4-0.4,1.4-1.1c0-0.3-0.1-0.6-0.3-0.7
		c-0.2-0.2-0.3-0.2-0.7-0.3l-0.7-0.1c-0.5-0.1-0.8-0.2-1.1-0.4c-0.3-0.3-0.4-0.6-0.4-1.1c0-1,0.7-1.6,1.8-1.6c0.7,0,1.2,0.2,1.7,0.6
		l-0.4,0.4c-0.4-0.3-0.7-0.5-1.3-0.5c-0.8,0-1.2,0.4-1.2,1.1c0,0.3,0.1,0.5,0.3,0.7c0.2,0.2,0.5,0.3,0.8,0.3l0.6,0.1
		c0.5,0.1,0.8,0.2,1,0.4c0.3,0.3,0.5,0.7,0.5,1.1C328.7,231.5,327.9,232.1,326.8,232.1z"/>
	<path d="M332.6,231.8c-0.2,0.2-0.6,0.3-1,0.3c-0.4,0-0.8-0.1-1.1-0.5v2.2h-0.6v-5.7h0.6v0.5c0.3-0.4,0.7-0.5,1.1-0.5
		c0.4,0,0.8,0.1,1,0.3c0.4,0.4,0.5,1.1,0.5,1.7S333,231.4,332.6,231.8z M331.5,228.6c-0.9,0-1,0.7-1,1.5c0,0.8,0.1,1.5,1,1.5
		s1-0.7,1-1.5C332.5,229.3,332.3,228.6,331.5,228.6z"/>
	<path d="M334.3,227v-0.7h0.7v0.7H334.3z M334.3,232.1v-4h0.6v4H334.3z"/>
	<path d="M338.9,232.1v-2.4c0-0.7-0.4-1.1-1-1.1c-0.6,0-1,0.4-1,1.1v2.4h-0.6v-4h0.6v0.4c0.3-0.3,0.7-0.5,1.1-0.5
		c0.4,0,0.8,0.1,1,0.4c0.3,0.3,0.4,0.6,0.4,1.1v2.5H338.9z"/>
	<path d="M343.2,232.1v-0.5c-0.3,0.4-0.7,0.5-1.1,0.5c-0.4,0-0.8-0.1-1-0.3c-0.4-0.4-0.5-1.1-0.5-1.7s0.1-1.3,0.5-1.7
		c0.2-0.2,0.6-0.3,1-0.3c0.4,0,0.8,0.1,1.1,0.5v-2.2h0.6v5.7H343.2z M342.2,228.6c-0.9,0-1,0.7-1,1.5c0,0.8,0.1,1.5,1,1.5
		s1-0.7,1-1.5C343.2,229.3,343.1,228.6,342.2,228.6z"/>
	<path d="M346.2,232.1c-0.7,0-1-0.5-1-1.1v-4.7h0.6v4.6c0,0.4,0.1,0.6,0.5,0.6h0.3v0.5H346.2z"/>
	<path d="M348,230.2c0,0.9,0.4,1.4,1.2,1.4c0.5,0,0.7-0.1,1-0.5l0.4,0.3c-0.4,0.4-0.8,0.6-1.4,0.6c-1,0-1.7-0.6-1.7-2
		c0-1.3,0.6-2,1.6-2c1,0,1.6,0.7,1.6,1.9v0.3H348z M350,229.1c-0.2-0.4-0.5-0.6-0.9-0.6s-0.8,0.2-0.9,0.6c-0.1,0.2-0.1,0.3-0.1,0.7
		h2.1C350.1,229.5,350.1,229.4,350,229.1z"/>
</g>
<g>
	<path d="M447.6,232.1c-0.9,0-1.4-0.2-2-0.8l0.4-0.4c0.5,0.5,0.9,0.6,1.6,0.6c0.8,0,1.4-0.4,1.4-1.1c0-0.3-0.1-0.6-0.3-0.7
		c-0.2-0.2-0.3-0.2-0.7-0.3l-0.7-0.1c-0.5-0.1-0.8-0.2-1.1-0.4c-0.3-0.3-0.4-0.6-0.4-1.1c0-1,0.7-1.6,1.8-1.6c0.7,0,1.2,0.2,1.7,0.6
		l-0.4,0.4c-0.4-0.3-0.7-0.5-1.3-0.5c-0.8,0-1.2,0.4-1.2,1.1c0,0.3,0.1,0.5,0.3,0.7c0.2,0.2,0.5,0.3,0.8,0.3l0.6,0.1
		c0.5,0.1,0.8,0.2,1,0.4c0.3,0.3,0.5,0.7,0.5,1.1C449.6,231.5,448.8,232.1,447.6,232.1z"/>
	<path d="M453.4,231.8c-0.2,0.2-0.6,0.3-1,0.3c-0.4,0-0.8-0.1-1.1-0.5v2.2h-0.6v-5.7h0.6v0.5c0.3-0.4,0.7-0.5,1.1-0.5
		c0.4,0,0.8,0.1,1,0.3c0.4,0.4,0.5,1.1,0.5,1.7S453.8,231.4,453.4,231.8z M452.3,228.6c-0.9,0-1,0.7-1,1.5c0,0.8,0.1,1.5,1,1.5
		s1-0.7,1-1.5C453.3,229.3,453.2,228.6,452.3,228.6z"/>
	<path d="M455.1,227v-0.7h0.7v0.7H455.1z M455.1,232.1v-4h0.6v4H455.1z"/>
	<path d="M459.7,232.1v-2.4c0-0.7-0.4-1.1-1-1.1c-0.6,0-1,0.4-1,1.1v2.4h-0.6v-4h0.6v0.4c0.3-0.3,0.7-0.5,1.1-0.5
		c0.4,0,0.8,0.1,1,0.4c0.3,0.3,0.4,0.6,0.4,1.1v2.5H459.7z"/>
	<path d="M464.1,232.1v-0.5c-0.3,0.4-0.7,0.5-1.1,0.5c-0.4,0-0.8-0.1-1-0.3c-0.4-0.4-0.5-1.1-0.5-1.7s0.1-1.3,0.5-1.7
		c0.2-0.2,0.6-0.3,1-0.3c0.4,0,0.8,0.1,1.1,0.5v-2.2h0.6v5.7H464.1z M463.1,228.6c-0.9,0-1,0.7-1,1.5c0,0.8,0.1,1.5,1,1.5
		s1-0.7,1-1.5C464.1,229.3,463.9,228.6,463.1,228.6z"/>
	<path d="M467.1,232.1c-0.7,0-1-0.5-1-1.1v-4.7h0.6v4.6c0,0.4,0.1,0.6,0.5,0.6h0.3v0.5H467.1z"/>
	<path d="M468.8,230.2c0,0.9,0.4,1.4,1.2,1.4c0.5,0,0.7-0.1,1-0.5l0.4,0.3c-0.4,0.4-0.8,0.6-1.4,0.6c-1,0-1.7-0.6-1.7-2
		c0-1.3,0.6-2,1.6-2c1,0,1.6,0.7,1.6,1.9v0.3H468.8z M470.8,229.1c-0.2-0.4-0.5-0.6-0.9-0.6s-0.8,0.2-0.9,0.6
		c-0.1,0.2-0.1,0.3-0.1,0.7h2.1C470.9,229.5,470.9,229.4,470.8,229.1z"/>
</g>
<g>
	<path d="M411.9,231.5c-0.3,0.3-0.9,0.5-1.4,0.5h-2v-5.7h2c0.6,0,1.1,0.2,1.4,0.5c0.6,0.6,0.6,1.5,0.6,2.3
		C412.5,229.9,412.5,230.9,411.9,231.5z M411.5,227.3c-0.3-0.3-0.7-0.4-1.1-0.4h-1.2v4.6h1.2c0.4,0,0.8-0.1,1.1-0.4
		c0.4-0.4,0.4-1.3,0.4-2C411.9,228.4,411.9,227.7,411.5,227.3z"/>
	<path d="M416.1,228.9c-0.2-0.2-0.4-0.3-0.7-0.3c-0.6,0-0.9,0.5-0.9,1.1v2.4h-0.6v-4h0.6v0.5c0.2-0.3,0.7-0.5,1.1-0.5
		c0.4,0,0.7,0.1,0.9,0.4L416.1,228.9z"/>
	<path d="M417.2,227v-0.7h0.7v0.7H417.2z M417.2,232.1v-4h0.6v4H417.2z"/>
	<path d="M420.6,232.1h-0.5l-1.4-4h0.6l1.1,3.2l1.1-3.2h0.6L420.6,232.1z"/>
	<path d="M423.2,230.2c0,0.9,0.4,1.4,1.2,1.4c0.5,0,0.7-0.1,1-0.5l0.4,0.3c-0.4,0.4-0.8,0.6-1.4,0.6c-1,0-1.7-0.6-1.7-2
		c0-1.3,0.6-2,1.6-2c1,0,1.6,0.7,1.6,1.9v0.3H423.2z M425.2,229.1c-0.2-0.4-0.5-0.6-0.9-0.6s-0.8,0.2-0.9,0.6
		c-0.1,0.2-0.1,0.3-0.1,0.7h2.1C425.3,229.5,425.3,229.4,425.2,229.1z"/>
	<path d="M429.3,228.9c-0.2-0.2-0.4-0.3-0.7-0.3c-0.6,0-0.9,0.5-0.9,1.1v2.4h-0.6v-4h0.6v0.5c0.2-0.3,0.7-0.5,1.1-0.5
		c0.4,0,0.7,0.1,0.9,0.4L429.3,228.9z"/>
	<path d="M431.8,232.1c-0.7,0-1.2-0.2-1.6-0.6l0.4-0.4c0.3,0.3,0.7,0.5,1.2,0.5c0.7,0,1.1-0.2,1.1-0.7c0-0.3-0.2-0.5-0.7-0.6
		l-0.7-0.1c-0.8-0.1-1.2-0.4-1.2-1.1c0-0.7,0.6-1.2,1.5-1.2c0.6,0,1.1,0.1,1.4,0.4l-0.4,0.4c-0.3-0.2-0.6-0.3-1.1-0.3
		c-0.6,0-0.9,0.2-0.9,0.7c0,0.3,0.2,0.5,0.7,0.6l0.6,0.1c0.7,0.1,1.2,0.3,1.2,1.1C433.4,231.7,432.7,232.1,431.8,232.1z"/>
</g>
<g>
	<path d="M369.7,229.7h-1.5v2.4h-0.6v-5.7h2.1c1,0,1.8,0.7,1.8,1.7S370.7,229.7,369.7,229.7z M369.6,226.9h-1.5v2.3h1.5
		c0.7,0,1.2-0.4,1.2-1.1S370.4,226.9,369.6,226.9z"/>
	<path d="M374.4,232.1c-0.6,0-1.1-0.2-1.5-0.6c-0.5-0.5-0.5-1.1-0.5-2.3c0-1.2,0-1.8,0.5-2.3c0.4-0.4,0.9-0.6,1.5-0.6
		c1,0,1.8,0.6,2,1.7h-0.6c-0.2-0.7-0.6-1.2-1.4-1.2c-0.4,0-0.7,0.1-1,0.4c-0.4,0.4-0.4,0.8-0.4,2c0,1.2,0,1.6,0.4,2
		c0.2,0.3,0.6,0.4,1,0.4c0.7,0,1.2-0.5,1.4-1.2h0.6C376.2,231.5,375.4,232.1,374.4,232.1z"/>
	<path d="M377.5,232.7h-0.6l2.3-6.9h0.6L377.5,232.7z"/>
	<path d="M382.8,229.7h-1.5v2.4h-0.6v-5.7h2.1c1,0,1.8,0.7,1.8,1.7S383.8,229.7,382.8,229.7z M382.7,226.9h-1.5v2.3h1.5
		c0.7,0,1.2-0.4,1.2-1.1S383.4,226.9,382.7,226.9z"/>
	<path d="M387.5,232.1c-0.6,0-1.1-0.2-1.5-0.6c-0.5-0.5-0.5-1.1-0.5-2.3c0-1.2,0-1.8,0.5-2.3c0.4-0.4,0.9-0.6,1.5-0.6
		c1,0,1.8,0.6,2,1.7h-0.6c-0.2-0.7-0.6-1.2-1.4-1.2c-0.4,0-0.7,0.1-1,0.4c-0.4,0.4-0.4,0.8-0.4,2c0,1.2,0,1.6,0.4,2
		c0.2,0.3,0.6,0.4,1,0.4c0.7,0,1.2-0.5,1.4-1.2h0.6C389.3,231.5,388.5,232.1,387.5,232.1z"/>
	<path d="M393,232.1h-2.2v-5.7h2.2c1,0,1.7,0.6,1.7,1.5c0,0.6-0.4,1.1-0.8,1.3c0.5,0.2,0.9,0.7,0.9,1.4
		C394.8,231.5,394.1,232.1,393,232.1z M392.9,226.9h-1.5v2h1.5c0.6,0,1.1-0.3,1.1-1S393.6,226.9,392.9,226.9z M393,229.4h-1.6v2.1
		h1.6c0.7,0,1.2-0.4,1.2-1.1C394.1,229.8,393.7,229.4,393,229.4z"/>
</g>
<polyline class="st18" points="369,207.9 369,191.9 153.6,191.9 153.6,313.7 554.4,313.7 554.4,274.8 "/>
<polyline class="st19" points="393.4,207.9 393.4,187.9 150.6,187.9 150.6,317 564.4,317 564.4,274.3 "/>
<polyline class="st18" points="407.9,207.9 407.9,183 147.1,183 147.1,323.1 582.4,323.1 582.4,264.8 "/>
<polyline class="st19" points="432.2,207.9 432.2,179.3 143.3,179.3 143.3,326.4 589.4,326.4 589.4,264.8 "/>
<polyline class="st18" points="447.2,208 447.2,175.3 139.7,175.3 139.7,331.9 622,331.9 622,265.3 "/>
<polyline class="st19" points="470.2,207.2 470.2,171.7 136,171.7 136,334.8 629.4,334.8 629.4,264.2 "/>
<polyline class="st19" points="495.4,281.5 495.4,297.2 572,297.2 572,260.6 566.4,260.6 "/>
<polyline class="st18" points="553.7,260 546.8,260 546.8,294.1 504.2,294.1 504.2,281 "/>
<polyline class="st20" points="501.7,207.3 501.7,172.4 723.4,172.4 723.4,213.8 "/>
<polyline class="st18" points="517.9,281.7 517.9,340.2 130.1,340.2 130.1,164.7 554.4,164.7 554.4,213.1 "/>
<polyline class="st20" points="525.5,271.4 537,271.4 537,344.1 953.4,344.1 953.4,161.9 716.5,161.9 716.5,228.7 722,228.7 "/>
<g id="Power_Supply">
	<path class="st21" d="M849.1,301.1h27.2v-11.2h-27.2V301.1z"/>
	<path class="st21" d="M905.9,184.1h27.4v-14.7h-27.4V184.1z"/>
	<path class="st21" d="M899.4,301.1h43.2V169.4h-43.2V301.1z"/>
	<circle class="st1" cx="846.6" cy="176.9" r="2.8"/>
	<path class="st21" d="M841.1,184.1h31.2v-14.7h-31.2V184.1z"/>
	<path class="st21" d="M910.1,301.1h27.2v-11.2h-27.2V301.1z"/>
	<path class="st21" d="M911.8,301.1h23.7v-11.2h-23.7V301.1z"/>
	<circle class="st11" cx="866.7" cy="176.9" r="2.8"/>
	<circle class="st11" cx="860" cy="176.9" r="2.8"/>
	<circle class="st1" cx="853.3" cy="176.9" r="2.8"/>
	<circle class="st3" cx="869.2" cy="295.5" r="2.8"/>
	<circle class="st3" cx="862.5" cy="295.5" r="2.8"/>
	<circle class="st11" cx="855.8" cy="295.5" r="2.8"/>
	<circle class="st3" cx="930.3" cy="295.5" r="2.8"/>
	<circle class="st3" cx="923.5" cy="295.5" r="2.8"/>
	<circle class="st11" cx="916.8" cy="295.5" r="2.8"/>
	<circle class="st1" cx="909.6" cy="176.9" r="2.8"/>
	<circle class="st11" cx="929.8" cy="176.9" r="2.8"/>
	<circle class="st11" cx="923" cy="176.9" r="2.8"/>
	<circle class="st1" cx="916.3" cy="176.9" r="2.8"/>
	<path class="st21" d="M904,184.1h31.2v-14.7H904V184.1z"/>
	<path class="st21" d="M850.9,301.1h23.7v-11.2h-23.7V301.1z"/>
	<path class="st21" d="M824.8,301.1h69.7V169.4h-69.7V301.1z"/>
	<path class="st21" d="M843,184.1h27.4v-14.7H843V184.1z"/>
</g>
<polyline class="st19" points="528.8,281.7 528.8,343.7 127.1,343.7 127.1,161.9 564,161.9 564,213.5 "/>
<polyline class="st20" points="523,215.2 523,179.9 733.9,179.9 733.9,213.8 "/>
<polyline class="st18" points="518.2,206.7 518.2,177.2 780.3,177.2 780.3,214.1 "/>
<polyline class="st19" points="528.6,207.5 528.6,183.2 790.3,183.2 790.3,214.1 "/>
<g>
	<line class="st3" x1="916.5" y1="283.2" x2="916.5" y2="285"/>
	<line class="st22" x1="914.7" y1="285" x2="918.2" y2="285"/>
	<line class="st3" x1="915.2" y1="285.8" x2="917.7" y2="285.8"/>
	<line class="st3" x1="915.8" y1="286.7" x2="917.1" y2="286.7"/>
</g>
<g>
	<g>
		<path d="M923.4,288l-1.9-2.9v2.9h-0.4v-3.6h0.4l1.9,2.8v-2.8h0.4v3.6H923.4z"/>
	</g>
</g>
<g>
	<g>
		<path d="M928.2,288v-3.6h0.4v3.2h1.8v0.3H928.2z"/>
	</g>
</g>
<g>
	<line class="st3" x1="855.7" y1="283.2" x2="855.7" y2="285"/>
	<line class="st22" x1="853.9" y1="285" x2="857.5" y2="285"/>
	<line class="st3" x1="854.5" y1="285.8" x2="857" y2="285.8"/>
	<line class="st3" x1="855.1" y1="286.7" x2="856.4" y2="286.7"/>
</g>
<g>
	<g>
		<path d="M862.6,288l-1.9-2.9v2.9h-0.4v-3.6h0.4l1.9,2.8v-2.8h0.4v3.6H862.6z"/>
	</g>
</g>
<g>
	<g>
		<path d="M845.4,189.9h-0.3l-1.2-3.6h0.4l0.9,2.9l0.9-2.9h0.4L845.4,189.9z"/>
		<path d="M847,188.7v-0.3h1.4v0.3H847z"/>
	</g>
</g>
<g>
	<g>
		<path d="M852.7,189.9h-0.3l-1.2-3.6h0.4l0.9,2.9l0.9-2.9h0.4L852.7,189.9z"/>
		<path d="M854.3,188.7v-0.3h1.4v0.3H854.3z"/>
	</g>
</g>
<g>
	<g>
		<path d="M859.8,189.9h-0.3l-1.2-3.6h0.4l0.9,2.9l0.9-2.9h0.4L859.8,189.9z"/>
		<path d="M862.5,188.7v0.9h-0.3v-0.9h-0.9v-0.3h0.9v-0.9h0.3v0.9h0.9v0.3H862.5z"/>
	</g>
</g>
<g>
	<g>
		<path d="M867.1,189.9h-0.3l-1.2-3.6h0.4l0.9,2.9l0.9-2.9h0.4L867.1,189.9z"/>
		<path d="M869.8,188.7v0.9h-0.3v-0.9h-0.9v-0.3h0.9v-0.9h0.3v0.9h0.9v0.3H869.8z"/>
	</g>
</g>
<g>
	<g>
		<path d="M908.4,189.9h-0.3l-1.2-3.6h0.4l0.9,2.9l0.9-2.9h0.4L908.4,189.9z"/>
		<path d="M910,188.7v-0.3h1.4v0.3H910z"/>
	</g>
</g>
<g>
	<g>
		<path d="M915.7,189.9h-0.3l-1.2-3.6h0.4l0.9,2.9l0.9-2.9h0.4L915.7,189.9z"/>
		<path d="M917.3,188.7v-0.3h1.4v0.3H917.3z"/>
	</g>
</g>
<g>
	<g>
		<path d="M922.8,189.9h-0.3l-1.2-3.6h0.4l0.9,2.9l0.9-2.9h0.4L922.8,189.9z"/>
		<path d="M925.5,188.7v0.9h-0.3v-0.9h-0.9v-0.3h0.9v-0.9h0.3v0.9h0.9v0.3H925.5z"/>
	</g>
</g>
<g>
	<g>
		<path d="M930.1,189.9h-0.3l-1.2-3.6h0.4l0.9,2.9l0.9-2.9h0.4L930.1,189.9z"/>
		<path d="M932.7,188.7v0.9h-0.3v-0.9h-0.9v-0.3h0.9v-0.9h0.3v0.9h0.9v0.3H932.7z"/>
	</g>
</g>
<g>
	<g>
		<path d="M867.4,288v-3.6h0.4v3.2h1.8v0.3H867.4z"/>
	</g>
</g>
<g>
	<path d="M850.6,227.5h-1.5v2.4h-0.6v-5.7h2.1c1,0,1.8,0.7,1.8,1.7S851.6,227.5,850.6,227.5z M850.5,224.7h-1.5v2.3h1.5
		c0.7,0,1.2-0.4,1.2-1.1S851.2,224.7,850.5,224.7z"/>
	<path d="M856,229.5c-0.3,0.3-0.7,0.5-1.1,0.5s-0.9-0.2-1.1-0.5c-0.4-0.4-0.5-1-0.5-1.6c0-0.6,0.1-1.2,0.5-1.6
		c0.3-0.3,0.7-0.5,1.1-0.5s0.9,0.2,1.1,0.5c0.4,0.4,0.5,1,0.5,1.6C856.4,228.5,856.4,229.1,856,229.5z M855.5,226.7
		c-0.2-0.2-0.4-0.3-0.7-0.3s-0.5,0.1-0.7,0.3c-0.3,0.3-0.3,0.8-0.3,1.2s0,0.9,0.3,1.2c0.2,0.2,0.4,0.3,0.7,0.3s0.5-0.1,0.7-0.3
		c0.3-0.3,0.3-0.8,0.3-1.2S855.8,227,855.5,226.7z"/>
	<path d="M861.4,229.9h-0.5l-1-3.1l-1,3.1h-0.5l-1.3-4h0.6l0.9,3.2l1-3.2h0.5l1,3.2l0.9-3.2h0.6L861.4,229.9z"/>
	<path d="M863.9,228c0,0.9,0.4,1.4,1.2,1.4c0.5,0,0.7-0.1,1-0.5l0.4,0.3c-0.4,0.4-0.8,0.6-1.4,0.6c-1,0-1.7-0.6-1.7-2
		c0-1.3,0.6-2,1.6-2c1,0,1.6,0.7,1.6,1.9v0.3H863.9z M865.8,227c-0.2-0.4-0.5-0.6-0.9-0.6s-0.8,0.2-0.9,0.6
		c-0.1,0.2-0.1,0.3-0.1,0.7h2.1C865.9,227.3,865.9,227.2,865.8,227z"/>
	<path d="M870,226.7c-0.2-0.2-0.4-0.3-0.7-0.3c-0.6,0-0.9,0.5-0.9,1.1v2.4h-0.6v-4h0.6v0.5c0.2-0.3,0.7-0.5,1.1-0.5
		c0.4,0,0.7,0.1,0.9,0.4L870,226.7z"/>
	<path d="M851.5,239.6c-0.9,0-1.4-0.2-2-0.8l0.4-0.4c0.5,0.5,0.9,0.6,1.6,0.6c0.8,0,1.4-0.4,1.4-1.1c0-0.3-0.1-0.6-0.3-0.7
		c-0.2-0.2-0.3-0.2-0.7-0.3l-0.7-0.1c-0.5-0.1-0.8-0.2-1.1-0.4c-0.3-0.3-0.4-0.6-0.4-1.1c0-1,0.7-1.6,1.8-1.6c0.7,0,1.2,0.2,1.7,0.6
		l-0.4,0.4c-0.4-0.3-0.7-0.5-1.3-0.5c-0.8,0-1.2,0.4-1.2,1.1c0,0.3,0.1,0.5,0.3,0.7c0.2,0.2,0.5,0.3,0.8,0.3l0.6,0.1
		c0.5,0.1,0.8,0.2,1,0.4c0.3,0.3,0.5,0.7,0.5,1.1C853.5,239,852.7,239.6,851.5,239.6z"/>
	<path d="M857.2,239.5v-0.4c-0.3,0.3-0.7,0.5-1.1,0.5c-0.4,0-0.8-0.1-1-0.4c-0.3-0.3-0.4-0.7-0.4-1.1v-2.5h0.6v2.4
		c0,0.7,0.4,1.1,1,1.1s1-0.4,1-1.1v-2.4h0.6v4H857.2z"/>
	<path d="M861.9,239.2c-0.2,0.2-0.6,0.3-1,0.3c-0.4,0-0.8-0.1-1.1-0.5v2.2h-0.6v-5.7h0.6v0.5c0.3-0.4,0.7-0.5,1.1-0.5
		c0.4,0,0.8,0.1,1,0.3c0.4,0.4,0.5,1.1,0.5,1.7S862.3,238.8,861.9,239.2z M860.8,236c-0.9,0-1,0.7-1,1.5c0,0.8,0.1,1.5,1,1.5
		s1-0.7,1-1.5C861.8,236.8,861.6,236,860.8,236z"/>
	<path d="M866.2,239.2c-0.2,0.2-0.6,0.3-1,0.3c-0.4,0-0.8-0.1-1.1-0.5v2.2h-0.6v-5.7h0.6v0.5c0.3-0.4,0.7-0.5,1.1-0.5
		c0.4,0,0.8,0.1,1,0.3c0.4,0.4,0.5,1.1,0.5,1.7S866.6,238.8,866.2,239.2z M865.2,236c-0.9,0-1,0.7-1,1.5c0,0.8,0.1,1.5,1,1.5
		s1-0.7,1-1.5C866.2,236.8,866,236,865.2,236z"/>
	<path d="M869,240.5c-0.1,0.2-0.2,0.4-0.3,0.5c-0.2,0.2-0.5,0.3-0.8,0.3h-0.2v-0.5h0.2c0.4,0,0.5-0.1,0.7-0.5l0.3-0.8l-1.4-3.9h0.6
		l1.1,3.2l1.1-3.2h0.6L869,240.5z"/>
	<path d="M854.2,249.2v-0.5l2.3-2.9c0.2-0.3,0.3-0.5,0.3-0.8c0-0.6-0.4-1-1-1c-0.5,0-1,0.3-1,1h-0.6c0-0.9,0.6-1.6,1.6-1.6
		c0.9,0,1.6,0.6,1.6,1.5c0,0.5-0.1,0.8-0.5,1.2l-2,2.6h2.5v0.5H854.2z"/>
	<path d="M861,248.3v0.9h-0.6v-0.9h-2.3v-0.5l2.1-4.3h0.6l-2.1,4.3h1.7v-1.6h0.6v1.6h0.7v0.5H861z"/>
	<path d="M864.5,249.2H864l-1.9-5.7h0.6l1.5,4.6l1.5-4.6h0.6L864.5,249.2z"/>
</g>
<g>
	<path d="M911.2,227.5h-1.5v2.4h-0.6v-5.7h2.1c1,0,1.8,0.7,1.8,1.7S912.3,227.5,911.2,227.5z M911.2,224.7h-1.5v2.3h1.5
		c0.7,0,1.2-0.4,1.2-1.1S911.9,224.7,911.2,224.7z"/>
	<path d="M916.6,229.5c-0.3,0.3-0.7,0.5-1.1,0.5s-0.9-0.2-1.1-0.5c-0.4-0.4-0.5-1-0.5-1.6c0-0.6,0.1-1.2,0.5-1.6
		c0.3-0.3,0.7-0.5,1.1-0.5s0.9,0.2,1.1,0.5c0.4,0.4,0.5,1,0.5,1.6C917.1,228.5,917,229.1,916.6,229.5z M916.2,226.7
		c-0.2-0.2-0.4-0.3-0.7-0.3s-0.5,0.1-0.7,0.3c-0.3,0.3-0.3,0.8-0.3,1.2s0,0.9,0.3,1.2c0.2,0.2,0.4,0.3,0.7,0.3s0.5-0.1,0.7-0.3
		c0.3-0.3,0.3-0.8,0.3-1.2S916.5,227,916.2,226.7z"/>
	<path d="M922.1,229.9h-0.5l-1-3.1l-1,3.1H919l-1.3-4h0.6l0.9,3.2l1-3.2h0.5l1,3.2l0.9-3.2h0.6L922.1,229.9z"/>
	<path d="M924.5,228c0,0.9,0.4,1.4,1.2,1.4c0.5,0,0.7-0.1,1-0.5l0.4,0.3c-0.4,0.4-0.8,0.6-1.4,0.6c-1,0-1.7-0.6-1.7-2
		c0-1.3,0.6-2,1.6-2c1,0,1.6,0.7,1.6,1.9v0.3H924.5z M926.5,227c-0.2-0.4-0.5-0.6-0.9-0.6s-0.8,0.2-0.9,0.6
		c-0.1,0.2-0.1,0.3-0.1,0.7h2.1C926.6,227.3,926.6,227.2,926.5,227z"/>
	<path d="M930.6,226.7c-0.2-0.2-0.4-0.3-0.7-0.3c-0.6,0-0.9,0.5-0.9,1.1v2.4h-0.6v-4h0.6v0.5c0.2-0.3,0.7-0.5,1.1-0.5
		c0.4,0,0.7,0.1,0.9,0.4L930.6,226.7z"/>
	<path d="M912.2,239.6c-0.9,0-1.4-0.2-2-0.8l0.4-0.4c0.5,0.5,0.9,0.6,1.6,0.6c0.8,0,1.4-0.4,1.4-1.1c0-0.3-0.1-0.6-0.3-0.7
		c-0.2-0.2-0.3-0.2-0.7-0.3l-0.7-0.1c-0.5-0.1-0.8-0.2-1.1-0.4c-0.3-0.3-0.4-0.6-0.4-1.1c0-1,0.7-1.6,1.8-1.6c0.7,0,1.2,0.2,1.7,0.6
		l-0.4,0.4c-0.4-0.3-0.7-0.5-1.3-0.5c-0.8,0-1.2,0.4-1.2,1.1c0,0.3,0.1,0.5,0.3,0.7c0.2,0.2,0.5,0.3,0.8,0.3l0.6,0.1
		c0.5,0.1,0.8,0.2,1,0.4c0.3,0.3,0.5,0.7,0.5,1.1C914.2,239,913.4,239.6,912.2,239.6z"/>
	<path d="M917.8,239.5v-0.4c-0.3,0.3-0.7,0.5-1.1,0.5c-0.4,0-0.8-0.1-1-0.4c-0.3-0.3-0.4-0.7-0.4-1.1v-2.5h0.6v2.4
		c0,0.7,0.4,1.1,1,1.1s1-0.4,1-1.1v-2.4h0.6v4H917.8z"/>
	<path d="M922.5,239.2c-0.2,0.2-0.6,0.3-1,0.3c-0.4,0-0.8-0.1-1.1-0.5v2.2h-0.6v-5.7h0.6v0.5c0.3-0.4,0.7-0.5,1.1-0.5
		c0.4,0,0.8,0.1,1,0.3c0.4,0.4,0.5,1.1,0.5,1.7S922.9,238.8,922.5,239.2z M921.4,236c-0.9,0-1,0.7-1,1.5c0,0.8,0.1,1.5,1,1.5
		s1-0.7,1-1.5C922.4,236.8,922.3,236,921.4,236z"/>
	<path d="M926.9,239.2c-0.2,0.2-0.6,0.3-1,0.3c-0.4,0-0.8-0.1-1.1-0.5v2.2h-0.6v-5.7h0.6v0.5c0.3-0.4,0.7-0.5,1.1-0.5
		c0.4,0,0.8,0.1,1,0.3c0.4,0.4,0.5,1.1,0.5,1.7S927.3,238.8,926.9,239.2z M925.8,236c-0.9,0-1,0.7-1,1.5c0,0.8,0.1,1.5,1,1.5
		s1-0.7,1-1.5C926.8,236.8,926.7,236,925.8,236z"/>
	<path d="M929.6,240.5c-0.1,0.2-0.2,0.4-0.3,0.5c-0.2,0.2-0.5,0.3-0.8,0.3h-0.2v-0.5h0.2c0.4,0,0.5-0.1,0.7-0.5l0.3-0.8l-1.4-3.9
		h0.6l1.1,3.2l1.1-3.2h0.6L929.6,240.5z"/>
	<path d="M916.4,249.2v-5.1l-1.1,0.9v-0.7l1.1-0.9h0.6v5.7H916.4z"/>
	<path d="M919,249.2v-0.5l2.3-2.9c0.2-0.3,0.3-0.5,0.3-0.8c0-0.6-0.4-1-1-1c-0.5,0-1,0.3-1,1H919c0-0.9,0.6-1.6,1.6-1.6
		c0.9,0,1.6,0.6,1.6,1.5c0,0.5-0.1,0.8-0.5,1.2l-2,2.6h2.5v0.5H919z"/>
	<path d="M925.1,249.2h-0.5l-1.9-5.7h0.6l1.5,4.6l1.5-4.6h0.6L925.1,249.2z"/>
</g>
<g>
	<path class="st17" d="M876.2,394v-8.5h5.3v0.8h-4.4v3h3.7v0.8h-3.7v3.1h4.4v0.8H876.2z"/>
	<path class="st17" d="M883.4,394v-8.5h0.9v7.7h4.4v0.8H883.4z"/>
	<path class="st17" d="M890.2,394v-8.5h5.3v0.8h-4.4v3h3.7v0.8h-3.7v3.1h4.4v0.8H890.2z"/>
	<path class="st17" d="M900.1,394.1c-0.8,0-1.6-0.3-2.2-0.9c-0.8-0.8-0.8-1.6-0.8-3.5c0-1.8,0-2.7,0.8-3.5c0.6-0.6,1.3-0.9,2.2-0.9
		c1.5,0,2.7,0.9,3,2.5h-0.9c-0.2-1-1-1.7-2-1.7c-0.6,0-1.1,0.2-1.5,0.6c-0.5,0.6-0.6,1.1-0.6,2.9s0.1,2.4,0.6,2.9
		c0.4,0.4,0.9,0.6,1.5,0.6c1.1,0,1.8-0.7,2.1-1.7h0.9C902.8,393.2,901.6,394.1,900.1,394.1z"/>
	<path class="st17" d="M907.3,386.3v7.7h-0.9v-7.7H904v-0.8h5.9v0.8H907.3z"/>
	<path class="st17" d="M916.3,394l-1.9-3.8h-2.1v3.8h-0.9v-8.5h3.3c1.5,0,2.5,0.9,2.5,2.4c0,1.2-0.8,2.1-1.9,2.3l2,3.9H916.3z
		 M914.6,386.3h-2.3v3.1h2.3c1,0,1.7-0.5,1.7-1.6C916.3,386.8,915.6,386.3,914.6,386.3z"/>
	<path class="st17" d="M924.1,393.2c-0.6,0.6-1.3,0.9-2.2,0.9s-1.6-0.3-2.2-0.9c-0.8-0.8-0.8-1.6-0.8-3.5c0-1.8,0-2.7,0.8-3.5
		c0.6-0.6,1.3-0.9,2.2-0.9s1.6,0.3,2.2,0.9c0.8,0.8,0.8,1.6,0.8,3.5C924.9,391.6,924.9,392.4,924.1,393.2z M923.4,386.9
		c-0.4-0.4-0.9-0.6-1.5-0.6c-0.6,0-1.1,0.2-1.5,0.6c-0.5,0.6-0.6,1.1-0.6,2.9s0.1,2.4,0.6,2.9c0.4,0.4,0.9,0.6,1.5,0.6
		c0.6,0,1.1-0.2,1.5-0.6c0.5-0.6,0.6-1.1,0.6-2.9S924,387.4,923.4,386.9z"/>
	<path class="st17" d="M932.5,394l-4.5-6.8v6.8h-0.9v-8.5h0.9l4.5,6.8v-6.8h0.9v8.5H932.5z"/>
	<path class="st17" d="M935.9,394v-8.5h0.9v8.5H935.9z"/>
	<path class="st17" d="M941.9,394.1c-0.8,0-1.6-0.3-2.2-0.9c-0.8-0.8-0.8-1.6-0.8-3.5c0-1.8,0-2.7,0.8-3.5c0.6-0.6,1.3-0.9,2.2-0.9
		c1.5,0,2.7,0.9,3,2.5h-0.9c-0.2-1-1-1.7-2-1.7c-0.6,0-1.1,0.2-1.5,0.6c-0.5,0.6-0.6,1.1-0.6,2.9s0.1,2.4,0.6,2.9
		c0.4,0.4,0.9,0.6,1.5,0.6c1.1,0,1.8-0.7,2.1-1.7h0.9C944.6,393.2,943.4,394.1,941.9,394.1z"/>
	<path class="st17" d="M953.1,390.5h-2.3v3.5h-0.9v-8.5h3.2c1.6,0,2.6,1,2.6,2.5S954.6,390.5,953.1,390.5z M953,386.3h-2.2v3.4h2.2
		c1.1,0,1.8-0.6,1.8-1.7C954.8,386.9,954,386.3,953,386.3z"/>
	<path class="st17" d="M961.8,394l-0.7-1.9h-3.7l-0.7,1.9h-1l3.1-8.5h0.8l3.1,8.5H961.8z M959.3,386.8l-1.6,4.5h3.2L959.3,386.8z"/>
	<path class="st17" d="M969.6,394l-4.5-6.8v6.8h-0.9v-8.5h0.9l4.5,6.8v-6.8h0.9v8.5H969.6z"/>
	<path class="st17" d="M973,394v-8.5h5.3v0.8h-4.4v3h3.7v0.8h-3.7v3.1h4.4v0.8H973z"/>
	<path class="st17" d="M980.2,394v-8.5h0.9v7.7h4.4v0.8H980.2z"/>
</g>
<g>
	<path d="M207.9,155.3v-5.7h0.6v5.2h2.9v0.5H207.9z"/>
	<path d="M212.8,153.5c0,0.9,0.4,1.4,1.2,1.4c0.5,0,0.7-0.1,1-0.5l0.4,0.3c-0.4,0.4-0.8,0.6-1.4,0.6c-1,0-1.7-0.6-1.7-2
		c0-1.3,0.6-2,1.6-2c1,0,1.6,0.7,1.6,1.9v0.3H212.8z M214.7,152.4c-0.2-0.4-0.5-0.6-0.9-0.6s-0.8,0.2-0.9,0.6
		c-0.1,0.2-0.1,0.3-0.1,0.7h2.1C214.8,152.7,214.8,152.6,214.7,152.4z"/>
	<path d="M219.2,155.3v-2.4c0-0.7-0.4-1.1-1-1.1c-0.6,0-1,0.4-1,1.1v2.4h-0.6v-4h0.6v0.4c0.3-0.3,0.7-0.5,1.1-0.5
		c0.4,0,0.8,0.1,1,0.4c0.3,0.3,0.4,0.6,0.4,1.1v2.5H219.2z"/>
	<path d="M222.4,157.1c-0.6,0-0.9-0.2-1.3-0.5l0.4-0.4c0.3,0.3,0.5,0.4,0.9,0.4c0.8,0,1.1-0.5,1.1-1.2v-0.6
		c-0.3,0.4-0.7,0.5-1.1,0.5c-0.4,0-0.7-0.1-1-0.4c-0.4-0.4-0.5-1-0.5-1.6c0-0.6,0.1-1.3,0.5-1.6c0.2-0.2,0.6-0.3,1-0.3
		c0.4,0,0.8,0.1,1.1,0.5v-0.5h0.6v4.1C224.1,156.4,223.5,157.1,222.4,157.1z M222.5,151.8c-0.9,0-1,0.7-1,1.5c0,0.7,0.1,1.5,1,1.5
		s1-0.7,1-1.5C223.5,152.5,223.4,151.8,222.5,151.8z"/>
	<path d="M226.7,155.3c-0.7,0-1-0.5-1-1.1v-2.4h-0.5v-0.4h0.5v-1.2h0.6v1.2h0.8v0.4h-0.8v2.4c0,0.4,0.2,0.6,0.5,0.6h0.3v0.5H226.7z"
		/>
	<path d="M230.8,155.3v-2.4c0-0.7-0.4-1-1-1c-0.6,0-1,0.4-1,1v2.4h-0.6v-5.7h0.6v2.2c0.3-0.3,0.7-0.5,1.1-0.5c0.9,0,1.4,0.6,1.4,1.5
		v2.5H230.8z"/>
	<path d="M237.1,155.3h-2.2v-5.7h2.2c1,0,1.7,0.6,1.7,1.5c0,0.6-0.4,1.1-0.8,1.3c0.5,0.2,0.9,0.7,0.9,1.4
		C238.8,154.7,238.1,155.3,237.1,155.3z M237,150.1h-1.5v2h1.5c0.6,0,1.1-0.3,1.1-1S237.6,150.1,237,150.1z M237,152.6h-1.6v2.1h1.6
		c0.7,0,1.2-0.4,1.2-1.1C238.2,153,237.7,152.6,237,152.6z"/>
</g>
<g>
	<path d="M456.3,306.4v-5.7h0.6v5.2h2.9v0.5H456.3z"/>
	<path d="M461.2,304.6c0,0.9,0.4,1.4,1.2,1.4c0.5,0,0.7-0.1,1-0.5l0.4,0.3c-0.4,0.4-0.8,0.6-1.4,0.6c-1,0-1.7-0.6-1.7-2
		c0-1.3,0.6-2,1.6-2c1,0,1.6,0.7,1.6,1.9v0.3H461.2z M463.1,303.5c-0.2-0.4-0.5-0.6-0.9-0.6s-0.8,0.2-0.9,0.6
		c-0.1,0.2-0.1,0.3-0.1,0.7h2.1C463.2,303.8,463.2,303.7,463.1,303.5z"/>
	<path d="M467.6,306.4V304c0-0.7-0.4-1.1-1-1.1c-0.6,0-1,0.4-1,1.1v2.4h-0.6v-4h0.6v0.4c0.3-0.3,0.7-0.5,1.1-0.5
		c0.4,0,0.8,0.1,1,0.4c0.3,0.3,0.4,0.6,0.4,1.1v2.5H467.6z"/>
	<path d="M470.9,308.2c-0.6,0-0.9-0.2-1.3-0.5l0.4-0.4c0.3,0.3,0.5,0.4,0.9,0.4c0.8,0,1.1-0.5,1.1-1.2v-0.6
		c-0.3,0.4-0.7,0.5-1.1,0.5c-0.4,0-0.7-0.1-1-0.4c-0.4-0.4-0.5-1-0.5-1.6c0-0.6,0.1-1.3,0.5-1.6c0.2-0.2,0.6-0.3,1-0.3
		c0.4,0,0.8,0.1,1.1,0.5v-0.5h0.6v4.1C472.5,307.5,471.9,308.2,470.9,308.2z M470.9,302.9c-0.9,0-1,0.7-1,1.5c0,0.7,0.1,1.5,1,1.5
		s1-0.7,1-1.5C471.9,303.6,471.8,302.9,470.9,302.9z"/>
	<path d="M475.1,306.4c-0.7,0-1-0.5-1-1.1v-2.4h-0.5v-0.4h0.5v-1.2h0.6v1.2h0.8v0.4h-0.8v2.4c0,0.4,0.2,0.6,0.5,0.6h0.3v0.5H475.1z"
		/>
	<path d="M479.2,306.4v-2.4c0-0.7-0.4-1-1-1c-0.6,0-1,0.4-1,1v2.4h-0.6v-5.7h0.6v2.2c0.3-0.3,0.7-0.5,1.1-0.5c0.9,0,1.4,0.6,1.4,1.5
		v2.5H479.2z"/>
	<path d="M485,306.4c-0.6,0-1.1-0.2-1.5-0.6c-0.5-0.5-0.5-1.1-0.5-2.3c0-1.2,0-1.8,0.5-2.3c0.4-0.4,0.9-0.6,1.5-0.6
		c1,0,1.8,0.6,2,1.7h-0.6c-0.2-0.7-0.6-1.2-1.4-1.2c-0.4,0-0.7,0.1-1,0.4c-0.4,0.4-0.4,0.8-0.4,2c0,1.2,0,1.6,0.4,2
		c0.2,0.3,0.6,0.4,1,0.4c0.7,0,1.2-0.5,1.4-1.2h0.6C486.8,305.8,486.1,306.4,485,306.4z"/>
</g>
<g>
	<path d="M763.3,171.7V166h0.6v5.2h2.9v0.5H763.3z"/>
	<path d="M768.1,169.9c0,0.9,0.4,1.4,1.2,1.4c0.5,0,0.7-0.1,1-0.5l0.4,0.3c-0.4,0.4-0.8,0.6-1.4,0.6c-1,0-1.7-0.6-1.7-2
		c0-1.3,0.6-2,1.6-2c1,0,1.6,0.7,1.6,1.9v0.3H768.1z M770.1,168.8c-0.2-0.4-0.5-0.6-0.9-0.6s-0.8,0.2-0.9,0.6
		c-0.1,0.2-0.1,0.3-0.1,0.7h2.1C770.2,169.1,770.2,169,770.1,168.8z"/>
	<path d="M774.6,171.7v-2.4c0-0.7-0.4-1.1-1-1.1c-0.6,0-1,0.4-1,1.1v2.4H772v-4h0.6v0.4c0.3-0.3,0.7-0.5,1.1-0.5
		c0.4,0,0.8,0.1,1,0.4c0.3,0.3,0.4,0.6,0.4,1.1v2.5H774.6z"/>
	<path d="M777.8,173.5c-0.6,0-0.9-0.2-1.3-0.5l0.4-0.4c0.3,0.3,0.5,0.4,0.9,0.4c0.8,0,1.1-0.5,1.1-1.2v-0.6
		c-0.3,0.4-0.7,0.5-1.1,0.5c-0.4,0-0.7-0.1-1-0.4c-0.4-0.4-0.5-1-0.5-1.6c0-0.6,0.1-1.3,0.5-1.6c0.2-0.2,0.6-0.3,1-0.3
		c0.4,0,0.8,0.1,1.1,0.5v-0.5h0.6v4.1C779.5,172.8,778.9,173.5,777.8,173.5z M777.9,168.2c-0.9,0-1,0.7-1,1.5c0,0.7,0.1,1.5,1,1.5
		s1-0.7,1-1.5C778.9,169,778.8,168.2,777.9,168.2z"/>
	<path d="M782,171.7c-0.7,0-1-0.5-1-1.1v-2.4h-0.5v-0.4h0.5v-1.2h0.6v1.2h0.8v0.4h-0.8v2.4c0,0.4,0.2,0.6,0.5,0.6h0.3v0.5H782z"/>
	<path d="M786.1,171.7v-2.4c0-0.7-0.4-1-1-1c-0.6,0-1,0.4-1,1v2.4h-0.6V166h0.6v2.2c0.3-0.3,0.7-0.5,1.1-0.5c0.9,0,1.4,0.6,1.4,1.5
		v2.5H786.1z"/>
	<path d="M792,171.8c-0.6,0-1.1-0.2-1.5-0.6c-0.5-0.5-0.5-1.1-0.5-2.3c0-1.2,0-1.8,0.5-2.3c0.4-0.4,0.9-0.6,1.5-0.6
		c1,0,1.8,0.6,2,1.7h-0.6c-0.2-0.7-0.6-1.2-1.4-1.2c-0.4,0-0.7,0.1-1,0.4c-0.4,0.4-0.4,0.8-0.4,2c0,1.2,0,1.6,0.4,2
		c0.2,0.3,0.6,0.4,1,0.4c0.7,0,1.2-0.5,1.4-1.2h0.6C793.8,171.1,793,171.8,792,171.8z"/>
</g>
<polyline class="st20" points="193.3,195.6 193.3,152.3 202.9,152.3 "/>
<polyline class="st20" points="490.3,304.6 511.7,304.6 511.7,289.9 "/>
<polyline class="st20" points="748,187.9 748,169.4 758,169.4 "/>
</svg>
